<?xml version="1.0" encoding="utf-8"?>
<!-- Generator: Adobe Illustrator 15.0.0, SVG Export Plug-In . SVG Version: 6.00 Build 0)  -->
<!DOCTYPE svg PUBLIC "-//W3C//DTD SVG 1.0//EN" "http://www.w3.org/TR/2001/REC-SVG-20010904/DTD/svg10.dtd">
<svg version="1.0" id="Camada_1" xmlns="http://www.w3.org/2000/svg" xmlns:xlink="http://www.w3.org/1999/xlink" x="0px" y="0px"
	 width="1090.445px" height="431.979px" viewBox="0 0 1090.445 431.979" enable-background="new 0 0 1090.445 431.979"
	 xml:space="preserve">
<g>
	<g>
		<g>
			<path fill="#FFFFFF" d="M795.049,381.407c-0.641,1.266-1.507,2.324-2.599,3.178s-2.367,1.493-3.822,1.919
				c-1.457,0.427-3,0.64-4.631,0.64h-7.427v10.898h-3.451v-30.887h11.446c1.718,0,3.282,0.229,4.695,0.685
				c1.412,0.456,2.621,1.103,3.626,1.94c1.004,0.838,1.776,1.868,2.315,3.088c0.539,1.222,0.809,2.597,0.809,4.125
				C796.011,378.672,795.69,380.143,795.049,381.407z M790.303,372.075c-1.504-1.132-3.498-1.697-5.979-1.697h-7.754v13.589h7.577
				c1.257,0,2.402-0.161,3.439-0.485c1.036-0.323,1.927-0.787,2.672-1.39c0.745-0.604,1.314-1.324,1.708-2.162
				c0.395-0.838,0.592-1.772,0.592-2.802C792.56,374.893,791.807,373.208,790.303,372.075z"/>
			<path fill="#FFFFFF" d="M827.29,384.849c0,2.265-0.307,4.25-0.918,5.956c-0.611,1.707-1.479,3.133-2.6,4.28
				c-1.121,1.146-2.462,2.007-4.02,2.58c-1.559,0.574-3.298,0.86-5.221,0.86c-1.894,0-3.619-0.287-5.178-0.86
				c-1.558-0.572-2.897-1.426-4.019-2.559c-1.121-1.132-1.987-2.537-2.599-4.214c-0.612-1.677-0.917-3.604-0.917-5.78v-17.958h3.45
				v17.737c0,3.353,0.823,5.928,2.469,7.721c1.645,1.795,3.938,2.692,6.88,2.692c2.825,0,5.067-0.854,6.728-2.561
				c1.661-1.706,2.491-4.25,2.491-7.633v-17.958h3.451L827.29,384.849L827.29,384.849z"/>
			<path fill="#FFFFFF" d="M859.201,395.372c-0.859,0.662-1.784,1.229-2.774,1.699c-0.99,0.472-2.053,0.838-3.188,1.104
				c-1.135,0.265-2.403,0.396-3.801,0.396c-2.215,0-4.254-0.412-6.116-1.234c-1.863-0.823-3.48-1.948-4.85-3.375
				c-1.37-1.427-2.439-3.11-3.211-5.053c-0.771-1.94-1.157-4.029-1.157-6.266c0-2.206,0.386-4.28,1.157-6.221
				c0.771-1.941,1.841-3.641,3.211-5.097c1.368-1.456,2.999-2.603,4.894-3.44c1.894-0.838,3.96-1.257,6.204-1.257
				c1.396,0,2.655,0.117,3.777,0.353c1.12,0.235,2.162,0.566,3.124,0.993c0.961,0.427,1.85,0.94,2.664,1.544
				s1.603,1.273,2.359,2.008l-2.359,2.56c-1.311-1.235-2.716-2.25-4.216-3.044c-1.5-0.795-3.298-1.191-5.396-1.191
				c-1.689,0-3.255,0.324-4.695,0.971c-1.441,0.647-2.694,1.544-3.758,2.691c-1.063,1.146-1.894,2.493-2.49,4.037
				s-0.896,3.214-0.896,5.008s0.299,3.471,0.896,5.03c0.598,1.56,1.428,2.911,2.49,4.059s2.315,2.052,3.758,2.714
				c1.44,0.662,3.006,0.993,4.695,0.993c2.098,0,3.901-0.39,5.418-1.169c1.514-0.779,2.999-1.875,4.455-3.287l2.271,2.25
				C860.884,393.968,860.06,394.71,859.201,395.372z"/>
			<path fill="#FFFFFF" d="M888.755,398.042l-8.869-12.001h-8.735v12.001h-3.451v-30.886h13.147c1.689,0,3.211,0.222,4.566,0.663
				c1.354,0.441,2.512,1.066,3.473,1.876s1.703,1.781,2.229,2.913c0.523,1.134,0.786,2.393,0.786,3.775
				c0,1.294-0.203,2.449-0.611,3.465s-0.982,1.897-1.726,2.648c-0.744,0.751-1.625,1.376-2.645,1.876s-2.125,0.854-3.319,1.06
				l9.393,12.609H888.755L888.755,398.042z M886.39,371.993c-1.371-1.076-3.299-1.615-5.78-1.615h-9.459v12.574h9.416
				c1.139,0,2.188-0.146,3.151-0.442c0.965-0.295,1.797-0.716,2.498-1.263c0.699-0.546,1.247-1.217,1.643-2.014
				c0.394-0.797,0.591-1.698,0.591-2.701C888.448,374.583,887.762,373.07,886.39,371.993z"/>
			<path fill="#FFFFFF" d="M902.296,376.83c0.232,0.59,0.656,1.127,1.269,1.613c0.611,0.486,1.454,0.928,2.532,1.326
				c1.077,0.397,2.461,0.772,4.15,1.126c3.407,0.766,5.92,1.826,7.535,3.182c1.617,1.355,2.426,3.227,2.426,5.612
				c0,1.327-0.26,2.534-0.777,3.625c-0.518,1.09-1.23,2.018-2.141,2.784c-0.91,0.766-2.005,1.354-3.286,1.768
				c-1.282,0.412-2.68,0.619-4.194,0.619c-2.444,0-4.682-0.398-6.704-1.196c-2.024-0.797-3.953-2.03-5.789-3.701l2.141-2.56
				c1.603,1.471,3.219,2.567,4.85,3.287c1.632,0.721,3.511,1.081,5.637,1.081c2.066,0,3.72-0.486,4.958-1.458
				s1.856-2.254,1.856-3.845c0-0.736-0.116-1.393-0.352-1.966c-0.232-0.574-0.643-1.098-1.228-1.568
				c-0.584-0.472-1.393-0.898-2.43-1.282c-1.035-0.383-2.357-0.751-3.963-1.104c-1.752-0.384-3.277-0.825-4.576-1.326
				c-1.299-0.5-2.373-1.104-3.219-1.813c-0.847-0.707-1.475-1.531-1.883-2.474c-0.408-0.943-0.613-2.063-0.613-3.359
				c0-1.236,0.248-2.371,0.743-3.401c0.495-1.031,1.193-1.923,2.097-2.674s1.966-1.34,3.189-1.768
				c1.223-0.427,2.563-0.641,4.02-0.641c2.242,0,4.2,0.313,5.875,0.936c1.674,0.624,3.299,1.563,4.871,2.815l-2.01,2.69
				c-1.428-1.176-2.861-2.028-4.303-2.559c-1.441-0.529-2.949-0.794-4.521-0.794c-0.99,0-1.887,0.133-2.688,0.396
				c-0.802,0.267-1.484,0.619-2.054,1.062c-0.568,0.441-1.004,0.972-1.311,1.591c-0.306,0.619-0.459,1.281-0.459,1.988
				C901.946,375.578,902.063,376.241,902.296,376.83z"/>
		</g>
		<g>
			<path fill="none" stroke="#162138" stroke-width="2" stroke-miterlimit="10" d="M258.8,256.175
				c-9.066,0-17.444-1.354-25.123-4.062c-7.682-2.706-14.295-6.578-19.834-11.617c-5.543-5.035-9.855-11.112-12.939-18.229
				c-3.088-7.112-4.629-15.141-4.629-24.084c0-10.073,2.014-19.959,6.044-29.657c4.03-9.695,9.947-18.447,17.757-26.257
				c7.051-7.051,15.551-12.752,25.502-17.097c9.947-4.345,21.092-6.516,33.437-6.516c13.473,0,24.745,3.022,33.812,9.065
				c9.068,6.047,15.614,14.168,19.646,24.369l-31.735,17.002c-2.646-5.541-6.11-9.791-10.39-12.752
				c-4.283-2.957-9.633-4.438-16.057-4.438c-5.166,0-9.981,1.009-14.449,3.022c-4.473,2.017-8.471,4.787-11.996,8.311
				c-4.032,4.156-7.243,9.037-9.635,14.641c-2.394,5.605-3.588,11.555-3.588,17.852c0,8.438,2.484,15.082,7.461,19.929
				c4.973,4.849,11.301,7.272,18.984,7.272c5.79,0,10.893-1.162,15.301-3.494c4.406-2.33,8.752-5.635,13.033-9.918l24.747,21.912
				c-6.422,7.306-14.106,13.256-23.046,17.852C282.159,253.876,271.393,256.175,258.8,256.175z"/>
			<path fill="none" stroke="#162138" stroke-width="2" stroke-miterlimit="10" d="M397.263,120.356h35.891l20.59,133.174h-38.535
				l-3.211-23.801h-51.004l-15.867,23.801h-39.858L397.263,120.356z M409.163,201.205l-4.91-37.78l-24.747,37.78H409.163z"/>
			<path fill="none" stroke="#162138" stroke-width="2" stroke-miterlimit="10" d="M494.356,121.301h42.689
				c12.847,0,23.424,1.576,31.737,4.722c8.311,3.149,14.983,7.243,20.022,12.278c9.567,9.573,14.355,22.479,14.355,38.726
				c0,9.948-1.827,19.332-5.479,28.146c-3.651,8.817-9.067,16.812-16.244,23.991c-7.935,7.934-17.633,13.978-29.092,18.135
				c-11.461,4.154-24.873,6.232-40.235,6.232h-53.459L494.356,121.301z M558.96,161.725c-2.521-2.518-5.854-4.501-10.012-5.95
				c-4.155-1.445-9.444-2.172-15.867-2.172h-10.768l-18.137,67.438h12.091c7.808,0,14.985-1.133,21.534-3.401
				c6.548-2.267,12.024-5.603,16.436-10.011c3.523-3.524,6.297-7.712,8.312-12.563c2.013-4.846,3.022-9.916,3.022-15.205
				c0-4.031-0.566-7.524-1.699-10.485C562.737,166.418,561.101,163.868,558.96,161.725z"/>
			<polygon fill="none" stroke="#162138" stroke-width="2" stroke-miterlimit="10" points="633.575,121.301 739.36,121.301 
				730.858,152.279 661.345,152.279 655.865,172.493 718.958,172.493 711.214,201.204 648.121,201.204 642.453,222.362 
				713.103,222.362 704.791,253.53 597.872,253.53 			"/>
			<polygon fill="none" stroke="#162138" stroke-width="2" stroke-miterlimit="10" points="755.226,121.301 792.062,121.301 
				809.629,172.493 854.588,121.301 895.769,121.301 860.255,253.53 823.418,253.53 843.819,177.593 796.405,229.352 
				795.651,229.352 776.192,177.782 755.793,253.53 719.522,253.53 			"/>
			<polygon fill="none" stroke="#162138" stroke-width="2" stroke-miterlimit="10" points="914.847,121.301 951.491,121.301 
				915.979,253.53 879.331,253.53 			"/>
			<path fill="none" stroke="#162138" stroke-width="2" stroke-miterlimit="10" d="M1015.341,120.356h35.892l20.59,133.174h-38.535
				l-3.211-23.801h-51.004l-15.867,23.801h-39.857L1015.341,120.356z M1027.241,201.205l-4.91-37.78l-24.748,37.78H1027.241z"/>
			<path fill="none" stroke="#162138" stroke-width="2" stroke-miterlimit="10" d="M138.116,120.356h35.891l20.59,133.174h-38.535
				l-3.211-23.801h-51.004L85.979,253.53H46.121L138.116,120.356z M150.017,201.205l-4.91-37.78l-24.748,37.78H150.017z"/>
			<path fill="#FFFFFF" d="M231.304,241.048c-9.066,0-17.445-1.354-25.124-4.063c-7.683-2.705-14.294-6.578-19.834-11.617
				c-5.543-5.035-9.854-11.111-12.938-18.229c-3.088-7.113-4.629-15.141-4.629-24.084c0-10.074,2.014-19.959,6.043-29.658
				c4.03-9.695,9.947-18.447,17.758-26.257c7.051-7.051,15.551-12.75,25.502-17.097c9.947-4.344,21.092-6.516,33.436-6.516
				c13.473,0,24.745,3.022,33.813,9.066c9.067,6.046,15.613,14.168,19.646,24.367l-31.735,17.003
				c-2.645-5.54-6.109-9.79-10.39-12.751c-4.283-2.957-9.633-4.439-16.056-4.439c-5.166,0-9.982,1.01-14.45,3.021
				c-4.472,2.018-8.472,4.789-11.996,8.312c-4.032,4.157-7.243,9.038-9.634,14.642c-2.395,5.604-3.59,11.555-3.59,17.851
				c0,8.438,2.486,15.082,7.461,19.929c4.974,4.85,11.303,7.272,18.986,7.272c5.789,0,10.891-1.162,15.301-3.494
				c4.406-2.329,8.75-5.636,13.033-9.917l24.746,21.912c-6.422,7.305-14.105,13.256-23.046,17.851
				C254.661,238.749,243.896,241.048,231.304,241.048"/>
			<path fill="#FFFFFF" d="M369.767,105.228h35.891l20.59,133.176h-38.535l-3.212-23.803h-51.003l-15.868,23.803h-39.858
				L369.767,105.228z M381.666,186.077l-4.91-37.779l-24.747,37.779H381.666z"/>
			<path fill="#FFFFFF" d="M466.858,106.173h42.69c12.847,0,23.424,1.576,31.737,4.723c8.312,3.148,14.982,7.242,20.021,12.277
				c9.568,9.573,14.356,22.48,14.356,38.725c0,9.949-1.827,19.332-5.479,28.146c-3.652,8.817-9.067,16.813-16.245,23.991
				c-7.935,7.935-17.632,13.978-29.091,18.135c-11.461,4.155-24.875,6.233-40.237,6.233h-53.457L466.858,106.173z M531.463,146.597
				c-2.521-2.518-5.855-4.5-10.011-5.949c-4.156-1.446-9.445-2.172-15.868-2.172h-10.769l-18.136,67.437h12.093
				c7.807,0,14.983-1.133,21.532-3.401c6.547-2.266,12.025-5.602,16.437-10.011c3.522-3.524,6.296-7.712,8.311-12.562
				c2.014-4.846,3.023-9.918,3.023-15.207c0-4.029-0.566-7.523-1.7-10.484C535.241,151.29,533.603,148.74,531.463,146.597"/>
			<polygon fill="#FFFFFF" points="606.078,106.173 711.863,106.173 703.363,137.151 633.847,137.151 628.368,157.364 
				691.462,157.364 683.718,186.077 620.624,186.077 614.956,207.235 685.604,207.235 677.294,238.403 570.375,238.403 			"/>
			<polygon fill="#FFFFFF" points="727.729,106.173 764.565,106.173 782.132,157.364 827.091,106.173 868.271,106.173 
				832.758,238.403 795.921,238.403 816.323,162.465 768.909,214.224 768.153,214.224 748.696,162.653 728.296,238.403 
				692.026,238.403 			"/>
			<polygon fill="#FFFFFF" points="887.351,106.173 923.995,106.173 888.481,238.403 851.835,238.403 			"/>
			<path fill="#FFFFFF" d="M987.845,105.228h35.892l20.59,133.176h-38.535l-3.213-23.803h-51.002l-15.869,23.803H895.85
				L987.845,105.228z M999.743,186.077l-4.91-37.779l-24.746,37.779H999.743z"/>
			<path fill="#FFFFFF" d="M110.619,105.228h35.892l20.59,133.176h-38.535l-3.212-23.803H74.351l-15.868,23.803H18.624
				L110.619,105.228z M122.52,186.077l-4.91-37.779l-24.747,37.779H122.52z"/>
		</g>
		<g>
			<g>
				<g>
					<defs>
						<path id="SVGID_1_" d="M44.002,301.192h4.293c2.561,0,4.669,0.29,6.326,0.866c1.656,0.577,2.986,1.369,3.99,2.372
							c0.854,0.854,1.506,1.869,1.959,3.05c0.451,1.18,0.678,2.573,0.678,4.18c0,2.109-0.402,4.13-1.205,6.063
							c-0.805,1.934-1.909,3.603-3.313,5.009c-1.758,1.758-3.943,3.087-6.553,3.989c-2.611,0.903-5.473,1.355-8.585,1.355h-4.819
							L44.002,301.192z M32.857,288.314L18.624,341.03h21.312c6.124,0,11.473-0.828,16.04-2.485
							c4.568-1.656,8.435-4.065,11.599-7.229c2.86-2.861,5.02-6.05,6.477-9.563c1.454-3.515,2.184-7.256,2.184-11.223
							c0-6.476-1.91-11.622-5.725-15.438c-2.008-2.008-4.668-3.64-7.98-4.894c-3.315-1.256-7.531-1.885-12.652-1.885L32.857,288.314
							L32.857,288.314z"/>
					</defs>
					<clipPath id="SVGID_2_">
						<use xlink:href="#SVGID_1_"  overflow="visible"/>
					</clipPath>
					
						<linearGradient id="SVGID_3_" gradientUnits="userSpaceOnUse" x1="-257.7393" y1="-1157.7192" x2="-256.7476" y2="-1157.7192" gradientTransform="matrix(986.5701 -11.1477 11.1477 986.5701 267091.8438 1139614)">
						<stop  offset="0" style="stop-color:#AED294"/>
						<stop  offset="0.0447" style="stop-color:#B2D499"/>
						<stop  offset="1" style="stop-color:#FFFFFF"/>
					</linearGradient>
					<polygon clip-path="url(#SVGID_2_)" fill="url(#SVGID_3_)" points="18.028,288.322 76.227,287.664 76.83,341.023 
						18.631,341.681 					"/>
				</g>
			</g>
			<g>
				<g>
					<defs>
						<path id="SVGID_4_" d="M100.445,328.039c-1.431-0.576-2.637-1.392-3.615-2.447c-0.979-1.054-1.719-2.296-2.221-3.728
							c-0.504-1.431-0.754-2.975-0.754-4.631c0-2.26,0.465-4.505,1.393-6.74c0.93-2.232,2.195-4.179,3.804-5.837
							c1.306-1.305,2.798-2.334,4.481-3.087c1.681-0.753,3.525-1.13,5.535-1.13c1.856,0,3.512,0.29,4.969,0.866
							c1.457,0.578,2.674,1.394,3.654,2.447c0.978,1.054,1.719,2.297,2.221,3.728c0.5,1.43,0.752,2.976,0.752,4.632
							c0,2.26-0.463,4.506-1.393,6.739c-0.93,2.235-2.197,4.155-3.803,5.762c-1.307,1.307-2.799,2.349-4.48,3.125
							c-1.683,0.779-3.527,1.168-5.535,1.168C103.545,328.906,101.876,328.617,100.445,328.039 M98.035,289.783
							c-3.741,1.632-7.016,3.854-9.827,6.665c-2.913,2.911-5.173,6.264-6.777,10.055c-1.608,3.791-2.411,7.744-2.411,11.86
							c0,3.363,0.604,6.49,1.809,9.375c1.203,2.888,2.91,5.385,5.119,7.493s4.858,3.765,7.945,4.971
							c3.088,1.205,6.514,1.807,10.28,1.807c4.467,0,8.571-0.828,12.312-2.483c3.74-1.656,7.017-3.866,9.828-6.628
							c2.911-2.91,5.17-6.275,6.778-10.092c1.604-3.814,2.409-7.78,2.409-11.896c0-3.313-0.602-6.414-1.807-9.301
							s-2.914-5.385-5.121-7.493c-2.211-2.108-4.857-3.767-7.944-4.972c-3.089-1.203-6.517-1.807-10.28-1.807
							C105.878,287.336,101.773,288.153,98.035,289.783"/>
					</defs>
					<clipPath id="SVGID_5_">
						<use xlink:href="#SVGID_4_"  overflow="visible"/>
					</clipPath>
					
						<linearGradient id="SVGID_6_" gradientUnits="userSpaceOnUse" x1="-257.7407" y1="-1157.7183" x2="-256.7407" y2="-1157.7183" gradientTransform="matrix(986.5701 -11.1477 11.1477 986.5701 267091.8438 1139614)">
						<stop  offset="0" style="stop-color:#AED294"/>
						<stop  offset="0.0447" style="stop-color:#B2D499"/>
						<stop  offset="1" style="stop-color:#FFFFFF"/>
					</linearGradient>
					<polygon clip-path="url(#SVGID_5_)" fill="url(#SVGID_6_)" points="78.402,287.344 135.492,286.698 136.117,342.001 
						79.027,342.646 					"/>
				</g>
			</g>
			<g>
				<g>
					<defs>
						<path id="SVGID_7_" d="M177.972,300.591h5.423c1.356,0,2.561,0.149,3.615,0.452c1.055,0.3,1.932,0.802,2.635,1.504
							c1.004,1.006,1.508,2.26,1.508,3.768c0,2.059-0.679,3.792-2.035,5.195c-2.107,2.008-5.195,3.013-9.262,3.013h-5.574
							L177.972,300.591z M166.753,288.314L152.52,341.03h14.684l4.066-15.138h8.736c4.417,0,8.371-0.627,11.859-1.882
							c3.49-1.254,6.365-3.014,8.623-5.271c3.768-3.766,5.649-8.483,5.649-14.158c0-4.416-1.382-7.98-4.142-10.691
							c-1.909-1.959-4.307-3.377-7.192-4.256c-2.887-0.877-6.515-1.318-10.882-1.318L166.753,288.314L166.753,288.314z"/>
					</defs>
					<clipPath id="SVGID_8_">
						<use xlink:href="#SVGID_7_"  overflow="visible"/>
					</clipPath>
					
						<linearGradient id="SVGID_9_" gradientUnits="userSpaceOnUse" x1="-257.7378" y1="-1157.7183" x2="-256.7466" y2="-1157.7183" gradientTransform="matrix(986.5701 -11.1477 11.1477 986.5701 267091.8438 1139615)">
						<stop  offset="0" style="stop-color:#AED294"/>
						<stop  offset="0.0447" style="stop-color:#B2D499"/>
						<stop  offset="1" style="stop-color:#FFFFFF"/>
					</linearGradient>
					<polygon clip-path="url(#SVGID_8_)" fill="url(#SVGID_9_)" points="151.924,288.322 206.131,287.709 206.733,341.023 
						152.525,341.636 					"/>
				</g>
			</g>
			<g>
				<g>
					<defs>
						<path id="SVGID_10_" d="M236.033,305.108l1.959,15.063H226.17L236.033,305.108z M233.248,287.939l-36.676,53.091h15.892
							l6.325-9.489h20.332l1.281,9.489h15.362l-8.209-53.091H233.248z"/>
					</defs>
					<clipPath id="SVGID_11_">
						<use xlink:href="#SVGID_10_"  overflow="visible"/>
					</clipPath>
					
						<linearGradient id="SVGID_12_" gradientUnits="userSpaceOnUse" x1="-257.7407" y1="-1157.7192" x2="-256.7407" y2="-1157.7192" gradientTransform="matrix(986.5701 -11.1477 11.1477 986.5701 267091.8438 1139616)">
						<stop  offset="0" style="stop-color:#AED294"/>
						<stop  offset="0.0447" style="stop-color:#B2D499"/>
						<stop  offset="1" style="stop-color:#FFFFFF"/>
					</linearGradient>
					<polygon clip-path="url(#SVGID_11_)" fill="url(#SVGID_12_)" points="195.973,287.945 255.758,287.271 256.365,341.023 
						196.58,341.699 					"/>
				</g>
			</g>
			<g>
				<g>
					<defs>
						<path id="SVGID_13_" d="M283.176,300.891h7.982c3.012,0,5.146,0.629,6.4,1.884c0.954,0.903,1.432,2.06,1.432,3.464
							c0,1.759-0.629,3.265-1.883,4.519c-0.904,0.903-2.135,1.607-3.689,2.108c-1.557,0.503-3.34,0.753-5.348,0.753h-8.358
							L283.176,300.891z M271.955,288.314l-14.233,52.716h14.685l4.293-15.965h5.271h1.205l7.003,15.965h16.116l-8.209-17.772
							c2.712-0.753,4.92-1.645,6.628-2.675c1.706-1.026,3.136-2.118,4.293-3.275c1.705-1.655,2.961-3.563,3.765-5.723
							c0.803-2.157,1.204-4.491,1.204-7.004c0-2.107-0.327-4.091-0.979-5.948c-0.651-1.856-1.682-3.489-3.086-4.896
							c-1.758-1.757-4.105-3.099-7.041-4.029c-2.938-0.928-6.615-1.394-11.033-1.394H271.955L271.955,288.314z"/>
					</defs>
					<clipPath id="SVGID_14_">
						<use xlink:href="#SVGID_13_"  overflow="visible"/>
					</clipPath>
					
						<linearGradient id="SVGID_15_" gradientUnits="userSpaceOnUse" x1="-257.7412" y1="-1157.7192" x2="-256.7412" y2="-1157.7192" gradientTransform="matrix(986.5701 -11.1477 11.1477 986.5701 267091.8438 1139617)">
						<stop  offset="0" style="stop-color:#AED294"/>
						<stop  offset="0.0447" style="stop-color:#B2D499"/>
						<stop  offset="1" style="stop-color:#FFFFFF"/>
					</linearGradient>
					<polygon clip-path="url(#SVGID_14_)" fill="url(#SVGID_15_)" points="257.126,288.322 313.969,287.68 314.571,341.023 
						257.729,341.666 					"/>
				</g>
			</g>
			<g>
				<g>
					<defs>
						<path id="SVGID_16_" d="M336.686,328.303c-1.449-0.604-2.66-1.441-3.635-2.522c-0.975-1.079-1.699-2.334-2.174-3.767
							c-0.475-1.432-0.711-2.975-0.711-4.63c0-2.31,0.462-4.595,1.388-6.854c0.927-2.259,2.216-4.216,3.869-5.874
							c1.301-1.305,2.789-2.334,4.468-3.087c1.678-0.753,3.518-1.13,5.52-1.13c1.853,0,3.504,0.29,4.957,0.866
							c1.451,0.578,2.664,1.394,3.642,2.447c0.978,1.053,1.714,2.311,2.215,3.767c0.501,1.455,0.752,3.037,0.752,4.742
							c0,1.457-0.188,2.927-0.565,4.404c-0.377,1.482-0.941,2.9-1.694,4.257l-4.668-7.153l-10.394,6.928l5.875,7.982
							c-1.1,0.353-2.35,0.526-3.748,0.526C339.832,329.207,338.135,328.906,336.686,328.303 M334.345,289.783
							c-3.739,1.632-7.017,3.854-9.827,6.665c-2.912,2.911-5.171,6.264-6.777,10.055c-1.607,3.791-2.41,7.744-2.41,11.86
							c0,3.363,0.603,6.49,1.808,9.375c1.204,2.888,2.911,5.385,5.12,7.493c2.21,2.108,4.857,3.765,7.945,4.971
							c3.086,1.205,6.515,1.807,10.279,1.807c4.618,0,8.912-0.93,12.877-2.785l3.391,5.196l10.467-6.854l-4.066-5.422
							c2.711-2.862,4.83-6.125,6.363-9.79c1.531-3.664,2.297-7.48,2.297-11.446c0-3.313-0.604-6.414-1.808-9.301
							c-1.205-2.887-2.912-5.385-5.121-7.493c-2.209-2.108-4.856-3.767-7.944-4.972c-3.088-1.203-6.515-1.807-10.279-1.807
							C342.189,287.336,338.085,288.153,334.345,289.783"/>
					</defs>
					<clipPath id="SVGID_17_">
						<use xlink:href="#SVGID_16_"  overflow="visible"/>
					</clipPath>
					
						<linearGradient id="SVGID_18_" gradientUnits="userSpaceOnUse" x1="-257.7412" y1="-1157.7183" x2="-256.7412" y2="-1157.7183" gradientTransform="matrix(986.5701 -11.1477 11.1477 986.5701 267091.8438 1139618)">
						<stop  offset="0" style="stop-color:#AED294"/>
						<stop  offset="0.0447" style="stop-color:#B2D499"/>
						<stop  offset="1" style="stop-color:#FFFFFF"/>
					</linearGradient>
					<polygon clip-path="url(#SVGID_17_)" fill="url(#SVGID_18_)" points="314.686,287.344 371.803,286.698 372.455,344.412 
						315.337,345.058 					"/>
				</g>
			</g>
			<g>
				<g>
					<defs>
						<path id="SVGID_19_" d="M417.673,288.314l-7.759,28.992c-0.553,2.108-1.192,3.854-1.918,5.235
							c-0.729,1.381-1.57,2.549-2.524,3.502c-1.957,1.856-4.343,2.785-7.153,2.785c-2.662,0-4.695-0.678-6.1-2.033
							c-1.406-1.354-2.109-3.235-2.109-5.646c0-0.854,0.063-1.682,0.188-2.486c0.125-0.802,0.313-1.629,0.565-2.482l7.455-27.865
							H383.59l-7.118,26.811c-0.4,1.457-0.699,2.899-0.9,4.33c-0.199,1.431-0.299,2.8-0.299,4.105
							c0,5.822,1.836,10.353,5.508,13.592c3.67,3.237,8.889,4.855,15.654,4.855c4.065,0,7.73-0.539,10.994-1.618
							c3.264-1.079,6.074-2.798,8.434-5.158c3.617-3.615,6.353-8.861,8.209-15.739l8.359-31.178L417.673,288.314L417.673,288.314z"
							/>
					</defs>
					<clipPath id="SVGID_20_">
						<use xlink:href="#SVGID_19_"  overflow="visible"/>
					</clipPath>
					
						<linearGradient id="SVGID_21_" gradientUnits="userSpaceOnUse" x1="-257.7412" y1="-1157.7183" x2="-256.7412" y2="-1157.7183" gradientTransform="matrix(986.5701 -11.1477 11.1477 986.5701 267091.8438 1139618)">
						<stop  offset="0" style="stop-color:#AED294"/>
						<stop  offset="0.0447" style="stop-color:#B2D499"/>
						<stop  offset="1" style="stop-color:#FFFFFF"/>
					</linearGradient>
					<polygon clip-path="url(#SVGID_20_)" fill="url(#SVGID_21_)" points="374.667,288.322 432.426,287.67 433.039,342.001 
						375.281,342.654 					"/>
				</g>
			</g>
			<g>
				<g>
					<defs>
						<polygon id="SVGID_22_" points="439.437,288.314 425.203,341.03 467.826,341.03 471.14,328.604 442.975,328.604 
							445.232,320.17 470.386,320.17 473.474,308.723 448.322,308.723 450.505,300.666 478.219,300.666 481.607,288.314 						"/>
					</defs>
					<clipPath id="SVGID_23_">
						<use xlink:href="#SVGID_22_"  overflow="visible"/>
					</clipPath>
					
						<linearGradient id="SVGID_24_" gradientUnits="userSpaceOnUse" x1="-257.7363" y1="-1157.7183" x2="-256.7447" y2="-1157.7183" gradientTransform="matrix(986.5701 -11.1477 11.1477 986.5701 267091.8438 1139618)">
						<stop  offset="0" style="stop-color:#AED294"/>
						<stop  offset="0.0447" style="stop-color:#B2D499"/>
						<stop  offset="1" style="stop-color:#FFFFFF"/>
					</linearGradient>
					<polygon clip-path="url(#SVGID_23_)" fill="url(#SVGID_24_)" points="424.607,288.322 481.6,287.678 482.202,341.023 
						425.21,341.667 					"/>
				</g>
			</g>
			<g>
				<g>
					<defs>
						<polygon id="SVGID_25_" points="506.533,288.314 492.301,341.03 534.925,341.03 538.238,328.604 510.072,328.604 
							512.33,320.17 537.484,320.17 540.572,308.723 515.42,308.723 517.604,300.666 545.316,300.666 548.703,288.314 						"/>
					</defs>
					<clipPath id="SVGID_26_">
						<use xlink:href="#SVGID_25_"  overflow="visible"/>
					</clipPath>
					
						<linearGradient id="SVGID_27_" gradientUnits="userSpaceOnUse" x1="-257.7412" y1="-1157.7183" x2="-256.7412" y2="-1157.7183" gradientTransform="matrix(986.5701 -11.1477 11.1477 986.5701 267091.8438 1139619)">
						<stop  offset="0" style="stop-color:#AED294"/>
						<stop  offset="0.0447" style="stop-color:#B2D499"/>
						<stop  offset="1" style="stop-color:#FFFFFF"/>
					</linearGradient>
					<polygon clip-path="url(#SVGID_26_)" fill="url(#SVGID_27_)" points="491.705,288.322 548.697,287.678 549.299,341.023 
						492.309,341.667 					"/>
				</g>
			</g>
			<g>
				<g>
					<defs>
						<path id="SVGID_28_" d="M561.469,289.107c-2.987,1.127-5.483,2.697-7.492,4.705c-1.506,1.506-2.688,3.238-3.538,5.196
							c-0.855,1.957-1.281,4.066-1.281,6.324c0,1.959,0.326,3.666,0.979,5.122c0.651,1.457,1.567,2.747,2.749,3.878
							c1.181,1.13,2.609,2.136,4.291,3.013c1.683,0.878,3.554,1.72,5.611,2.521c1.856,0.705,3.351,1.319,4.479,1.847
							c1.13,0.525,2.021,1.004,2.675,1.431c0.65,0.428,1.092,0.854,1.316,1.28c0.229,0.429,0.34,0.893,0.34,1.394
							c0,1.206-0.554,2.158-1.656,2.861c-1.104,0.703-2.535,1.055-4.291,1.055c-5.677,0-11.099-2.385-16.27-7.154l-9.413,9.715
							c2.861,3.063,6.363,5.436,10.508,7.116c4.142,1.682,8.796,2.521,13.97,2.521c3.662,0,7.002-0.552,10.015-1.656
							c3.012-1.103,5.522-2.659,7.53-4.668c1.556-1.556,2.761-3.326,3.615-5.31c0.854-1.981,1.279-4.181,1.279-6.591
							c0-1.956-0.339-3.688-1.017-5.195c-0.678-1.506-1.621-2.823-2.824-3.952c-1.205-1.131-2.647-2.147-4.33-3.051
							c-1.684-0.903-3.526-1.731-5.536-2.485c-1.806-0.702-3.289-1.305-4.441-1.807c-1.156-0.502-2.047-0.954-2.674-1.355
							c-0.628-0.4-1.066-0.804-1.318-1.206c-0.252-0.4-0.375-0.877-0.375-1.43c0-1.005,0.514-1.87,1.543-2.6
							c1.027-0.728,2.422-1.093,4.18-1.093c2.712,0,5.208,0.519,7.493,1.544c2.284,1.03,4.43,2.424,6.438,4.181l9.036-10.016
							c-2.56-2.409-5.637-4.315-9.225-5.724c-3.59-1.404-7.719-2.108-12.389-2.108C567.781,287.411,564.455,287.977,561.469,289.107
							"/>
					</defs>
					<clipPath id="SVGID_29_">
						<use xlink:href="#SVGID_28_"  overflow="visible"/>
					</clipPath>
					
						<linearGradient id="SVGID_30_" gradientUnits="userSpaceOnUse" x1="-257.7412" y1="-1157.7192" x2="-256.7412" y2="-1157.7192" gradientTransform="matrix(986.5701 -11.1477 11.1477 986.5701 267091.8438 1139620)">
						<stop  offset="0" style="stop-color:#AED294"/>
						<stop  offset="0.0447" style="stop-color:#B2D499"/>
						<stop  offset="1" style="stop-color:#FFFFFF"/>
					</linearGradient>
					<polygon clip-path="url(#SVGID_29_)" fill="url(#SVGID_30_)" points="539.353,287.418 593.054,286.812 593.677,341.926 
						539.976,342.533 					"/>
				</g>
			</g>
			<g>
				<g>
					<defs>
						<path id="SVGID_31_" d="M612.939,300.591h5.422c1.355,0,2.561,0.149,3.614,0.452c1.056,0.3,1.933,0.802,2.636,1.504
							c1.006,1.006,1.508,2.26,1.508,3.768c0,2.059-0.678,3.792-2.033,5.195c-2.109,2.008-5.196,3.013-9.264,3.013h-5.572
							L612.939,300.591z M601.72,288.314l-14.232,52.716h14.686l4.066-15.138h8.734c4.416,0,8.37-0.627,11.86-1.882
							c3.49-1.254,6.363-3.014,8.621-5.271c3.768-3.766,5.649-8.483,5.649-14.158c0-4.416-1.383-7.98-4.143-10.691
							c-1.909-1.959-4.307-3.377-7.191-4.256c-2.888-0.877-6.515-1.318-10.882-1.318L601.72,288.314L601.72,288.314z"/>
					</defs>
					<clipPath id="SVGID_32_">
						<use xlink:href="#SVGID_31_"  overflow="visible"/>
					</clipPath>
					
						<linearGradient id="SVGID_33_" gradientUnits="userSpaceOnUse" x1="-257.7412" y1="-1157.7183" x2="-256.7412" y2="-1157.7183" gradientTransform="matrix(986.5701 -11.1477 11.1477 986.5701 267091.8438 1139620)">
						<stop  offset="0" style="stop-color:#AED294"/>
						<stop  offset="0.0447" style="stop-color:#B2D499"/>
						<stop  offset="1" style="stop-color:#FFFFFF"/>
					</linearGradient>
					<polygon clip-path="url(#SVGID_32_)" fill="url(#SVGID_33_)" points="586.891,288.322 641.098,287.709 641.7,341.023 
						587.492,341.636 					"/>
				</g>
			</g>
			<g>
				<g>
					<defs>
						<path id="SVGID_34_" d="M663.508,328.039c-1.432-0.576-2.637-1.392-3.612-2.447c-0.98-1.054-1.722-2.296-2.224-3.728
							c-0.502-1.431-0.753-2.975-0.753-4.631c0-2.26,0.463-4.505,1.395-6.74c0.928-2.232,2.193-4.179,3.803-5.837
							c1.305-1.305,2.797-2.334,4.479-3.087s3.527-1.13,5.535-1.13c1.857,0,3.514,0.29,4.97,0.866
							c1.456,0.578,2.673,1.394,3.652,2.447c0.979,1.053,1.72,2.297,2.222,3.728c0.501,1.43,0.754,2.976,0.754,4.632
							c0,2.26-0.465,4.506-1.394,6.739c-0.929,2.235-2.197,4.155-3.804,5.762c-1.307,1.307-2.8,2.349-4.48,3.125
							c-1.684,0.779-3.526,1.168-5.535,1.168C666.607,328.906,664.939,328.617,663.508,328.039 M661.098,289.783
							c-3.739,1.632-7.016,3.854-9.825,6.665c-2.914,2.911-5.173,6.264-6.777,10.055c-1.608,3.791-2.412,7.744-2.412,11.86
							c0,3.363,0.604,6.49,1.809,9.375c1.204,2.888,2.911,5.385,5.12,7.493c2.21,2.108,4.858,3.765,7.946,4.971
							c3.086,1.205,6.514,1.807,10.279,1.807c4.467,0,8.57-0.828,12.312-2.483c3.741-1.656,7.018-3.866,9.828-6.628
							c2.911-2.91,5.171-6.275,6.778-10.092c1.604-3.814,2.41-7.78,2.41-11.896c0-3.313-0.604-6.414-1.81-9.301
							s-2.912-5.385-5.121-7.493c-2.209-2.108-4.854-3.767-7.942-4.972c-3.088-1.203-6.517-1.807-10.281-1.807
							C668.941,287.336,664.838,288.153,661.098,289.783"/>
					</defs>
					<clipPath id="SVGID_35_">
						<use xlink:href="#SVGID_34_"  overflow="visible"/>
					</clipPath>
					
						<linearGradient id="SVGID_36_" gradientUnits="userSpaceOnUse" x1="-257.7344" y1="-1157.7192" x2="-256.7428" y2="-1157.7192" gradientTransform="matrix(986.5701 -11.1477 11.1477 986.5701 267091.8438 1139621)">
						<stop  offset="0" style="stop-color:#AED294"/>
						<stop  offset="0.0447" style="stop-color:#B2D499"/>
						<stop  offset="1" style="stop-color:#FFFFFF"/>
					</linearGradient>
					<polygon clip-path="url(#SVGID_35_)" fill="url(#SVGID_36_)" points="641.465,287.344 698.557,286.698 699.182,342.001 
						642.09,342.646 					"/>
				</g>
			</g>
			<g>
				<g>
					<defs>
						<path id="SVGID_37_" d="M722.059,300.891h7.983c3.012,0,5.146,0.629,6.401,1.884c0.952,0.903,1.43,2.06,1.43,3.464
							c0,1.759-0.629,3.265-1.881,4.519c-0.904,0.903-2.135,1.607-3.69,2.108c-1.558,0.503-3.341,0.753-5.349,0.753h-8.358
							L722.059,300.891z M710.839,288.314l-14.232,52.716h14.684l4.293-15.965h5.273h1.203l7.004,15.965h16.114l-8.208-17.772
							c2.712-0.753,4.919-1.645,6.628-2.675c1.707-1.026,3.138-2.118,4.294-3.275c1.704-1.655,2.961-3.563,3.764-5.723
							c0.803-2.157,1.205-4.491,1.205-7.004c0-2.107-0.326-4.091-0.98-5.948c-0.649-1.856-1.682-3.489-3.086-4.896
							c-1.758-1.757-4.104-3.099-7.041-4.029c-2.938-0.928-6.615-1.394-11.032-1.394H710.839L710.839,288.314z"/>
					</defs>
					<clipPath id="SVGID_38_">
						<use xlink:href="#SVGID_37_"  overflow="visible"/>
					</clipPath>
					
						<linearGradient id="SVGID_39_" gradientUnits="userSpaceOnUse" x1="-257.7412" y1="-1157.7183" x2="-256.7412" y2="-1157.7183" gradientTransform="matrix(986.5701 -11.1477 11.1477 986.5701 267091.8438 1139621)">
						<stop  offset="0" style="stop-color:#AED294"/>
						<stop  offset="0.0447" style="stop-color:#B2D499"/>
						<stop  offset="1" style="stop-color:#FFFFFF"/>
					</linearGradient>
					<polygon clip-path="url(#SVGID_38_)" fill="url(#SVGID_39_)" points="696.01,288.322 752.854,287.68 753.455,341.023 
						696.613,341.666 					"/>
				</g>
			</g>
			<g>
				<g>
					<defs>
						<polygon id="SVGID_40_" points="758.129,288.314 754.742,301.117 770.479,301.117 759.787,341.03 774.396,341.03 
							785.09,301.117 800.904,301.117 804.293,288.314 						"/>
					</defs>
					<clipPath id="SVGID_41_">
						<use xlink:href="#SVGID_40_"  overflow="visible"/>
					</clipPath>
					
						<linearGradient id="SVGID_42_" gradientUnits="userSpaceOnUse" x1="-257.7407" y1="-1157.7192" x2="-256.7407" y2="-1157.7192" gradientTransform="matrix(986.5701 -11.1477 11.1477 986.5701 267091.8438 1139622)">
						<stop  offset="0" style="stop-color:#AED294"/>
						<stop  offset="0.0447" style="stop-color:#B2D499"/>
						<stop  offset="1" style="stop-color:#FFFFFF"/>
					</linearGradient>
					<polygon clip-path="url(#SVGID_41_)" fill="url(#SVGID_42_)" points="754.146,288.322 804.287,287.756 804.889,341.023 
						754.748,341.59 					"/>
				</g>
			</g>
			<g>
				<g>
					<defs>
						<polygon id="SVGID_43_" points="808.66,288.314 794.504,341.03 809.111,341.03 823.271,288.314 						"/>
					</defs>
					<clipPath id="SVGID_44_">
						<use xlink:href="#SVGID_43_"  overflow="visible"/>
					</clipPath>
					
						<linearGradient id="SVGID_45_" gradientUnits="userSpaceOnUse" x1="-257.7412" y1="-1157.7188" x2="-256.7412" y2="-1157.7188" gradientTransform="matrix(986.5701 -11.1477 11.1477 986.5701 267091.8438 1139622)">
						<stop  offset="0" style="stop-color:#AED294"/>
						<stop  offset="0.0447" style="stop-color:#B2D499"/>
						<stop  offset="1" style="stop-color:#FFFFFF"/>
					</linearGradient>
					<polygon clip-path="url(#SVGID_44_)" fill="url(#SVGID_45_)" points="793.908,288.322 823.266,287.99 823.865,341.023 
						794.508,341.355 					"/>
				</g>
			</g>
			<g>
				<g>
					<defs>
						<polygon id="SVGID_46_" points="865.518,288.314 844.732,321.45 841.795,288.314 825.904,288.314 832.91,341.407 
							846.463,341.407 881.934,288.314 						"/>
					</defs>
					<clipPath id="SVGID_47_">
						<use xlink:href="#SVGID_46_"  overflow="visible"/>
					</clipPath>
					
						<linearGradient id="SVGID_48_" gradientUnits="userSpaceOnUse" x1="-257.7412" y1="-1157.7192" x2="-256.7412" y2="-1157.7192" gradientTransform="matrix(986.5701 -11.1477 11.1477 986.5701 267091.8438 1139623)">
						<stop  offset="0" style="stop-color:#AED294"/>
						<stop  offset="0.0447" style="stop-color:#B2D499"/>
						<stop  offset="1" style="stop-color:#FFFFFF"/>
					</linearGradient>
					<polygon clip-path="url(#SVGID_47_)" fill="url(#SVGID_48_)" points="825.305,288.322 881.926,287.682 882.533,341.4 
						825.912,342.04 					"/>
				</g>
			</g>
			<g>
				<g>
					<defs>
						<path id="SVGID_49_" d="M895.828,328.039c-1.43-0.576-2.635-1.392-3.611-2.447c-0.981-1.054-1.723-2.296-2.225-3.728
							c-0.502-1.431-0.752-2.975-0.752-4.631c0-2.26,0.463-4.505,1.393-6.74c0.931-2.232,2.195-4.179,3.806-5.837
							c1.305-1.305,2.797-2.334,4.479-3.087c1.68-0.753,3.525-1.13,5.533-1.13c1.858,0,3.516,0.29,4.973,0.866
							c1.455,0.578,2.672,1.394,3.65,2.447c0.978,1.053,1.721,2.297,2.221,3.728c0.502,1.43,0.756,2.976,0.756,4.632
							c0,2.26-0.465,4.506-1.395,6.739c-0.931,2.235-2.197,4.155-3.804,5.762c-1.305,1.307-2.799,2.349-4.479,3.125
							c-1.684,0.779-3.527,1.168-5.535,1.168C898.93,328.906,897.262,328.617,895.828,328.039 M893.42,289.783
							c-3.74,1.632-7.018,3.854-9.826,6.665c-2.914,2.911-5.174,6.264-6.778,10.055c-1.607,3.791-2.41,7.744-2.41,11.86
							c0,3.363,0.604,6.49,1.809,9.375c1.203,2.888,2.91,5.385,5.119,7.493s4.859,3.765,7.945,4.971
							c3.088,1.205,6.514,1.807,10.281,1.807c4.467,0,8.569-0.828,12.311-2.483c3.74-1.656,7.018-3.866,9.828-6.628
							c2.91-2.91,5.17-6.275,6.779-10.092c1.604-3.814,2.407-7.78,2.407-11.896c0-3.313-0.604-6.414-1.807-9.301
							c-1.205-2.887-2.914-5.385-5.121-7.493c-2.211-2.108-4.856-3.767-7.945-4.972c-3.086-1.203-6.516-1.807-10.278-1.807
							C901.264,287.336,897.158,288.153,893.42,289.783"/>
					</defs>
					<clipPath id="SVGID_50_">
						<use xlink:href="#SVGID_49_"  overflow="visible"/>
					</clipPath>
					
						<linearGradient id="SVGID_51_" gradientUnits="userSpaceOnUse" x1="-257.7412" y1="-1157.7183" x2="-256.7412" y2="-1157.7183" gradientTransform="matrix(986.5701 -11.1477 11.1477 986.5701 267091.8438 1139623)">
						<stop  offset="0" style="stop-color:#AED294"/>
						<stop  offset="0.0447" style="stop-color:#B2D499"/>
						<stop  offset="1" style="stop-color:#FFFFFF"/>
					</linearGradient>
					<polygon clip-path="url(#SVGID_50_)" fill="url(#SVGID_51_)" points="873.787,287.344 930.877,286.698 931.502,342.001 
						874.412,342.646 					"/>
				</g>
			</g>
		</g>
	</g>
	<g>
		<path fill="#FFFFFF" stroke="#FFFFFF" stroke-width="3" stroke-miterlimit="10" d="M41.73,27.476h11.672L70.17,64.419
			l9.864-36.943h12.495L77.075,85.59H66.307L48.881,47.483L38.771,85.59H26.277L41.73,27.476z"/>
		<path fill="#FFFFFF" stroke="#FFFFFF" stroke-width="3" stroke-miterlimit="10" d="M106.831,84.635
			c-3.234-1.3-6.001-3.113-8.302-5.438c-2.301-2.325-4.083-5.05-5.343-8.178c-1.261-3.126-1.891-6.517-1.891-10.17
			c0-4.317,0.835-8.536,2.507-12.661c1.671-4.122,4.027-7.79,7.069-11c3.042-3.209,6.685-5.797,10.933-7.763
			c4.246-1.964,8.945-2.947,14.097-2.947c3.945,0,7.534,0.651,10.768,1.951c3.232,1.301,6,3.113,8.302,5.438
			c2.302,2.325,4.082,5.051,5.343,8.178c1.26,3.127,1.891,6.517,1.891,10.17c0,4.317-0.836,8.538-2.507,12.661
			c-1.672,4.124-4.027,7.791-7.069,11c-3.042,3.211-6.687,5.798-10.933,7.763c-4.247,1.964-8.947,2.947-14.097,2.947
			C113.653,86.586,110.063,85.935,106.831,84.635z M127.324,72.805c2.478-1.328,4.584-3.03,6.318-5.105
			c1.734-2.076,3.084-4.413,4.047-7.015c0.963-2.601,1.446-5.147,1.446-7.638c0-2.159-0.317-4.137-0.95-5.936
			c-0.633-1.798-1.569-3.363-2.808-4.691c-1.24-1.329-2.781-2.352-4.625-3.072c-1.844-0.719-3.951-1.08-6.317-1.08
			c-3.029,0-5.782,0.665-8.26,1.993c-2.478,1.328-4.583,3.03-6.317,5.104c-1.734,2.076-3.084,4.415-4.047,7.016
			c-0.963,2.602-1.445,5.147-1.445,7.638c0,2.158,0.316,4.138,0.949,5.936c0.633,1.799,1.57,3.362,2.809,4.691
			c1.238,1.328,2.781,2.353,4.625,3.072c1.844,0.72,3.949,1.079,6.318,1.079C122.094,74.797,124.846,74.133,127.324,72.805z"/>
		<path fill="#FFFFFF" stroke="#FFFFFF" stroke-width="3" stroke-miterlimit="10" d="M160.341,27.476h13.563l3.945,40.514
			l25.481-40.514h14.221L179,86.005h-11.179L160.341,27.476z"/>
		<path fill="#FFFFFF" stroke="#FFFFFF" stroke-width="3" stroke-miterlimit="10" d="M240.977,27.061h12.166l9.124,58.529H249.28
			l-1.809-13.034H223.14l-8.713,13.034h-13.645L240.977,27.061z M245.991,61.182l-2.63-19.177l-12.659,19.177H245.991z"/>
	</g>
</g>
</svg>
