<?xml version="1.0" encoding="utf-8"?>
<!-- Generator: Adobe Illustrator 15.0.0, SVG Export Plug-In . SVG Version: 6.00 Build 0)  -->
<!DOCTYPE svg PUBLIC "-//W3C//DTD SVG 1.0//EN" "http://www.w3.org/TR/2001/REC-SVG-20010904/DTD/svg10.dtd">
<svg version="1.0" id="Camada_1" xmlns="http://www.w3.org/2000/svg" xmlns:xlink="http://www.w3.org/1999/xlink" x="0px" y="0px"
	 width="625.469px" height="223.489px" viewBox="0 0 625.469 223.489" enable-background="new 0 0 625.469 223.489"
	 xml:space="preserve">
<g>
	<g>
		<g>
			<path fill="#B2D499" d="M47.162,36.073c-0.459,1.272-1.116,2.334-1.969,3.187c-0.854,0.853-1.89,1.488-3.107,1.908
				c-1.217,0.421-2.573,0.631-4.067,0.631c-3.011,0-5.38-0.841-7.11-2.522c-1.729-1.683-2.594-4.194-2.594-7.537v-12.94h4.932v12.81
				c0,1.854,0.427,3.251,1.281,4.188c0.854,0.938,2.039,1.407,3.555,1.407s2.701-0.453,3.555-1.358
				c0.854-0.906,1.281-2.265,1.281-4.076V18.799h4.932v12.777C47.851,33.301,47.621,34.8,47.162,36.073z"/>
			<path fill="#B2D499" d="M72.895,41.442v-9.647c0-1.162-0.246-2.039-0.737-2.63c-0.491-0.592-1.196-0.888-2.114-0.888
				s-1.639,0.296-2.162,0.888c-0.523,0.591-0.785,1.468-0.785,2.63v9.647H62.23v-9.647c0-1.162-0.246-2.039-0.736-2.63
				c-0.492-0.592-1.196-0.888-2.114-0.888s-1.639,0.296-2.162,0.888c-0.523,0.591-0.785,1.468-0.785,2.63v9.647h-4.868V24.104h4.868
				v2.479c0.277-0.368,0.581-0.722,0.913-1.059c0.331-0.337,0.699-0.635,1.105-0.896c0.405-0.261,0.859-0.467,1.361-0.619
				c0.501-0.152,1.062-0.229,1.682-0.229c1.131,0,2.108,0.239,2.93,0.717c0.822,0.479,1.457,1.162,1.906,2.053
				c0.747-0.912,1.58-1.602,2.498-2.069c0.917-0.467,1.964-0.7,3.138-0.7c1.814,0,3.235,0.539,4.26,1.617
				c1.025,1.079,1.537,2.664,1.537,4.755v11.289H72.895z"/>
			<path fill="#B2D499" d="M91.278,41.442v-1.876c-0.598,0.669-1.313,1.202-2.146,1.601s-1.847,0.599-3.042,0.599
				c-0.812,0-1.575-0.113-2.29-0.34c-0.716-0.226-1.34-0.565-1.874-1.02c-0.534-0.454-0.956-1.008-1.265-1.666
				c-0.31-0.657-0.464-1.417-0.464-2.28v-0.064c0-0.949,0.171-1.768,0.513-2.458c0.341-0.69,0.816-1.262,1.425-1.715
				c0.609-0.453,1.334-0.792,2.178-1.019c0.844-0.227,1.778-0.34,2.802-0.34c0.875,0,1.639,0.064,2.29,0.194
				c0.651,0.129,1.286,0.302,1.906,0.518v-0.291c0-1.035-0.31-1.822-0.929-2.361c-0.62-0.539-1.538-0.809-2.754-0.809
				c-0.94,0-1.767,0.08-2.482,0.242c-0.716,0.162-1.468,0.394-2.258,0.695l-1.217-3.752c0.939-0.409,1.922-0.744,2.947-1.003
				c1.024-0.259,2.263-0.388,3.715-0.388c2.668,0,4.612,0.657,5.829,1.973c1.217,1.315,1.826,3.148,1.826,5.499v10.06H91.278z
				 M91.374,34.456c-0.427-0.194-0.902-0.351-1.425-0.47c-0.523-0.118-1.084-0.178-1.681-0.178c-1.046,0-1.869,0.205-2.466,0.614
				c-0.598,0.41-0.896,1.003-0.896,1.779v0.064c0,0.669,0.245,1.187,0.736,1.553c0.491,0.367,1.132,0.55,1.922,0.55
				c1.153,0,2.076-0.279,2.77-0.841c0.694-0.561,1.041-1.294,1.041-2.199L91.374,34.456L91.374,34.456z"/>
			<path fill="#B2D499" d="M118.308,41.442v-1.876c-0.598,0.669-1.313,1.202-2.146,1.601s-1.847,0.599-3.042,0.599
				c-0.812,0-1.575-0.113-2.29-0.34c-0.716-0.226-1.34-0.565-1.874-1.02c-0.534-0.454-0.956-1.008-1.265-1.666
				c-0.31-0.657-0.464-1.417-0.464-2.28v-0.064c0-0.949,0.171-1.768,0.513-2.458c0.341-0.69,0.816-1.262,1.425-1.715
				s1.334-0.792,2.178-1.019c0.844-0.227,1.778-0.34,2.802-0.34c0.875,0,1.639,0.064,2.29,0.194
				c0.651,0.129,1.286,0.302,1.906,0.518v-0.291c0-1.035-0.31-1.822-0.929-2.361c-0.62-0.539-1.538-0.809-2.754-0.809
				c-0.94,0-1.767,0.08-2.482,0.242c-0.716,0.162-1.468,0.394-2.258,0.695l-1.217-3.752c0.939-0.409,1.922-0.744,2.947-1.003
				c1.024-0.259,2.263-0.388,3.715-0.388c2.668,0,4.612,0.657,5.829,1.973c1.217,1.315,1.826,3.148,1.826,5.499v10.06H118.308z
				 M118.404,34.456c-0.427-0.194-0.902-0.351-1.425-0.47c-0.523-0.118-1.084-0.178-1.681-0.178c-1.046,0-1.869,0.205-2.466,0.614
				c-0.598,0.41-0.896,1.003-0.896,1.779v0.064c0,0.669,0.245,1.187,0.736,1.553c0.491,0.367,1.132,0.55,1.922,0.55
				c1.153,0,2.076-0.279,2.77-0.841c0.694-0.561,1.041-1.294,1.041-2.199L118.404,34.456L118.404,34.456z"/>
			<path fill="#B2D499" d="M138.708,40.941c-1.068,0.593-2.456,0.889-4.164,0.889c-1.281,0-2.471-0.237-3.571-0.711
				c-1.1-0.475-2.045-1.116-2.834-1.925c-0.79-0.809-1.409-1.758-1.857-2.847c-0.448-1.089-0.672-2.248-0.672-3.477v-0.065
				c0-1.229,0.224-2.394,0.672-3.493c0.448-1.099,1.067-2.059,1.857-2.879c0.79-0.819,1.734-1.466,2.834-1.94
				c1.1-0.475,2.311-0.712,3.635-0.712c1.623,0,2.968,0.259,4.036,0.776c1.067,0.518,2.006,1.229,2.818,2.135l-2.978,3.234
				c-0.556-0.582-1.126-1.045-1.713-1.391c-0.588-0.345-1.319-0.518-2.194-0.518c-0.62,0-1.18,0.124-1.682,0.372
				s-0.939,0.588-1.313,1.019c-0.374,0.432-0.662,0.934-0.865,1.505c-0.203,0.571-0.304,1.181-0.304,1.827v0.064
				c0,0.669,0.101,1.294,0.304,1.876c0.203,0.583,0.497,1.09,0.881,1.521c0.384,0.432,0.843,0.771,1.377,1.02
				c0.534,0.249,1.131,0.371,1.793,0.371c0.812,0,1.521-0.166,2.13-0.501c0.608-0.334,1.211-0.781,1.81-1.343l2.85,2.911
				C140.726,39.587,139.775,40.348,138.708,40.941z"/>
			<path fill="#B2D499" d="M153.984,41.442v-1.876c-0.598,0.669-1.313,1.202-2.146,1.601s-1.847,0.599-3.042,0.599
				c-0.812,0-1.575-0.113-2.29-0.34c-0.716-0.226-1.34-0.565-1.874-1.02c-0.534-0.454-0.956-1.008-1.265-1.666
				c-0.31-0.657-0.464-1.417-0.464-2.28v-0.064c0-0.949,0.171-1.768,0.513-2.458c0.341-0.69,0.816-1.262,1.425-1.715
				c0.609-0.453,1.334-0.792,2.178-1.019c0.844-0.227,1.778-0.34,2.802-0.34c0.875,0,1.639,0.064,2.29,0.194
				c0.651,0.129,1.286,0.302,1.906,0.518v-0.291c0-1.035-0.31-1.822-0.929-2.361c-0.62-0.539-1.538-0.809-2.754-0.809
				c-0.94,0-1.767,0.08-2.482,0.242c-0.716,0.162-1.468,0.394-2.258,0.695l-1.217-3.752c0.939-0.409,1.922-0.744,2.947-1.003
				c1.024-0.259,2.263-0.388,3.715-0.388c2.668,0,4.612,0.657,5.829,1.973c1.217,1.315,1.826,3.148,1.826,5.499v10.06H153.984z
				 M154.08,34.456c-0.427-0.194-0.902-0.351-1.425-0.47c-0.523-0.118-1.084-0.178-1.681-0.178c-1.046,0-1.869,0.205-2.466,0.614
				c-0.598,0.41-0.896,1.003-0.896,1.779v0.064c0,0.669,0.245,1.187,0.736,1.553c0.491,0.367,1.132,0.55,1.922,0.55
				c1.153,0,2.076-0.279,2.77-0.841c0.694-0.561,1.041-1.294,1.041-2.199L154.08,34.456L154.08,34.456z"/>
			<path fill="#B2D499" d="M174.513,41.442v-2.469c-0.598,0.813-1.318,1.481-2.162,2.006c-0.844,0.524-1.906,0.786-3.187,0.786
				c-1.004,0-1.975-0.194-2.915-0.582c-0.94-0.388-1.772-0.965-2.498-1.73c-0.726-0.766-1.308-1.703-1.745-2.814
				c-0.438-1.11-0.657-2.388-0.657-3.833v-0.064c0-1.444,0.219-2.722,0.657-3.833c0.437-1.11,1.014-2.049,1.729-2.814
				c0.715-0.765,1.542-1.342,2.482-1.73c0.939-0.388,1.922-0.582,2.947-0.582c1.302,0,2.375,0.257,3.218,0.771
				c0.843,0.514,1.554,1.112,2.13,1.797V17.83h4.868v23.612H174.513z M174.577,32.741c0-0.717-0.112-1.373-0.336-1.97
				c-0.225-0.598-0.523-1.107-0.897-1.53c-0.374-0.424-0.812-0.749-1.313-0.978c-0.502-0.228-1.041-0.342-1.617-0.342
				c-0.577,0-1.116,0.114-1.618,0.342c-0.501,0.229-0.944,0.554-1.329,0.978c-0.384,0.423-0.688,0.928-0.913,1.514
				c-0.225,0.586-0.336,1.248-0.336,1.986v0.064c0,0.717,0.112,1.374,0.336,1.971c0.224,0.597,0.528,1.107,0.913,1.53
				c0.385,0.424,0.828,0.749,1.329,0.978c0.501,0.228,1.041,0.342,1.618,0.342c0.576,0,1.115-0.114,1.617-0.342
				c0.501-0.229,0.938-0.554,1.313-0.978c0.374-0.423,0.672-0.934,0.897-1.53c0.224-0.597,0.336-1.254,0.336-1.971V32.741z"/>
			<path fill="#B2D499" d="M198.964,33.873c-0.011,0.173-0.027,0.378-0.048,0.615H186.97c0.234,1.121,0.72,1.968,1.457,2.539
				c0.737,0.571,1.649,0.857,2.738,0.857c0.811,0,1.537-0.141,2.178-0.421c0.641-0.28,1.302-0.733,1.986-1.358l2.786,2.49
				c-0.813,1.014-1.793,1.807-2.946,2.378c-1.153,0.571-2.509,0.856-4.067,0.856c-1.281,0-2.472-0.216-3.571-0.646
				c-1.1-0.431-2.05-1.046-2.851-1.844c-0.801-0.798-1.425-1.741-1.874-2.83c-0.449-1.089-0.672-2.302-0.672-3.639v-0.065
				c0-1.229,0.208-2.394,0.625-3.493c0.416-1.1,0.998-2.059,1.745-2.879c0.747-0.819,1.639-1.466,2.674-1.94
				c1.035-0.475,2.183-0.712,3.443-0.712c1.43,0,2.668,0.259,3.715,0.776c1.046,0.518,1.916,1.213,2.61,2.086
				c0.693,0.874,1.206,1.877,1.537,3.009c0.331,1.132,0.497,2.313,0.497,3.542v0.064C198.98,33.496,198.975,33.701,198.964,33.873z
				 M193.087,28.746c-0.619-0.679-1.441-1.019-2.466-1.019s-1.853,0.335-2.482,1.003c-0.63,0.669-1.041,1.563-1.233,2.685h7.333
				C194.091,30.315,193.707,29.425,193.087,28.746z"/>
			<path fill="#B2D499" d="M223.16,41.442v-9.647c0-1.162-0.246-2.039-0.737-2.63c-0.491-0.592-1.196-0.888-2.114-0.888
				s-1.639,0.296-2.162,0.888c-0.523,0.591-0.785,1.468-0.785,2.63v9.647h-4.868v-9.647c0-1.162-0.246-2.039-0.736-2.63
				c-0.492-0.592-1.196-0.888-2.114-0.888s-1.639,0.296-2.162,0.888c-0.523,0.591-0.785,1.468-0.785,2.63v9.647h-4.868V24.104h4.868
				v2.479c0.277-0.368,0.581-0.722,0.913-1.059c0.331-0.337,0.699-0.635,1.105-0.896c0.405-0.261,0.859-0.467,1.361-0.619
				c0.501-0.152,1.062-0.229,1.682-0.229c1.131,0,2.108,0.239,2.93,0.717c0.822,0.479,1.457,1.162,1.906,2.053
				c0.747-0.912,1.58-1.602,2.498-2.069c0.917-0.467,1.964-0.7,3.138-0.7c1.814,0,3.235,0.539,4.26,1.617
				c1.025,1.079,1.537,2.664,1.537,4.755v11.289H223.16z"/>
			<path fill="#B2D499" d="M231.551,22.196V17.83h5.124v4.366H231.551z M231.679,41.442V24.104h4.868v17.338H231.679z"/>
			<path fill="#B2D499" d="M250.414,41.442v-1.876c-0.598,0.669-1.313,1.202-2.146,1.601s-1.847,0.599-3.042,0.599
				c-0.812,0-1.575-0.113-2.29-0.34c-0.716-0.226-1.34-0.565-1.874-1.02c-0.534-0.454-0.956-1.008-1.265-1.666
				c-0.31-0.657-0.464-1.417-0.464-2.28v-0.064c0-0.949,0.171-1.768,0.513-2.458c0.341-0.69,0.816-1.262,1.425-1.715
				s1.334-0.792,2.178-1.019c0.844-0.227,1.778-0.34,2.802-0.34c0.875,0,1.639,0.064,2.29,0.194
				c0.651,0.129,1.286,0.302,1.906,0.518v-0.291c0-1.035-0.31-1.822-0.929-2.361c-0.62-0.539-1.538-0.809-2.754-0.809
				c-0.94,0-1.767,0.08-2.482,0.242c-0.716,0.162-1.468,0.394-2.258,0.695l-1.217-3.752c0.939-0.409,1.922-0.744,2.947-1.003
				c1.024-0.259,2.263-0.388,3.715-0.388c2.668,0,4.612,0.657,5.829,1.973c1.217,1.315,1.826,3.148,1.826,5.499v10.06H250.414z
				 M250.51,34.456c-0.427-0.194-0.902-0.351-1.425-0.47c-0.523-0.118-1.084-0.178-1.681-0.178c-1.046,0-1.869,0.205-2.466,0.614
				c-0.598,0.41-0.896,1.003-0.896,1.779v0.064c0,0.669,0.245,1.187,0.736,1.553c0.491,0.367,1.132,0.55,1.922,0.55
				c1.153,0,2.076-0.279,2.77-0.841c0.694-0.561,1.041-1.294,1.041-2.199L250.51,34.456L250.51,34.456z"/>
			<path fill="#B2D499" d="M267.451,22.196V17.83h5.124v4.366H267.451z M267.579,41.442V24.104h4.868v17.338H267.579z"/>
			<path fill="#B2D499" d="M287.115,41.442v-9.647c0-1.162-0.256-2.039-0.769-2.63c-0.513-0.592-1.239-0.888-2.178-0.888
				c-0.94,0-1.682,0.296-2.226,0.888c-0.544,0.591-0.816,1.468-0.816,2.63v9.647h-4.868V24.104h4.868v2.479
				c0.277-0.368,0.581-0.722,0.913-1.059c0.331-0.337,0.699-0.635,1.105-0.896c0.405-0.261,0.854-0.467,1.345-0.619
				c0.491-0.152,1.045-0.229,1.665-0.229c1.857,0,3.293,0.571,4.308,1.715c1.014,1.143,1.521,2.717,1.521,4.722v11.225H287.115z"/>
			<path fill="#B2D499" d="M303.383,41.458c-0.62,0.183-1.334,0.274-2.146,0.274c-0.748,0-1.425-0.081-2.034-0.242
				c-0.608-0.162-1.132-0.447-1.569-0.857c-0.438-0.409-0.78-0.943-1.025-1.602c-0.246-0.657-0.368-1.492-0.368-2.507v-8.216h-2.05
				v-4.205h2.05v-4.431h4.868v4.431h4.036v4.205h-4.036v7.407c0,1.122,0.523,1.683,1.569,1.683c0.854,0,1.654-0.205,2.402-0.615
				v3.946C304.568,41.033,304.002,41.275,303.383,41.458z"/>
			<path fill="#B2D499" d="M323.479,33.873c-0.011,0.173-0.027,0.378-0.048,0.615h-11.946c0.234,1.121,0.72,1.968,1.457,2.539
				c0.737,0.571,1.649,0.857,2.738,0.857c0.811,0,1.537-0.141,2.178-0.421c0.641-0.28,1.302-0.733,1.986-1.358l2.786,2.49
				c-0.812,1.014-1.793,1.807-2.946,2.378c-1.153,0.571-2.509,0.856-4.067,0.856c-1.281,0-2.472-0.216-3.571-0.646
				c-1.1-0.431-2.05-1.046-2.851-1.844c-0.801-0.798-1.425-1.741-1.874-2.83c-0.449-1.089-0.672-2.302-0.672-3.639v-0.065
				c0-1.229,0.208-2.394,0.625-3.493c0.416-1.1,0.998-2.059,1.745-2.879c0.747-0.819,1.639-1.466,2.674-1.94
				c1.035-0.475,2.183-0.712,3.443-0.712c1.43,0,2.668,0.259,3.715,0.776c1.046,0.518,1.916,1.213,2.61,2.086
				c0.693,0.874,1.206,1.877,1.537,3.009c0.331,1.132,0.497,2.313,0.497,3.542v0.064C323.496,33.496,323.49,33.701,323.479,33.873z
				 M317.603,28.746c-0.619-0.679-1.441-1.019-2.466-1.019c-1.025,0-1.853,0.335-2.482,1.003c-0.63,0.669-1.041,1.563-1.233,2.685
				h7.333C318.606,30.315,318.222,29.425,317.603,28.746z"/>
			<path fill="#B2D499" d="M326.57,41.442V17.83h4.868v23.612H326.57z"/>
			<path fill="#B2D499" d="M335.344,22.196V17.83h5.124v4.366H335.344z M335.472,41.442V24.104h4.868v17.338H335.472z"/>
			<path fill="#B2D499" d="M360.82,41.717c-0.395,1.153-0.993,2.097-1.793,2.83c-0.8,0.732-1.799,1.271-2.994,1.617
				c-1.196,0.345-2.594,0.518-4.196,0.518c-1.409,0-2.754-0.157-4.035-0.469c-1.281-0.313-2.466-0.761-3.555-1.343l1.665-3.688
				c0.897,0.496,1.799,0.884,2.707,1.164c0.907,0.28,1.938,0.421,3.09,0.421c1.666,0,2.898-0.399,3.699-1.197
				c0.8-0.797,1.201-1.973,1.201-3.525v-0.841c-0.726,0.885-1.516,1.574-2.37,2.07c-0.854,0.496-1.933,0.744-3.235,0.744
				c-1.004,0-1.964-0.179-2.882-0.534s-1.729-0.878-2.434-1.568s-1.265-1.537-1.681-2.539c-0.417-1.003-0.625-2.151-0.625-3.445
				v-0.064c0-1.294,0.213-2.442,0.641-3.445c0.427-1.003,0.993-1.849,1.697-2.539c0.705-0.689,1.516-1.213,2.434-1.568
				c0.917-0.356,1.868-0.534,2.85-0.534c1.324,0,2.413,0.248,3.267,0.744s1.612,1.11,2.274,1.844v-2.265h4.868v13.424
				C361.413,39.167,361.215,40.564,360.82,41.717z M356.609,31.868c0-0.582-0.107-1.121-0.32-1.617s-0.507-0.922-0.88-1.278
				c-0.374-0.355-0.817-0.631-1.329-0.824c-0.513-0.194-1.068-0.291-1.666-0.291s-1.148,0.097-1.649,0.291
				c-0.502,0.193-0.939,0.469-1.313,0.824c-0.374,0.356-0.667,0.782-0.881,1.278c-0.214,0.496-0.32,1.035-0.32,1.617v0.064
				c0,1.208,0.395,2.179,1.185,2.911c0.79,0.733,1.783,1.1,2.979,1.1c0.598,0,1.153-0.097,1.666-0.291
				c0.512-0.194,0.955-0.469,1.329-0.825c0.373-0.355,0.667-0.781,0.88-1.277c0.213-0.496,0.32-1.035,0.32-1.617L356.609,31.868
				L356.609,31.868z"/>
			<path fill="#B2D499" d="M380.997,33.873c-0.011,0.173-0.027,0.378-0.048,0.615h-11.946c0.234,1.121,0.72,1.968,1.457,2.539
				c0.737,0.571,1.649,0.857,2.738,0.857c0.811,0,1.537-0.141,2.178-0.421c0.641-0.28,1.302-0.733,1.986-1.358l2.786,2.49
				c-0.812,1.014-1.793,1.807-2.946,2.378c-1.153,0.571-2.509,0.856-4.067,0.856c-1.281,0-2.472-0.216-3.571-0.646
				c-1.1-0.431-2.05-1.046-2.851-1.844c-0.801-0.798-1.425-1.741-1.874-2.83c-0.449-1.089-0.672-2.302-0.672-3.639v-0.065
				c0-1.229,0.208-2.394,0.625-3.493c0.416-1.1,0.998-2.059,1.745-2.879c0.747-0.819,1.639-1.466,2.674-1.94
				c1.035-0.475,2.183-0.712,3.443-0.712c1.43,0,2.668,0.259,3.715,0.776c1.046,0.518,1.916,1.213,2.61,2.086
				c0.693,0.874,1.206,1.877,1.537,3.009c0.331,1.132,0.497,2.313,0.497,3.542v0.064C381.013,33.496,381.007,33.701,380.997,33.873z
				 M375.12,28.746c-0.619-0.679-1.441-1.019-2.466-1.019c-1.025,0-1.853,0.335-2.482,1.003c-0.63,0.669-1.041,1.563-1.233,2.685
				h7.333C376.123,30.315,375.739,29.425,375.12,28.746z"/>
			<path fill="#B2D499" d="M394.72,41.442v-9.647c0-1.162-0.256-2.039-0.769-2.63c-0.513-0.592-1.239-0.888-2.178-0.888
				c-0.94,0-1.682,0.296-2.226,0.888c-0.544,0.591-0.816,1.468-0.816,2.63v9.647h-4.868V24.104h4.868v2.479
				c0.277-0.368,0.581-0.722,0.913-1.059c0.331-0.337,0.699-0.635,1.105-0.896c0.405-0.261,0.854-0.467,1.345-0.619
				c0.491-0.152,1.045-0.229,1.665-0.229c1.857,0,3.293,0.571,4.308,1.715c1.014,1.143,1.521,2.717,1.521,4.722v11.225H394.72z"/>
			<path fill="#B2D499" d="M410.988,41.458c-0.62,0.183-1.334,0.274-2.146,0.274c-0.748,0-1.425-0.081-2.034-0.242
				c-0.608-0.162-1.132-0.447-1.569-0.857c-0.438-0.409-0.78-0.943-1.025-1.602c-0.246-0.657-0.368-1.492-0.368-2.507v-8.216h-2.05
				v-4.205h2.05v-4.431h4.868v4.431h4.036v4.205h-4.036v7.407c0,1.122,0.523,1.683,1.569,1.683c0.854,0,1.654-0.205,2.402-0.615
				v3.946C412.173,41.033,411.607,41.275,410.988,41.458z"/>
			<path fill="#B2D499" d="M431.084,33.873c-0.011,0.173-0.027,0.378-0.048,0.615H419.09c0.234,1.121,0.72,1.968,1.457,2.539
				c0.737,0.571,1.649,0.857,2.738,0.857c0.811,0,1.537-0.141,2.178-0.421c0.642-0.28,1.302-0.733,1.986-1.358l2.786,2.49
				c-0.813,1.014-1.793,1.807-2.946,2.378c-1.153,0.571-2.509,0.856-4.067,0.856c-1.28,0-2.472-0.216-3.571-0.646
				c-1.1-0.431-2.05-1.046-2.851-1.844c-0.801-0.798-1.425-1.741-1.874-2.83c-0.449-1.089-0.672-2.302-0.672-3.639v-0.065
				c0-1.229,0.208-2.394,0.625-3.493c0.416-1.1,0.998-2.059,1.745-2.879c0.747-0.819,1.639-1.466,2.674-1.94
				c1.035-0.475,2.184-0.712,3.443-0.712c1.43,0,2.668,0.259,3.715,0.776c1.046,0.518,1.916,1.213,2.61,2.086
				c0.692,0.874,1.206,1.877,1.536,3.009c0.331,1.132,0.497,2.313,0.497,3.542v0.064C431.101,33.496,431.095,33.701,431.084,33.873z
				 M425.208,28.746c-0.619-0.679-1.441-1.019-2.466-1.019c-1.025,0-1.853,0.335-2.482,1.003c-0.63,0.669-1.041,1.563-1.233,2.685
				h7.333C426.211,30.315,425.827,29.425,425.208,28.746z"/>
			<path fill="#B2D499" d="M435.392,41.442h-1.953v-5.176h5.156v4.367c0,2.135-0.512,3.671-1.537,4.609
				c-1.024,0.938-2.486,1.418-4.388,1.439l-0.416-2.038C434.516,44.407,435.563,43.339,435.392,41.442z"/>
		</g>
		<g>
			<path fill="#FFFFFF" d="M464.062,46.618v-8.54c-0.343,0.496-0.722,0.971-1.138,1.424c-0.417,0.452-0.881,0.852-1.393,1.196
				c-0.514,0.346-1.084,0.615-1.713,0.809c-0.63,0.194-1.329,0.291-2.099,0.291c-1.004,0-1.975-0.193-2.915-0.582
				c-0.939-0.388-1.782-0.954-2.529-1.698c-0.748-0.744-1.346-1.654-1.793-2.733c-0.448-1.078-0.673-2.307-0.673-3.688
				c0-1.38,0.225-2.608,0.673-3.688c0.448-1.078,1.046-1.989,1.793-2.732c0.747-0.744,1.59-1.315,2.529-1.715
				c0.939-0.398,1.911-0.599,2.915-0.599c0.77,0,1.474,0.098,2.113,0.291c0.641,0.194,1.217,0.453,1.729,0.776
				c0.514,0.324,0.978,0.701,1.394,1.133c0.417,0.432,0.785,0.884,1.104,1.358v-3.202h2.467v21.898L464.062,46.618L464.062,46.618z
				 M463.66,30.425c-0.331-0.794-0.779-1.47-1.345-2.027c-0.566-0.559-1.207-0.992-1.923-1.304
				c-0.715-0.313-1.456-0.467-2.226-0.467c-0.813,0-1.569,0.145-2.274,0.435c-0.704,0.289-1.317,0.708-1.841,1.255
				c-0.522,0.547-0.939,1.223-1.249,2.027c-0.31,0.805-0.464,1.712-0.464,2.72c0,0.987,0.154,1.878,0.464,2.672
				s0.731,1.476,1.266,2.044c0.534,0.568,1.152,1.003,1.857,1.304c0.705,0.3,1.452,0.45,2.242,0.45c0.769,0,1.51-0.155,2.226-0.467
				c0.717-0.312,1.356-0.745,1.923-1.304c0.564-0.558,1.014-1.239,1.345-2.044c0.331-0.805,0.497-1.689,0.497-2.655
				C464.157,32.099,463.991,31.219,463.66,30.425z"/>
			<path fill="#FFFFFF" d="M483.021,24.719h2.434v16.723h-2.434v-2.911c-0.557,0.905-1.281,1.677-2.179,2.313
				c-0.896,0.636-2.061,0.954-3.491,0.954c-1.004,0-1.895-0.161-2.674-0.484c-0.779-0.324-1.44-0.782-1.985-1.375
				c-0.546-0.593-0.96-1.299-1.249-2.119c-0.288-0.819-0.433-1.725-0.433-2.717V24.719h2.466v9.769c0,1.553,0.396,2.781,1.186,3.688
				c0.79,0.905,1.921,1.358,3.395,1.358c0.705,0,1.361-0.124,1.97-0.372s1.131-0.604,1.568-1.067
				c0.438-0.464,0.785-1.02,1.041-1.666s0.384-1.358,0.384-2.135v-9.575H483.021z"/>
			<path fill="#FFFFFF" d="M492.371,36.412c0.341,0.701,0.779,1.294,1.313,1.779c0.534,0.485,1.132,0.853,1.793,1.1
				c0.662,0.248,1.356,0.372,2.082,0.372c1.153,0,2.141-0.215,2.962-0.646c0.821-0.432,1.574-1.003,2.259-1.715l1.537,1.392
				c-0.833,0.949-1.783,1.709-2.851,2.28c-1.068,0.571-2.392,0.856-3.972,0.856c-1.132,0-2.199-0.21-3.202-0.63
				c-1.004-0.421-1.882-1.014-2.634-1.779c-0.753-0.766-1.351-1.688-1.793-2.766c-0.443-1.078-0.665-2.265-0.665-3.559
				c0-1.207,0.197-2.345,0.592-3.412s0.945-1.994,1.649-2.782c0.704-0.786,1.542-1.406,2.514-1.859
				c0.971-0.453,2.034-0.68,3.187-0.68c1.218,0,2.307,0.232,3.268,0.695c0.961,0.465,1.771,1.095,2.434,1.893
				c0.662,0.798,1.164,1.736,1.505,2.814s0.513,2.231,0.513,3.461c0,0.108,0,0.227,0,0.355c0,0.13-0.012,0.271-0.032,0.421h-13.099
				C491.816,34.908,492.029,35.711,492.371,36.412z M502.331,32.159c-0.064-0.755-0.217-1.477-0.462-2.167
				c-0.244-0.69-0.583-1.294-1.019-1.812c-0.436-0.518-0.966-0.933-1.592-1.245c-0.626-0.313-1.353-0.47-2.181-0.47
				c-0.722,0-1.39,0.146-2.006,0.437c-0.615,0.292-1.156,0.69-1.623,1.197c-0.467,0.507-0.85,1.105-1.146,1.795
				s-0.487,1.445-0.573,2.265H502.331z"/>
		</g>
		<g>
			<path fill="#FFFFFF" d="M40.117,79.339c-1.057,0.612-2.365,0.918-3.923,0.918c-1.217,0-2.343-0.231-3.379-0.695
				c-1.036-0.463-1.933-1.088-2.69-1.876c-0.758-0.787-1.351-1.709-1.777-2.766c-0.428-1.056-0.641-2.178-0.641-3.364
				s0.213-2.313,0.641-3.38c0.427-1.067,1.019-2,1.777-2.798c0.757-0.798,1.654-1.428,2.69-1.893
				c1.036-0.463,2.162-0.695,3.379-0.695c0.79,0,1.505,0.076,2.146,0.227c0.641,0.151,1.228,0.361,1.762,0.631
				c0.533,0.27,1.025,0.588,1.473,0.954c0.448,0.367,0.865,0.755,1.249,1.165l-1.633,1.746c-0.662-0.689-1.383-1.282-2.162-1.779
				c-0.78-0.495-1.735-0.743-2.867-0.743c-0.833,0-1.612,0.166-2.338,0.5c-0.726,0.334-1.356,0.796-1.889,1.388
				c-0.534,0.591-0.951,1.279-1.249,2.064c-0.299,0.786-0.449,1.63-0.449,2.533c0,0.903,0.155,1.753,0.464,2.549
				c0.309,0.796,0.737,1.49,1.281,2.081c0.544,0.592,1.185,1.054,1.921,1.388c0.737,0.334,1.542,0.5,2.418,0.5
				c1.067,0,2.012-0.237,2.834-0.712c0.822-0.474,1.564-1.067,2.226-1.779l1.569,1.488C42.118,77.944,41.173,78.726,40.117,79.339z"
				/>
			<path fill="#FFFFFF" d="M61.35,74.873c-0.438,1.067-1.041,2-1.81,2.798c-0.769,0.798-1.687,1.429-2.754,1.892
				c-1.068,0.464-2.221,0.695-3.458,0.695c-1.239,0-2.381-0.231-3.427-0.695c-1.046-0.463-1.954-1.088-2.722-1.876
				c-0.769-0.787-1.367-1.709-1.793-2.766c-0.428-1.056-0.641-2.178-0.641-3.364s0.213-2.313,0.641-3.38
				c0.427-1.067,1.024-2,1.793-2.798c0.769-0.798,1.681-1.428,2.738-1.893c1.057-0.463,2.215-0.695,3.475-0.695
				c1.238,0,2.386,0.232,3.443,0.695c1.057,0.465,1.969,1.09,2.738,1.877c0.769,0.787,1.366,1.709,1.793,2.766
				c0.427,1.057,0.64,2.178,0.64,3.363C62.006,72.678,61.787,73.805,61.35,74.873z M59.012,68.991
				c-0.31-0.795-0.742-1.489-1.297-2.08c-0.555-0.592-1.206-1.06-1.953-1.403c-0.748-0.345-1.559-0.517-2.434-0.517
				c-0.897,0-1.719,0.166-2.466,0.5c-0.748,0.334-1.382,0.796-1.905,1.388c-0.523,0.591-0.935,1.279-1.233,2.064
				c-0.299,0.786-0.449,1.63-0.449,2.533c0,0.903,0.155,1.753,0.464,2.549c0.309,0.796,0.737,1.484,1.281,2.065
				c0.544,0.58,1.19,1.043,1.938,1.387c0.747,0.345,1.558,0.517,2.434,0.517c0.896,0,1.718-0.166,2.466-0.5
				c0.747-0.334,1.388-0.79,1.922-1.372c0.533-0.58,0.95-1.263,1.249-2.049c0.298-0.784,0.448-1.629,0.448-2.532
				S59.321,69.788,59.012,68.991z"/>
			<path fill="#FFFFFF" d="M68.155,79.87h-2.466V63.147h2.466v2.911c0.555-0.906,1.281-1.677,2.178-2.313
				c0.897-0.636,2.06-0.954,3.491-0.954c1.003,0,1.895,0.162,2.674,0.485c0.779,0.323,1.441,0.782,1.986,1.375
				c0.545,0.593,0.96,1.299,1.249,2.118c0.288,0.82,0.432,1.726,0.432,2.718V79.87h-2.466v-9.769c0-1.553-0.396-2.782-1.185-3.688
				c-0.79-0.905-1.922-1.358-3.395-1.358c-0.705,0-1.361,0.124-1.969,0.372c-0.609,0.248-1.137,0.604-1.585,1.067
				c-0.448,0.463-0.796,1.019-1.041,1.666c-0.246,0.646-0.368,1.358-0.368,2.135v9.575H68.155z"/>
			<path fill="#FFFFFF" d="M86.762,74.839c0.341,0.701,0.779,1.294,1.313,1.779c0.534,0.485,1.131,0.853,1.793,1.1
				c0.662,0.248,1.356,0.372,2.082,0.372c1.153,0,2.14-0.215,2.962-0.646c0.821-0.432,1.574-1.003,2.258-1.715l1.537,1.392
				c-0.833,0.949-1.783,1.709-2.85,2.28c-1.068,0.571-2.392,0.856-3.972,0.856c-1.132,0-2.199-0.21-3.202-0.63
				c-1.004-0.421-1.882-1.014-2.634-1.779c-0.753-0.766-1.35-1.688-1.793-2.766c-0.443-1.078-0.665-2.265-0.665-3.559
				c0-1.207,0.197-2.345,0.592-3.412c0.395-1.067,0.945-1.994,1.649-2.782c0.705-0.786,1.542-1.406,2.514-1.859
				c0.971-0.453,2.034-0.68,3.187-0.68c1.217,0,2.306,0.232,3.267,0.695c0.961,0.465,1.772,1.095,2.434,1.893
				c0.662,0.798,1.164,1.736,1.505,2.814c0.341,1.078,0.512,2.231,0.512,3.461c0,0.108,0,0.227,0,0.355
				c0,0.13-0.011,0.271-0.032,0.421H86.121C86.207,73.335,86.42,74.139,86.762,74.839z M96.722,70.586
				c-0.064-0.755-0.217-1.477-0.462-2.167c-0.244-0.69-0.583-1.294-1.018-1.812c-0.436-0.518-0.966-0.933-1.592-1.245
				c-0.626-0.313-1.353-0.47-2.181-0.47c-0.722,0-1.39,0.146-2.006,0.437c-0.615,0.292-1.156,0.69-1.623,1.197
				c-0.467,0.507-0.849,1.105-1.146,1.795c-0.297,0.69-0.488,1.445-0.573,2.265H96.722z"/>
			<path fill="#FFFFFF" d="M114.16,79.339c-1.057,0.612-2.365,0.918-3.923,0.918c-1.217,0-2.343-0.231-3.379-0.695
				c-1.036-0.463-1.933-1.088-2.69-1.876c-0.758-0.787-1.351-1.709-1.777-2.766c-0.428-1.056-0.641-2.178-0.641-3.364
				s0.213-2.313,0.641-3.38c0.427-1.067,1.019-2,1.777-2.798c0.757-0.798,1.654-1.428,2.69-1.893
				c1.036-0.463,2.162-0.695,3.379-0.695c0.79,0,1.505,0.076,2.146,0.227c0.641,0.151,1.228,0.361,1.762,0.631
				c0.533,0.27,1.025,0.588,1.473,0.954c0.448,0.367,0.865,0.755,1.249,1.165l-1.633,1.746c-0.662-0.689-1.383-1.282-2.162-1.779
				c-0.78-0.495-1.735-0.743-2.867-0.743c-0.833,0-1.612,0.166-2.338,0.5c-0.726,0.334-1.356,0.796-1.889,1.388
				c-0.534,0.591-0.951,1.279-1.249,2.064c-0.299,0.786-0.449,1.63-0.449,2.533c0,0.903,0.155,1.753,0.464,2.549
				s0.737,1.49,1.281,2.081c0.544,0.592,1.185,1.054,1.921,1.388c0.737,0.334,1.542,0.5,2.418,0.5c1.067,0,2.012-0.237,2.834-0.712
				c0.822-0.474,1.564-1.067,2.226-1.779l1.569,1.488C116.161,77.944,115.216,78.726,114.16,79.339z"/>
			<path fill="#FFFFFF" d="M123.623,75.115c0,1.035,0.256,1.758,0.769,2.167c0.513,0.41,1.185,0.615,2.018,0.615
				c0.427,0,0.827-0.043,1.201-0.13c0.373-0.086,0.773-0.237,1.201-0.453v2.135c-0.427,0.238-0.88,0.416-1.361,0.534
				s-1.02,0.178-1.617,0.178c-0.662,0-1.281-0.086-1.858-0.259c-0.576-0.172-1.073-0.447-1.489-0.825
				c-0.417-0.377-0.742-0.867-0.977-1.472c-0.235-0.604-0.352-1.326-0.352-2.167V65.346h-2.306v-2.199h2.306v-5.046h2.466v5.046
				h5.252v2.199h-5.252L123.623,75.115L123.623,75.115z"/>
			<path fill="#FFFFFF" d="M135.776,65.459c-0.801,0.227-1.585,0.523-2.354,0.89l-0.736-2.038c0.917-0.431,1.846-0.771,2.786-1.019
				c0.939-0.248,2.018-0.372,3.235-0.372c2.263,0,4.003,0.565,5.22,1.698c1.217,1.132,1.825,2.809,1.825,5.029V79.87h-2.37v-2.523
				c-0.577,0.756-1.351,1.424-2.322,2.006s-2.193,0.873-3.667,0.873c-0.769,0-1.521-0.107-2.258-0.323
				c-0.736-0.215-1.398-0.544-1.985-0.986c-0.587-0.441-1.057-0.986-1.409-1.634c-0.353-0.646-0.528-1.412-0.528-2.297
				c0-0.884,0.17-1.665,0.512-2.345c0.341-0.679,0.827-1.245,1.457-1.698c0.63-0.453,1.377-0.798,2.242-1.035
				c0.865-0.236,1.82-0.355,2.866-0.355c1.067,0,1.996,0.064,2.786,0.194c0.79,0.129,1.559,0.302,2.306,0.518V69.68
				c0-1.509-0.433-2.646-1.297-3.412c-0.864-0.766-2.077-1.148-3.635-1.148C137.468,65.12,136.577,65.233,135.776,65.459z
				 M134.988,72.333c-0.83,0.626-1.245,1.478-1.245,2.556c0,0.539,0.112,1.014,0.335,1.424c0.223,0.409,0.526,0.76,0.91,1.051
				c0.383,0.291,0.824,0.513,1.325,0.663c0.5,0.151,1.027,0.227,1.58,0.227c0.766,0,1.484-0.113,2.154-0.34s1.255-0.539,1.756-0.938
				c0.5-0.399,0.894-0.874,1.181-1.424c0.287-0.55,0.431-1.159,0.431-1.827v-1.617c-0.617-0.173-1.325-0.335-2.123-0.485
				s-1.708-0.227-2.729-0.227C137.009,71.395,135.817,71.708,134.988,72.333z"/>
			<path fill="#FFFFFF" d="M171.309,63.147h2.658l-7.206,16.852h-2.178l-7.174-16.852h2.722l5.572,13.876L171.309,63.147z"/>
			<path fill="#FFFFFF" d="M191.693,74.873c-0.438,1.067-1.041,2-1.81,2.798c-0.769,0.798-1.687,1.429-2.754,1.892
				c-1.068,0.464-2.221,0.695-3.458,0.695c-1.239,0-2.381-0.231-3.427-0.695c-1.046-0.463-1.954-1.088-2.722-1.876
				c-0.769-0.787-1.367-1.709-1.793-2.766c-0.428-1.056-0.641-2.178-0.641-3.364s0.213-2.313,0.641-3.38
				c0.427-1.067,1.024-2,1.793-2.798c0.769-0.798,1.681-1.428,2.738-1.893c1.057-0.463,2.215-0.695,3.475-0.695
				c1.238,0,2.386,0.232,3.443,0.695c1.057,0.465,1.97,1.09,2.738,1.877c0.768,0.787,1.366,1.709,1.793,2.766
				c0.427,1.057,0.64,2.178,0.64,3.363C192.349,72.678,192.13,73.805,191.693,74.873z M189.355,68.991
				c-0.31-0.795-0.742-1.489-1.297-2.08c-0.555-0.592-1.206-1.06-1.953-1.403c-0.748-0.345-1.559-0.517-2.434-0.517
				c-0.897,0-1.719,0.166-2.466,0.5c-0.748,0.334-1.382,0.796-1.905,1.388c-0.523,0.591-0.935,1.279-1.233,2.064
				c-0.299,0.786-0.449,1.63-0.449,2.533c0,0.903,0.155,1.753,0.464,2.549s0.737,1.484,1.281,2.065
				c0.544,0.58,1.19,1.043,1.938,1.387c0.747,0.345,1.558,0.517,2.434,0.517c0.896,0,1.718-0.166,2.466-0.5
				c0.747-0.334,1.388-0.79,1.922-1.372c0.533-0.58,0.95-1.263,1.249-2.049c0.298-0.784,0.448-1.629,0.448-2.532
				S189.664,69.788,189.355,68.991z"/>
			<path fill="#FFFFFF" d="M207.386,79.339c-1.057,0.612-2.365,0.918-3.923,0.918c-1.217,0-2.343-0.231-3.379-0.695
				c-1.036-0.463-1.933-1.088-2.69-1.876c-0.758-0.787-1.351-1.709-1.777-2.766c-0.428-1.056-0.641-2.178-0.641-3.364
				s0.213-2.313,0.641-3.38c0.427-1.067,1.019-2,1.777-2.798c0.757-0.798,1.654-1.428,2.69-1.893
				c1.036-0.463,2.162-0.695,3.379-0.695c0.79,0,1.505,0.076,2.146,0.227s1.228,0.361,1.762,0.631
				c0.533,0.27,1.025,0.588,1.473,0.954c0.448,0.367,0.865,0.755,1.249,1.165l-1.633,1.746c-0.662-0.689-1.383-1.282-2.162-1.779
				c-0.78-0.495-1.735-0.743-2.867-0.743c-0.833,0-1.612,0.166-2.338,0.5c-0.726,0.334-1.356,0.796-1.889,1.388
				c-0.534,0.591-0.951,1.279-1.249,2.064c-0.299,0.786-0.449,1.63-0.449,2.533c0,0.903,0.155,1.753,0.464,2.549
				c0.309,0.796,0.737,1.49,1.281,2.081c0.544,0.592,1.185,1.054,1.921,1.388c0.737,0.334,1.542,0.5,2.418,0.5
				c1.067,0,2.012-0.237,2.834-0.712c0.822-0.474,1.564-1.067,2.226-1.779l1.569,1.488
				C209.387,77.944,208.442,78.726,207.386,79.339z"/>
			<path fill="#FFFFFF" d="M215.151,74.839c0.341,0.701,0.779,1.294,1.313,1.779c0.534,0.485,1.131,0.853,1.793,1.1
				c0.662,0.248,1.356,0.372,2.082,0.372c1.153,0,2.14-0.215,2.962-0.646c0.821-0.432,1.574-1.003,2.258-1.715l1.537,1.392
				c-0.833,0.949-1.783,1.709-2.85,2.28c-1.068,0.571-2.392,0.856-3.972,0.856c-1.132,0-2.199-0.21-3.202-0.63
				c-1.004-0.421-1.882-1.014-2.634-1.779c-0.753-0.766-1.35-1.688-1.793-2.766s-0.665-2.265-0.665-3.559
				c0-1.207,0.197-2.345,0.592-3.412c0.395-1.067,0.945-1.994,1.649-2.782c0.705-0.786,1.542-1.406,2.514-1.859
				c0.971-0.453,2.034-0.68,3.187-0.68c1.217,0,2.306,0.232,3.267,0.695c0.961,0.465,1.772,1.095,2.434,1.893
				c0.662,0.798,1.164,1.736,1.505,2.814c0.341,1.078,0.512,2.231,0.512,3.461c0,0.108,0,0.227,0,0.355
				c0,0.13-0.011,0.271-0.032,0.421h-13.099C214.596,73.335,214.81,74.139,215.151,74.839z M225.111,70.586
				c-0.064-0.755-0.217-1.477-0.462-2.167c-0.244-0.69-0.583-1.294-1.018-1.812c-0.436-0.518-0.966-0.933-1.592-1.245
				c-0.626-0.313-1.353-0.47-2.181-0.47c-0.722,0-1.39,0.146-2.006,0.437c-0.615,0.292-1.156,0.69-1.623,1.197
				s-0.849,1.105-1.146,1.795c-0.297,0.69-0.488,1.445-0.573,2.265H225.111z M217.393,60.624h-2.049l3.396-4.237h2.178l3.395,4.237
				h-2.114l-2.402-2.167L217.393,60.624z"/>
			<path fill="#FFFFFF" d="M251.389,79.339c-1.057,0.612-2.365,0.918-3.923,0.918c-1.217,0-2.343-0.231-3.379-0.695
				c-1.036-0.463-1.933-1.088-2.69-1.876c-0.758-0.787-1.351-1.709-1.777-2.766c-0.428-1.056-0.641-2.178-0.641-3.364
				s0.213-2.313,0.641-3.38c0.427-1.067,1.019-2,1.777-2.798c0.757-0.798,1.654-1.428,2.69-1.893
				c1.036-0.463,2.162-0.695,3.379-0.695c0.79,0,1.505,0.076,2.146,0.227c0.641,0.151,1.228,0.361,1.762,0.631
				c0.533,0.27,1.025,0.588,1.473,0.954c0.448,0.367,0.865,0.755,1.249,1.165l-1.633,1.746c-0.662-0.689-1.383-1.282-2.162-1.779
				c-0.78-0.495-1.735-0.743-2.867-0.743c-0.833,0-1.612,0.166-2.338,0.5c-0.726,0.334-1.356,0.796-1.889,1.388
				c-0.534,0.591-0.951,1.279-1.249,2.064c-0.299,0.786-0.449,1.63-0.449,2.533c0,0.903,0.155,1.753,0.464,2.549
				s0.737,1.49,1.281,2.081c0.544,0.592,1.185,1.054,1.921,1.388c0.737,0.334,1.542,0.5,2.418,0.5c1.067,0,2.012-0.237,2.834-0.712
				c0.822-0.474,1.564-1.067,2.226-1.779l1.569,1.488C253.39,77.944,252.445,78.726,251.389,79.339z"/>
			<path fill="#FFFFFF" d="M272.622,74.873c-0.438,1.067-1.041,2-1.81,2.798c-0.769,0.798-1.687,1.429-2.754,1.892
				c-1.068,0.464-2.221,0.695-3.458,0.695c-1.239,0-2.381-0.231-3.427-0.695c-1.046-0.463-1.954-1.088-2.722-1.876
				c-0.769-0.787-1.367-1.709-1.793-2.766c-0.428-1.056-0.641-2.178-0.641-3.364s0.213-2.313,0.641-3.38
				c0.427-1.067,1.024-2,1.793-2.798c0.769-0.798,1.681-1.428,2.738-1.893c1.057-0.463,2.215-0.695,3.475-0.695
				c1.238,0,2.386,0.232,3.443,0.695c1.057,0.465,1.97,1.09,2.738,1.877c0.768,0.787,1.366,1.709,1.793,2.766
				c0.427,1.057,0.64,2.178,0.64,3.363C273.278,72.678,273.059,73.805,272.622,74.873z M270.284,68.991
				c-0.31-0.795-0.742-1.489-1.297-2.08c-0.555-0.592-1.206-1.06-1.953-1.403c-0.748-0.345-1.559-0.517-2.434-0.517
				c-0.897,0-1.719,0.166-2.466,0.5c-0.748,0.334-1.382,0.796-1.905,1.388c-0.523,0.591-0.935,1.279-1.233,2.064
				c-0.299,0.786-0.449,1.63-0.449,2.533c0,0.903,0.155,1.753,0.464,2.549c0.309,0.796,0.737,1.484,1.281,2.065
				c0.544,0.58,1.19,1.043,1.938,1.387c0.747,0.345,1.558,0.517,2.434,0.517c0.896,0,1.718-0.166,2.466-0.5
				c0.747-0.334,1.388-0.79,1.922-1.372c0.533-0.58,0.95-1.263,1.249-2.049c0.298-0.784,0.448-1.629,0.448-2.532
				S270.593,69.788,270.284,68.991z"/>
			<path fill="#FFFFFF" d="M291.1,64.829c0.374-0.409,0.795-0.766,1.265-1.067c0.469-0.302,0.998-0.539,1.585-0.712
				c0.587-0.172,1.243-0.259,1.97-0.259c1.921,0,3.427,0.599,4.516,1.796c1.089,1.196,1.633,2.841,1.633,4.933v10.35h-2.466v-9.769
				c0-1.617-0.379-2.862-1.137-3.736c-0.758-0.873-1.81-1.31-3.155-1.31c-0.619,0-1.207,0.113-1.761,0.34
				c-0.556,0.227-1.041,0.561-1.457,1.002c-0.417,0.442-0.748,0.987-0.993,1.634c-0.246,0.647-0.368,1.381-0.368,2.199v9.64h-2.434
				v-9.833c0-1.574-0.379-2.798-1.137-3.672c-0.758-0.873-1.799-1.31-3.123-1.31c-0.662,0-1.271,0.129-1.826,0.388
				c-0.555,0.259-1.041,0.626-1.457,1.101c-0.417,0.474-0.742,1.029-0.977,1.665c-0.235,0.637-0.353,1.343-0.353,2.119v9.542h-2.466
				V63.147h2.466v2.813c0.277-0.409,0.582-0.809,0.913-1.196c0.331-0.389,0.71-0.728,1.137-1.02
				c0.427-0.291,0.907-0.522,1.441-0.695c0.534-0.172,1.153-0.259,1.857-0.259c1.345,0,2.455,0.318,3.331,0.954
				c0.875,0.637,1.537,1.429,1.985,2.378C290.39,65.669,290.727,65.239,291.1,64.829z"/>
			<path fill="#FFFFFF" d="M327.241,63.147h2.434V79.87h-2.434v-2.911c-0.556,0.905-1.281,1.677-2.178,2.313
				c-0.897,0.636-2.061,0.954-3.491,0.954c-1.004,0-1.895-0.161-2.674-0.484c-0.78-0.324-1.441-0.782-1.986-1.375
				c-0.545-0.593-0.96-1.299-1.249-2.119c-0.288-0.819-0.432-1.725-0.432-2.717V63.147h2.466v9.769c0,1.553,0.395,2.781,1.185,3.688
				c0.79,0.905,1.921,1.358,3.395,1.358c0.705,0,1.361-0.124,1.969-0.372c0.609-0.248,1.131-0.604,1.569-1.067
				c0.438-0.464,0.785-1.02,1.041-1.666s0.384-1.358,0.384-2.135v-9.575H327.241z"/>
			<path fill="#FFFFFF" d="M348.586,64.829c0.374-0.409,0.795-0.766,1.265-1.067c0.469-0.302,0.998-0.539,1.585-0.712
				c0.587-0.172,1.243-0.259,1.97-0.259c1.921,0,3.427,0.599,4.516,1.796c1.089,1.196,1.633,2.841,1.633,4.933v10.35h-2.466v-9.769
				c0-1.617-0.379-2.862-1.137-3.736c-0.758-0.873-1.81-1.31-3.155-1.31c-0.619,0-1.207,0.113-1.761,0.34
				c-0.556,0.227-1.041,0.561-1.457,1.002c-0.417,0.442-0.748,0.987-0.993,1.634c-0.246,0.647-0.368,1.381-0.368,2.199v9.64h-2.434
				v-9.833c0-1.574-0.379-2.798-1.137-3.672c-0.758-0.873-1.799-1.31-3.123-1.31c-0.662,0-1.271,0.129-1.826,0.388
				c-0.555,0.259-1.041,0.626-1.457,1.101c-0.417,0.474-0.742,1.029-0.977,1.665c-0.235,0.637-0.353,1.343-0.353,2.119v9.542h-2.466
				V63.147h2.466v2.813c0.277-0.409,0.582-0.809,0.913-1.196c0.331-0.389,0.71-0.728,1.137-1.02
				c0.427-0.291,0.907-0.522,1.441-0.695c0.534-0.172,1.153-0.259,1.857-0.259c1.345,0,2.455,0.318,3.331,0.954
				c0.875,0.637,1.537,1.429,1.985,2.378C347.876,65.669,348.213,65.239,348.586,64.829z"/>
			<path fill="#FFFFFF" d="M367.45,65.459c-0.801,0.227-1.585,0.523-2.354,0.89l-0.736-2.038c0.917-0.431,1.846-0.771,2.786-1.019
				c0.939-0.248,2.018-0.372,3.235-0.372c2.263,0,4.003,0.565,5.22,1.698c1.217,1.132,1.825,2.809,1.825,5.029V79.87h-2.37v-2.523
				c-0.577,0.756-1.351,1.424-2.322,2.006c-0.971,0.582-2.193,0.873-3.667,0.873c-0.769,0-1.521-0.107-2.258-0.323
				c-0.736-0.215-1.398-0.544-1.985-0.986c-0.587-0.441-1.057-0.986-1.409-1.634c-0.353-0.646-0.528-1.412-0.528-2.297
				c0-0.884,0.17-1.665,0.512-2.345c0.341-0.679,0.827-1.245,1.457-1.698s1.377-0.798,2.242-1.035
				c0.865-0.236,1.82-0.355,2.866-0.355c1.067,0,1.996,0.064,2.786,0.194c0.79,0.129,1.559,0.302,2.306,0.518V69.68
				c0-1.509-0.433-2.646-1.297-3.412c-0.864-0.766-2.077-1.148-3.635-1.148C369.142,65.12,368.25,65.233,367.45,65.459z
				 M366.661,72.333c-0.83,0.626-1.245,1.478-1.245,2.556c0,0.539,0.112,1.014,0.335,1.424c0.223,0.409,0.526,0.76,0.91,1.051
				c0.383,0.291,0.824,0.513,1.325,0.663c0.5,0.151,1.027,0.227,1.58,0.227c0.766,0,1.484-0.113,2.154-0.34
				c0.67-0.227,1.255-0.539,1.756-0.938c0.5-0.399,0.894-0.874,1.181-1.424c0.287-0.55,0.431-1.159,0.431-1.827v-1.617
				c-0.617-0.173-1.325-0.335-2.123-0.485c-0.798-0.15-1.708-0.227-2.729-0.227C368.683,71.395,367.491,71.708,366.661,72.333z"/>
			<path fill="#FFFFFF" d="M392.862,74.839c0.341,0.701,0.779,1.294,1.313,1.779c0.534,0.485,1.131,0.853,1.793,1.1
				c0.662,0.248,1.356,0.372,2.082,0.372c1.153,0,2.14-0.215,2.962-0.646c0.821-0.432,1.574-1.003,2.258-1.715l1.537,1.392
				c-0.833,0.949-1.783,1.709-2.85,2.28c-1.068,0.571-2.392,0.856-3.972,0.856c-1.132,0-2.199-0.21-3.202-0.63
				c-1.004-0.421-1.882-1.014-2.634-1.779c-0.753-0.766-1.35-1.688-1.793-2.766s-0.665-2.265-0.665-3.559
				c0-1.207,0.197-2.345,0.592-3.412c0.395-1.067,0.945-1.994,1.649-2.782c0.705-0.786,1.542-1.406,2.514-1.859
				c0.971-0.453,2.034-0.68,3.187-0.68c1.217,0,2.306,0.232,3.267,0.695c0.961,0.465,1.772,1.095,2.434,1.893
				c0.662,0.798,1.164,1.736,1.505,2.814c0.341,1.078,0.512,2.231,0.512,3.461c0,0.108,0,0.227,0,0.355
				c0,0.13-0.011,0.271-0.032,0.421H392.22C392.307,73.335,392.52,74.139,392.862,74.839z M402.822,70.586
				c-0.064-0.755-0.217-1.477-0.462-2.167c-0.244-0.69-0.583-1.294-1.018-1.812c-0.436-0.518-0.966-0.933-1.592-1.245
				c-0.626-0.313-1.353-0.47-2.181-0.47c-0.722,0-1.39,0.146-2.006,0.437c-0.615,0.292-1.156,0.69-1.623,1.197
				c-0.467,0.507-0.849,1.105-1.146,1.795c-0.297,0.69-0.488,1.445-0.573,2.265H402.822z"/>
			<path fill="#FFFFFF" d="M422.325,79.87h-2.85l-5.124-6.825l-5.156,6.825h-2.754l6.501-8.507l-6.245-8.216h2.818l4.9,6.469
				l4.9-6.469h2.754l-6.277,8.151L422.325,79.87z"/>
			<path fill="#FFFFFF" d="M441.604,75.179c-0.447,1.079-1.04,1.989-1.776,2.733c-0.737,0.744-1.581,1.315-2.53,1.715
				c-0.95,0.398-1.927,0.598-2.93,0.598c-0.77,0-1.473-0.097-2.114-0.291c-0.641-0.193-1.217-0.452-1.729-0.776
				c-0.513-0.323-0.978-0.7-1.394-1.132c-0.417-0.431-0.785-0.884-1.104-1.358v8.378h-2.467V63.147h2.467v3.363
				c0.341-0.495,0.721-0.97,1.137-1.423c0.417-0.453,0.881-0.846,1.394-1.181c0.513-0.334,1.083-0.604,1.713-0.809
				s1.329-0.308,2.099-0.308c0.98,0,1.948,0.194,2.897,0.582c0.95,0.389,1.799,0.955,2.547,1.698
				c0.746,0.744,1.345,1.655,1.793,2.733c0.447,1.079,0.672,2.308,0.672,3.688C442.277,72.873,442.053,74.101,441.604,75.179z
				 M439.283,68.853c-0.311-0.794-0.732-1.476-1.266-2.044c-0.533-0.568-1.152-1.003-1.856-1.303
				c-0.705-0.301-1.452-0.451-2.242-0.451c-0.769,0-1.51,0.155-2.226,0.467c-0.717,0.312-1.356,0.745-1.921,1.304
				c-0.566,0.558-1.016,1.233-1.346,2.027c-0.332,0.794-0.497,1.674-0.497,2.639c0,0.966,0.165,1.851,0.497,2.655
				c0.331,0.805,0.779,1.486,1.346,2.044c0.564,0.559,1.205,0.992,1.921,1.304c0.715,0.312,1.457,0.467,2.226,0.467
				c0.79,0,1.542-0.145,2.258-0.435c0.715-0.289,1.334-0.708,1.857-1.255c0.522-0.547,0.938-1.224,1.249-2.028
				c0.309-0.805,0.464-1.711,0.464-2.72C439.748,70.538,439.592,69.647,439.283,68.853z"/>
			<path fill="#FFFFFF" d="M448.202,74.839c0.341,0.701,0.779,1.294,1.313,1.779c0.534,0.485,1.131,0.853,1.793,1.1
				c0.662,0.248,1.356,0.372,2.082,0.372c1.153,0,2.141-0.215,2.962-0.646c0.821-0.432,1.574-1.003,2.259-1.715l1.537,1.392
				c-0.834,0.949-1.783,1.709-2.851,2.28c-1.067,0.571-2.392,0.856-3.972,0.856c-1.132,0-2.199-0.21-3.202-0.63
				c-1.004-0.421-1.882-1.014-2.634-1.779c-0.753-0.766-1.351-1.688-1.793-2.766c-0.443-1.078-0.665-2.265-0.665-3.559
				c0-1.207,0.196-2.345,0.592-3.412c0.395-1.067,0.945-1.994,1.649-2.782c0.704-0.786,1.541-1.406,2.514-1.859
				c0.971-0.453,2.034-0.68,3.187-0.68c1.218,0,2.307,0.232,3.268,0.695c0.961,0.465,1.771,1.095,2.434,1.893
				c0.662,0.798,1.164,1.736,1.505,2.814c0.342,1.078,0.513,2.231,0.513,3.461c0,0.108,0,0.227,0,0.355
				c0,0.13-0.012,0.271-0.032,0.421h-13.1C447.646,73.335,447.86,74.139,448.202,74.839z M458.162,70.586
				c-0.064-0.755-0.217-1.477-0.462-2.167c-0.244-0.69-0.583-1.294-1.019-1.812s-0.966-0.933-1.592-1.245
				c-0.626-0.313-1.353-0.47-2.181-0.47c-0.723,0-1.391,0.146-2.006,0.437c-0.615,0.292-1.156,0.69-1.623,1.197
				c-0.467,0.507-0.85,1.105-1.146,1.795c-0.297,0.69-0.488,1.445-0.573,2.265H458.162z"/>
			<path fill="#FFFFFF" d="M466.68,79.87h-2.466V63.147h2.466v4.366c0.3-0.689,0.672-1.326,1.121-1.908
				c0.448-0.582,0.96-1.084,1.537-1.504c0.577-0.421,1.206-0.738,1.89-0.954s1.42-0.313,2.209-0.291v2.685h-0.191
				c-0.897,0-1.746,0.161-2.546,0.485c-0.8,0.323-1.5,0.809-2.099,1.455c-0.598,0.647-1.067,1.45-1.408,2.41
				c-0.342,0.959-0.513,2.064-0.513,3.315V79.87L466.68,79.87z"/>
			<path fill="#FFFFFF" d="M476.479,59.492v-2.75h2.818v2.75H476.479z M476.641,79.87V63.147h2.467V79.87H476.641z"/>
			<path fill="#FFFFFF" d="M486.216,74.839c0.341,0.701,0.779,1.294,1.313,1.779c0.534,0.485,1.131,0.853,1.793,1.1
				c0.662,0.248,1.355,0.372,2.082,0.372c1.152,0,2.14-0.215,2.962-0.646c0.82-0.432,1.574-1.003,2.258-1.715l1.537,1.392
				c-0.833,0.949-1.783,1.709-2.851,2.28c-1.067,0.571-2.392,0.856-3.972,0.856c-1.132,0-2.199-0.21-3.202-0.63
				c-1.004-0.421-1.882-1.014-2.634-1.779c-0.753-0.766-1.35-1.688-1.793-2.766s-0.665-2.265-0.665-3.559
				c0-1.207,0.197-2.345,0.592-3.412c0.396-1.067,0.945-1.994,1.649-2.782c0.705-0.786,1.542-1.406,2.514-1.859
				c0.971-0.453,2.034-0.68,3.188-0.68c1.217,0,2.306,0.232,3.267,0.695c0.961,0.465,1.772,1.095,2.435,1.893
				c0.661,0.798,1.163,1.736,1.505,2.814c0.341,1.078,0.512,2.231,0.512,3.461c0,0.108,0,0.227,0,0.355
				c0,0.13-0.011,0.271-0.032,0.421h-13.099C485.661,73.335,485.874,74.139,486.216,74.839z M496.176,70.586
				c-0.063-0.755-0.217-1.477-0.462-2.167c-0.244-0.69-0.583-1.294-1.018-1.812c-0.437-0.518-0.967-0.933-1.592-1.245
				c-0.627-0.313-1.354-0.47-2.182-0.47c-0.722,0-1.39,0.146-2.006,0.437c-0.615,0.292-1.156,0.69-1.623,1.197
				s-0.849,1.105-1.146,1.795c-0.297,0.69-0.487,1.445-0.572,2.265H496.176z M488.458,60.624h-2.049l3.395-4.237h2.179l3.395,4.237
				h-2.114l-2.401-2.167L488.458,60.624z"/>
			<path fill="#FFFFFF" d="M504.727,79.87h-2.466V63.147h2.466v2.911c0.556-0.906,1.281-1.677,2.179-2.313
				c0.896-0.636,2.06-0.954,3.49-0.954c1.004,0,1.896,0.162,2.675,0.485c0.778,0.323,1.44,0.782,1.985,1.375
				c0.545,0.593,0.96,1.299,1.249,2.118c0.288,0.82,0.433,1.726,0.433,2.718V79.87h-2.466v-9.769c0-1.553-0.396-2.782-1.186-3.688
				c-0.79-0.905-1.922-1.358-3.395-1.358c-0.705,0-1.361,0.124-1.97,0.372c-0.608,0.248-1.137,0.604-1.585,1.067
				c-0.447,0.463-0.796,1.019-1.041,1.666c-0.245,0.646-0.367,1.358-0.367,2.135v9.575H504.727z"/>
			<path fill="#FFFFFF" d="M532.574,79.339c-1.058,0.612-2.365,0.918-3.923,0.918c-1.218,0-2.344-0.231-3.379-0.695
				c-1.036-0.463-1.934-1.088-2.69-1.876c-0.758-0.787-1.351-1.709-1.777-2.766c-0.428-1.056-0.641-2.178-0.641-3.364
				s0.213-2.313,0.641-3.38c0.428-1.067,1.02-2,1.777-2.798c0.757-0.798,1.654-1.428,2.69-1.893
				c1.035-0.463,2.161-0.695,3.379-0.695c0.79,0,1.505,0.076,2.146,0.227c0.642,0.151,1.229,0.361,1.762,0.631
				s1.025,0.588,1.474,0.954c0.448,0.367,0.865,0.755,1.249,1.165l-1.633,1.746c-0.662-0.689-1.384-1.282-2.162-1.779
				c-0.78-0.495-1.735-0.743-2.867-0.743c-0.833,0-1.612,0.166-2.338,0.5c-0.727,0.334-1.356,0.796-1.89,1.388
				c-0.533,0.591-0.95,1.279-1.248,2.064c-0.3,0.786-0.449,1.63-0.449,2.533c0,0.903,0.154,1.753,0.464,2.549
				c0.309,0.796,0.737,1.49,1.281,2.081c0.544,0.592,1.185,1.054,1.921,1.388s1.542,0.5,2.418,0.5c1.066,0,2.012-0.237,2.834-0.712
				c0.822-0.474,1.563-1.067,2.226-1.779l1.569,1.488C534.575,77.944,533.63,78.726,532.574,79.339z"/>
			<path fill="#FFFFFF" d="M538.771,59.492v-2.75h2.818v2.75H538.771z M538.931,79.87V63.147h2.467V79.87H538.931z"/>
			<path fill="#FFFFFF" d="M549.675,65.459c-0.801,0.227-1.585,0.523-2.354,0.89l-0.736-2.038c0.917-0.431,1.846-0.771,2.786-1.019
				c0.938-0.248,2.018-0.372,3.235-0.372c2.263,0,4.003,0.565,5.22,1.698c1.217,1.132,1.825,2.809,1.825,5.029V79.87h-2.37v-2.523
				c-0.577,0.756-1.352,1.424-2.322,2.006s-2.193,0.873-3.667,0.873c-0.77,0-1.521-0.107-2.258-0.323
				c-0.736-0.215-1.398-0.544-1.985-0.986c-0.587-0.441-1.057-0.986-1.409-1.634c-0.353-0.646-0.527-1.412-0.527-2.297
				c0-0.884,0.17-1.665,0.512-2.345c0.341-0.679,0.827-1.245,1.457-1.698s1.377-0.798,2.242-1.035
				c0.864-0.236,1.819-0.355,2.865-0.355c1.067,0,1.996,0.064,2.786,0.194c0.79,0.129,1.56,0.302,2.307,0.518V69.68
				c0-1.509-0.434-2.646-1.297-3.412c-0.864-0.766-2.077-1.148-3.636-1.148C551.367,65.12,550.476,65.233,549.675,65.459z
				 M548.886,72.333c-0.83,0.626-1.245,1.478-1.245,2.556c0,0.539,0.112,1.014,0.335,1.424c0.224,0.409,0.526,0.76,0.91,1.051
				c0.383,0.291,0.824,0.513,1.325,0.663c0.5,0.151,1.027,0.227,1.58,0.227c0.766,0,1.484-0.113,2.154-0.34s1.255-0.539,1.756-0.938
				c0.5-0.399,0.894-0.874,1.181-1.424c0.287-0.55,0.432-1.159,0.432-1.827v-1.617c-0.617-0.173-1.325-0.335-2.123-0.485
				c-0.799-0.15-1.708-0.227-2.729-0.227C550.908,71.395,549.716,71.708,548.886,72.333z"/>
		</g>
		<g>
			<path fill="#FFFFFF" d="M44.776,113.606c-0.448,1.079-1.041,1.989-1.777,2.733c-0.737,0.744-1.581,1.315-2.53,1.715
				c-0.95,0.398-1.927,0.598-2.93,0.598c-0.769,0-1.473-0.097-2.114-0.291c-0.641-0.193-1.217-0.452-1.729-0.776
				c-0.512-0.323-0.977-0.7-1.393-1.132c-0.417-0.431-0.785-0.884-1.105-1.358v8.378h-2.466v-21.898h2.466v3.363
				c0.341-0.495,0.721-0.97,1.137-1.423c0.417-0.453,0.881-0.846,1.394-1.181c0.512-0.334,1.083-0.604,1.713-0.809
				c0.629-0.205,1.329-0.308,2.098-0.308c0.981,0,1.948,0.194,2.898,0.582c0.95,0.389,1.798,0.955,2.546,1.698
				c0.747,0.744,1.345,1.655,1.793,2.733c0.448,1.079,0.672,2.308,0.672,3.688C45.449,111.299,45.225,112.528,44.776,113.606z
				 M42.455,107.28c-0.31-0.794-0.732-1.476-1.265-2.044c-0.534-0.568-1.153-1.003-1.857-1.303
				c-0.705-0.301-1.452-0.451-2.242-0.451c-0.769,0-1.51,0.155-2.226,0.467c-0.716,0.313-1.356,0.745-1.921,1.304
				c-0.566,0.558-1.015,1.233-1.345,2.027c-0.332,0.794-0.497,1.674-0.497,2.639c0,0.966,0.165,1.851,0.497,2.655
				c0.331,0.805,0.779,1.486,1.345,2.044c0.565,0.559,1.206,0.992,1.921,1.304c0.715,0.312,1.457,0.467,2.226,0.467
				c0.79,0,1.542-0.145,2.258-0.435c0.715-0.289,1.334-0.708,1.857-1.255c0.523-0.547,0.939-1.224,1.249-2.028
				c0.309-0.805,0.464-1.711,0.464-2.72C42.919,108.964,42.764,108.074,42.455,107.28z"/>
			<path fill="#FFFFFF" d="M51.373,113.266c0.341,0.701,0.779,1.294,1.313,1.779s1.131,0.853,1.793,1.1
				c0.662,0.248,1.356,0.372,2.082,0.372c1.153,0,2.14-0.215,2.962-0.646c0.821-0.432,1.574-1.003,2.258-1.715l1.537,1.392
				c-0.833,0.949-1.783,1.709-2.85,2.28c-1.068,0.571-2.392,0.856-3.972,0.856c-1.132,0-2.199-0.21-3.202-0.63
				c-1.004-0.421-1.882-1.014-2.634-1.779c-0.753-0.766-1.35-1.688-1.793-2.766c-0.443-1.078-0.665-2.265-0.665-3.559
				c0-1.207,0.197-2.345,0.592-3.412s0.945-1.994,1.649-2.782c0.705-0.786,1.542-1.406,2.514-1.859
				c0.971-0.453,2.034-0.68,3.187-0.68c1.217,0,2.306,0.232,3.267,0.695c0.961,0.465,1.772,1.095,2.434,1.893
				c0.662,0.798,1.164,1.736,1.505,2.814c0.341,1.078,0.512,2.231,0.512,3.461c0,0.108,0,0.227,0,0.355
				c0,0.13-0.011,0.271-0.032,0.421H50.732C50.818,111.762,51.031,112.566,51.373,113.266z M61.333,109.013
				c-0.064-0.755-0.217-1.477-0.462-2.167c-0.244-0.69-0.583-1.294-1.018-1.812c-0.436-0.518-0.966-0.933-1.592-1.245
				c-0.626-0.313-1.353-0.47-2.181-0.47c-0.722,0-1.39,0.146-2.006,0.437c-0.615,0.292-1.156,0.69-1.623,1.197
				c-0.467,0.507-0.849,1.105-1.146,1.795c-0.297,0.69-0.488,1.445-0.573,2.265H61.333z"/>
			<path fill="#FFFFFF" d="M69.852,118.296h-2.466v-16.723h2.466v4.366c0.299-0.689,0.672-1.326,1.121-1.908
				c0.448-0.582,0.96-1.084,1.537-1.504c0.577-0.421,1.206-0.738,1.89-0.954c0.683-0.216,1.419-0.313,2.209-0.291v2.685h-0.192
				c-0.897,0-1.746,0.161-2.546,0.485c-0.8,0.323-1.5,0.809-2.098,1.455c-0.598,0.647-1.068,1.45-1.409,2.41
				c-0.341,0.959-0.512,2.064-0.512,3.315V118.296L69.852,118.296z"/>
			<path fill="#FFFFFF" d="M90.493,115.725c-0.31,0.614-0.726,1.138-1.249,1.568c-0.523,0.432-1.143,0.761-1.857,0.986
				c-0.716,0.227-1.489,0.34-2.322,0.34c-1.196,0-2.402-0.221-3.619-0.663c-1.217-0.441-2.295-1.04-3.235-1.795l1.249-1.779
				c0.897,0.69,1.831,1.219,2.802,1.585c0.972,0.367,1.948,0.55,2.931,0.55c1.003,0,1.825-0.236,2.466-0.711
				c0.641-0.475,0.961-1.121,0.961-1.941V113.8c0-0.409-0.112-0.766-0.336-1.067c-0.224-0.301-0.528-0.566-0.913-0.793
				c-0.384-0.226-0.828-0.425-1.329-0.598c-0.502-0.173-1.02-0.334-1.553-0.485c-0.641-0.194-1.287-0.404-1.938-0.631
				c-0.652-0.227-1.239-0.512-1.762-0.857c-0.523-0.345-0.95-0.776-1.281-1.294c-0.332-0.518-0.497-1.164-0.497-1.94v-0.064
				c0-0.712,0.139-1.364,0.417-1.957c0.277-0.593,0.667-1.1,1.169-1.521c0.501-0.421,1.099-0.744,1.793-0.971
				c0.693-0.227,1.446-0.339,2.258-0.339c1.025,0,2.06,0.167,3.106,0.501c1.046,0.335,1.996,0.782,2.85,1.343l-1.121,1.876
				c-0.769-0.496-1.575-0.89-2.418-1.181c-0.844-0.291-1.671-0.438-2.482-0.438c-0.982,0-1.762,0.232-2.338,0.696
				c-0.577,0.464-0.865,1.04-0.865,1.73v0.064c0,0.388,0.117,0.728,0.352,1.019s0.549,0.545,0.945,0.761
				c0.395,0.216,0.849,0.409,1.361,0.582c0.512,0.173,1.045,0.345,1.601,0.518c0.641,0.194,1.275,0.41,1.906,0.646
				c0.629,0.238,1.201,0.54,1.713,0.906c0.512,0.366,0.923,0.809,1.233,1.326c0.309,0.518,0.464,1.153,0.464,1.908v0.064
				C90.957,114.404,90.802,115.11,90.493,115.725z"/>
			<path fill="#FFFFFF" d="M110.348,113.299c-0.438,1.067-1.041,2-1.81,2.798c-0.769,0.798-1.687,1.429-2.754,1.892
				c-1.068,0.464-2.221,0.695-3.458,0.695c-1.239,0-2.381-0.231-3.427-0.695c-1.046-0.463-1.954-1.088-2.722-1.876
				c-0.769-0.787-1.367-1.709-1.793-2.766c-0.428-1.056-0.641-2.178-0.641-3.364s0.213-2.313,0.641-3.38
				c0.427-1.067,1.024-2,1.793-2.798c0.769-0.798,1.681-1.428,2.738-1.893c1.057-0.463,2.215-0.695,3.475-0.695
				c1.238,0,2.386,0.232,3.443,0.695c1.057,0.465,1.97,1.09,2.738,1.877c0.768,0.787,1.366,1.709,1.793,2.766
				c0.427,1.057,0.64,2.178,0.64,3.363C111.004,111.105,110.786,112.232,110.348,113.299z M108.01,107.417
				c-0.31-0.795-0.742-1.489-1.297-2.08c-0.555-0.592-1.206-1.06-1.953-1.403c-0.748-0.345-1.559-0.517-2.434-0.517
				c-0.897,0-1.719,0.166-2.466,0.5c-0.748,0.334-1.382,0.796-1.905,1.388c-0.523,0.591-0.935,1.279-1.233,2.064
				c-0.299,0.786-0.449,1.63-0.449,2.533c0,0.903,0.155,1.753,0.464,2.549c0.309,0.796,0.737,1.484,1.281,2.065
				c0.544,0.58,1.19,1.043,1.938,1.387c0.747,0.345,1.558,0.517,2.434,0.517c0.896,0,1.718-0.166,2.466-0.5
				c0.747-0.334,1.388-0.79,1.922-1.372c0.533-0.58,0.95-1.263,1.249-2.049c0.298-0.784,0.448-1.629,0.448-2.532
				C108.475,109.064,108.319,108.214,108.01,107.417z"/>
			<path fill="#FFFFFF" d="M117.153,118.296h-2.466v-16.723h2.466v2.911c0.555-0.906,1.281-1.677,2.178-2.313
				c0.897-0.636,2.06-0.954,3.491-0.954c1.003,0,1.895,0.162,2.674,0.485c0.779,0.323,1.441,0.782,1.986,1.375
				c0.545,0.593,0.96,1.299,1.249,2.118c0.288,0.82,0.432,1.726,0.432,2.718v10.383h-2.466v-9.769c0-1.553-0.396-2.782-1.185-3.688
				c-0.79-0.905-1.922-1.358-3.395-1.358c-0.705,0-1.361,0.124-1.969,0.372c-0.609,0.248-1.137,0.604-1.585,1.067
				c-0.448,0.463-0.796,1.019-1.041,1.666c-0.246,0.646-0.368,1.358-0.368,2.135L117.153,118.296L117.153,118.296z"/>
			<path fill="#FFFFFF" d="M136.929,103.886c-0.801,0.227-1.585,0.523-2.354,0.89l-0.736-2.038c0.917-0.431,1.846-0.771,2.786-1.019
				c0.939-0.248,2.018-0.372,3.235-0.372c2.263,0,4.003,0.565,5.22,1.698c1.217,1.132,1.825,2.809,1.825,5.029v10.222h-2.37v-2.523
				c-0.577,0.756-1.351,1.424-2.322,2.006c-0.971,0.582-2.193,0.873-3.667,0.873c-0.769,0-1.521-0.107-2.258-0.323
				c-0.736-0.215-1.398-0.544-1.985-0.986c-0.587-0.441-1.057-0.986-1.409-1.634c-0.353-0.646-0.528-1.412-0.528-2.297
				c0-0.884,0.17-1.665,0.512-2.345c0.341-0.679,0.827-1.245,1.457-1.698c0.63-0.453,1.377-0.798,2.242-1.035
				c0.865-0.236,1.82-0.355,2.866-0.355c1.067,0,1.996,0.064,2.786,0.194c0.79,0.129,1.559,0.302,2.306,0.518v-0.583
				c0-1.509-0.433-2.646-1.297-3.412c-0.864-0.766-2.077-1.148-3.635-1.148C138.621,103.546,137.73,103.66,136.929,103.886z
				 M136.141,110.759c-0.83,0.626-1.245,1.478-1.245,2.556c0,0.539,0.112,1.014,0.335,1.424c0.223,0.409,0.526,0.76,0.91,1.051
				c0.383,0.291,0.824,0.513,1.325,0.663c0.5,0.151,1.027,0.227,1.58,0.227c0.766,0,1.484-0.113,2.154-0.34s1.255-0.539,1.756-0.938
				c0.5-0.399,0.894-0.874,1.181-1.424c0.287-0.55,0.431-1.159,0.431-1.827v-1.617c-0.617-0.173-1.325-0.335-2.123-0.485
				c-0.798-0.15-1.708-0.227-2.729-0.227C138.162,109.822,136.97,110.134,136.141,110.759z"/>
			<path fill="#FFFFFF" d="M151.581,118.296V94.684h2.466v23.612H151.581z"/>
			<path fill="#FFFFFF" d="M159.075,97.918v-2.75h2.818v2.75H159.075z M159.235,118.296v-16.723h2.466v16.723H159.235z"/>
			<path fill="#FFFFFF" d="M166.088,103.676v-2.104h13.963v1.585l-11.017,13.035h11.017v2.103h-14.348v-1.585l10.985-13.035H166.088
				z"/>
			<path fill="#FFFFFF" d="M187.017,103.886c-0.801,0.227-1.585,0.523-2.354,0.89l-0.736-2.038c0.917-0.431,1.846-0.771,2.786-1.019
				c0.939-0.248,2.018-0.372,3.235-0.372c2.263,0,4.003,0.565,5.22,1.698c1.217,1.132,1.825,2.809,1.825,5.029v10.222h-2.37v-2.523
				c-0.577,0.756-1.351,1.424-2.322,2.006c-0.971,0.582-2.193,0.873-3.667,0.873c-0.769,0-1.521-0.107-2.258-0.323
				c-0.736-0.215-1.398-0.544-1.985-0.986c-0.587-0.441-1.057-0.986-1.409-1.634c-0.353-0.646-0.528-1.412-0.528-2.297
				c0-0.884,0.17-1.665,0.512-2.345c0.341-0.679,0.827-1.245,1.457-1.698c0.63-0.453,1.377-0.798,2.242-1.035
				c0.865-0.236,1.82-0.355,2.866-0.355c1.067,0,1.996,0.064,2.786,0.194c0.79,0.129,1.559,0.302,2.306,0.518v-0.583
				c0-1.509-0.433-2.646-1.297-3.412c-0.864-0.766-2.077-1.148-3.635-1.148C188.709,103.546,187.818,103.66,187.017,103.886z
				 M186.229,110.759c-0.83,0.626-1.245,1.478-1.245,2.556c0,0.539,0.112,1.014,0.335,1.424c0.223,0.409,0.526,0.76,0.91,1.051
				c0.383,0.291,0.824,0.513,1.325,0.663c0.5,0.151,1.027,0.227,1.58,0.227c0.766,0,1.484-0.113,2.154-0.34s1.255-0.539,1.756-0.938
				c0.5-0.399,0.894-0.874,1.181-1.424s0.431-1.159,0.431-1.827v-1.617c-0.617-0.173-1.325-0.335-2.123-0.485
				c-0.798-0.15-1.708-0.227-2.729-0.227C188.25,109.822,187.058,110.134,186.229,110.759z"/>
			<path fill="#FFFFFF" d="M214.735,118.296v-3.364c-0.342,0.496-0.721,0.971-1.137,1.424c-0.417,0.452-0.881,0.852-1.393,1.196
				c-0.513,0.346-1.084,0.615-1.713,0.809c-0.63,0.194-1.329,0.291-2.098,0.291c-1.004,0-1.975-0.193-2.915-0.582
				c-0.94-0.388-1.783-0.954-2.53-1.698c-0.748-0.744-1.345-1.654-1.793-2.733c-0.448-1.078-0.672-2.307-0.672-3.688
				c0-1.38,0.224-2.608,0.672-3.688c0.449-1.078,1.046-1.989,1.793-2.732c0.747-0.744,1.59-1.315,2.53-1.715
				c0.939-0.398,1.911-0.599,2.915-0.599c0.769,0,1.473,0.098,2.113,0.291c0.641,0.194,1.217,0.453,1.729,0.776
				c0.513,0.324,0.977,0.701,1.393,1.133c0.417,0.432,0.785,0.884,1.105,1.358V94.684h2.466v23.612H214.735z M214.335,107.28
				c-0.331-0.794-0.779-1.47-1.345-2.027c-0.566-0.559-1.207-0.992-1.922-1.304c-0.715-0.312-1.457-0.467-2.226-0.467
				c-0.812,0-1.569,0.145-2.274,0.435c-0.705,0.289-1.318,0.708-1.841,1.255c-0.523,0.547-0.94,1.223-1.249,2.027
				c-0.31,0.805-0.464,1.712-0.464,2.72c0,0.987,0.154,1.878,0.464,2.672c0.309,0.794,0.731,1.476,1.265,2.044
				c0.534,0.568,1.153,1.003,1.858,1.304c0.705,0.3,1.452,0.45,2.242,0.45c0.769,0,1.51-0.155,2.226-0.467
				c0.716-0.312,1.356-0.745,1.922-1.304c0.565-0.558,1.014-1.239,1.345-2.044c0.331-0.805,0.497-1.688,0.497-2.655
				C214.832,108.954,214.666,108.074,214.335,107.28z"/>
			<path fill="#FFFFFF" d="M225.255,103.886c-0.801,0.227-1.585,0.523-2.354,0.89l-0.736-2.038c0.917-0.431,1.846-0.771,2.786-1.019
				c0.939-0.248,2.018-0.372,3.235-0.372c2.263,0,4.003,0.565,5.22,1.698c1.217,1.132,1.825,2.809,1.825,5.029v10.222h-2.37v-2.523
				c-0.577,0.756-1.351,1.424-2.322,2.006c-0.971,0.582-2.193,0.873-3.667,0.873c-0.769,0-1.521-0.107-2.258-0.323
				c-0.736-0.215-1.398-0.544-1.985-0.986c-0.587-0.441-1.057-0.986-1.409-1.634c-0.353-0.646-0.528-1.412-0.528-2.297
				c0-0.884,0.17-1.665,0.512-2.345c0.341-0.679,0.827-1.245,1.457-1.698c0.63-0.453,1.377-0.798,2.242-1.035
				c0.865-0.236,1.82-0.355,2.866-0.355c1.067,0,1.996,0.064,2.786,0.194c0.79,0.129,1.559,0.302,2.306,0.518v-0.583
				c0-1.509-0.433-2.646-1.297-3.412c-0.864-0.766-2.077-1.148-3.635-1.148C226.947,103.546,226.056,103.66,225.255,103.886z
				 M224.467,110.759c-0.83,0.626-1.245,1.478-1.245,2.556c0,0.539,0.112,1.014,0.335,1.424c0.223,0.409,0.526,0.76,0.91,1.051
				c0.383,0.291,0.824,0.513,1.325,0.663c0.5,0.151,1.027,0.227,1.58,0.227c0.766,0,1.484-0.113,2.154-0.34
				c0.67-0.227,1.255-0.539,1.756-0.938c0.5-0.399,0.894-0.874,1.181-1.424s0.431-1.159,0.431-1.827v-1.617
				c-0.617-0.173-1.325-0.335-2.123-0.485s-1.708-0.227-2.729-0.227C226.488,109.822,225.296,110.134,224.467,110.759z"/>
			<path fill="#FFFFFF" d="M261.813,118.296v-3.364c-0.342,0.496-0.721,0.971-1.137,1.424c-0.417,0.452-0.881,0.852-1.393,1.196
				c-0.513,0.346-1.084,0.615-1.713,0.809c-0.63,0.194-1.329,0.291-2.098,0.291c-1.004,0-1.975-0.193-2.915-0.582
				c-0.94-0.388-1.783-0.954-2.53-1.698c-0.748-0.744-1.345-1.654-1.793-2.733c-0.448-1.078-0.672-2.307-0.672-3.688
				c0-1.38,0.224-2.608,0.672-3.688c0.449-1.078,1.046-1.989,1.793-2.732c0.747-0.744,1.59-1.315,2.53-1.715
				c0.939-0.398,1.911-0.599,2.915-0.599c0.769,0,1.473,0.098,2.113,0.291c0.641,0.194,1.217,0.453,1.729,0.776
				c0.513,0.324,0.977,0.701,1.393,1.133c0.417,0.432,0.785,0.884,1.105,1.358V94.684h2.466v23.612H261.813z M261.412,107.28
				c-0.331-0.794-0.779-1.47-1.345-2.027c-0.566-0.559-1.207-0.992-1.922-1.304c-0.715-0.312-1.457-0.467-2.226-0.467
				c-0.812,0-1.569,0.145-2.274,0.435c-0.705,0.289-1.318,0.708-1.841,1.255c-0.523,0.547-0.94,1.223-1.249,2.027
				c-0.31,0.805-0.464,1.712-0.464,2.72c0,0.987,0.154,1.878,0.464,2.672c0.309,0.794,0.731,1.476,1.265,2.044
				c0.534,0.568,1.153,1.003,1.858,1.304c0.705,0.3,1.452,0.45,2.242,0.45c0.769,0,1.51-0.155,2.226-0.467s1.356-0.745,1.922-1.304
				c0.565-0.558,1.014-1.239,1.345-2.044c0.331-0.805,0.497-1.688,0.497-2.655C261.909,108.954,261.743,108.074,261.412,107.28z"/>
			<path fill="#FFFFFF" d="M271.164,113.266c0.341,0.701,0.779,1.294,1.313,1.779c0.534,0.485,1.131,0.853,1.793,1.1
				c0.662,0.248,1.356,0.372,2.082,0.372c1.153,0,2.14-0.215,2.962-0.646c0.821-0.432,1.574-1.003,2.258-1.715l1.537,1.392
				c-0.833,0.949-1.783,1.709-2.85,2.28c-1.068,0.571-2.392,0.856-3.972,0.856c-1.132,0-2.199-0.21-3.202-0.63
				c-1.004-0.421-1.882-1.014-2.634-1.779c-0.753-0.766-1.35-1.688-1.793-2.766c-0.443-1.078-0.665-2.265-0.665-3.559
				c0-1.207,0.197-2.345,0.592-3.412s0.945-1.994,1.649-2.782c0.705-0.786,1.542-1.406,2.514-1.859
				c0.971-0.453,2.034-0.68,3.187-0.68c1.217,0,2.306,0.232,3.267,0.695c0.961,0.465,1.772,1.095,2.434,1.893
				c0.662,0.798,1.164,1.736,1.505,2.814c0.341,1.078,0.512,2.231,0.512,3.461c0,0.108,0,0.227,0,0.355
				c0,0.13-0.011,0.271-0.032,0.421h-13.099C270.608,111.762,270.822,112.566,271.164,113.266z M281.124,109.013
				c-0.064-0.755-0.217-1.477-0.462-2.167c-0.244-0.69-0.583-1.294-1.018-1.812c-0.436-0.518-0.966-0.933-1.592-1.245
				c-0.626-0.313-1.353-0.47-2.181-0.47c-0.722,0-1.39,0.146-2.006,0.437c-0.615,0.292-1.156,0.69-1.623,1.197
				c-0.467,0.507-0.849,1.105-1.146,1.795c-0.297,0.69-0.488,1.445-0.573,2.265H281.124z"/>
		</g>
		<g>
			<path fill="#B2D499" d="M307.357,117.795c-1.068,0.593-2.456,0.889-4.164,0.889c-1.281,0-2.471-0.237-3.571-0.711
				c-1.1-0.475-2.045-1.116-2.834-1.925c-0.79-0.809-1.409-1.758-1.857-2.847c-0.448-1.089-0.672-2.248-0.672-3.477v-0.065
				c0-1.229,0.224-2.394,0.672-3.493c0.448-1.099,1.067-2.059,1.857-2.879c0.79-0.819,1.734-1.466,2.834-1.94
				c1.1-0.475,2.311-0.712,3.635-0.712c1.623,0,2.968,0.259,4.036,0.776c1.067,0.518,2.006,1.229,2.818,2.135l-2.978,3.234
				c-0.556-0.582-1.126-1.045-1.713-1.391c-0.588-0.345-1.319-0.518-2.194-0.518c-0.62,0-1.18,0.124-1.682,0.372
				s-0.939,0.588-1.313,1.019c-0.374,0.432-0.662,0.934-0.865,1.505c-0.203,0.571-0.304,1.181-0.304,1.827v0.064
				c0,0.669,0.101,1.294,0.304,1.876c0.203,0.583,0.497,1.09,0.881,1.521c0.384,0.432,0.843,0.771,1.377,1.02
				c0.534,0.249,1.131,0.371,1.793,0.371c0.812,0,1.521-0.166,2.13-0.501c0.608-0.334,1.211-0.781,1.81-1.343l2.85,2.911
				C309.375,116.442,308.424,117.203,307.357,117.795z"/>
			<path fill="#B2D499" d="M323.305,118.296v-2.479c-0.277,0.369-0.582,0.723-0.913,1.059c-0.331,0.337-0.7,0.636-1.105,0.896
				c-0.406,0.261-0.854,0.467-1.345,0.619c-0.492,0.151-1.046,0.228-1.666,0.228c-1.857,0-3.293-0.571-4.308-1.714
				c-1.015-1.143-1.521-2.718-1.521-4.723v-11.225h4.868v9.648c0,1.161,0.256,2.038,0.769,2.63c0.513,0.591,1.238,0.887,2.178,0.887
				s1.682-0.296,2.226-0.887c0.544-0.592,0.816-1.469,0.816-2.63v-9.648h4.868v17.338L323.305,118.296L323.305,118.296z"/>
			<path fill="#B2D499" d="M331.856,99.05v-4.366h5.124v4.366H331.856z M331.984,118.296v-17.338h4.868v17.338H331.984z"/>
			<path fill="#B2D499" d="M353.057,118.296v-2.469c-0.598,0.813-1.318,1.481-2.162,2.006c-0.844,0.524-1.906,0.786-3.187,0.786
				c-1.004,0-1.975-0.194-2.915-0.582c-0.94-0.388-1.772-0.965-2.498-1.73c-0.726-0.766-1.308-1.703-1.745-2.814
				c-0.438-1.11-0.657-2.388-0.657-3.833v-0.064c0-1.444,0.219-2.722,0.657-3.833c0.437-1.11,1.014-2.049,1.729-2.814
				c0.715-0.765,1.542-1.342,2.482-1.729c0.939-0.388,1.922-0.582,2.947-0.582c1.302,0,2.375,0.257,3.218,0.771
				c0.843,0.514,1.554,1.112,2.13,1.797v-8.519h4.868v23.612h-4.867V118.296z M353.121,109.595c0-0.717-0.112-1.373-0.336-1.97
				c-0.225-0.598-0.523-1.107-0.897-1.53c-0.374-0.424-0.812-0.749-1.313-0.978c-0.502-0.228-1.041-0.342-1.617-0.342
				c-0.577,0-1.116,0.114-1.618,0.342c-0.501,0.229-0.944,0.554-1.329,0.978c-0.384,0.423-0.688,0.928-0.913,1.514
				s-0.336,1.248-0.336,1.986v0.064c0,0.717,0.112,1.374,0.336,1.971c0.224,0.597,0.528,1.107,0.913,1.53
				c0.385,0.424,0.828,0.749,1.329,0.978c0.501,0.228,1.041,0.342,1.618,0.342c0.576,0,1.115-0.114,1.617-0.342
				c0.501-0.229,0.939-0.554,1.313-0.978c0.374-0.423,0.672-0.934,0.897-1.53c0.224-0.597,0.336-1.254,0.336-1.971V109.595z"/>
			<path fill="#B2D499" d="M371.567,118.296v-1.876c-0.598,0.669-1.313,1.202-2.146,1.601s-1.847,0.599-3.042,0.599
				c-0.812,0-1.575-0.113-2.29-0.34c-0.716-0.226-1.34-0.565-1.874-1.019c-0.534-0.454-0.956-1.008-1.265-1.666
				c-0.31-0.657-0.464-1.417-0.464-2.28v-0.064c0-0.949,0.171-1.768,0.513-2.458c0.341-0.69,0.816-1.262,1.425-1.715
				c0.609-0.453,1.334-0.792,2.178-1.019c0.844-0.227,1.778-0.34,2.802-0.34c0.875,0,1.639,0.064,2.29,0.194
				c0.651,0.129,1.286,0.302,1.906,0.518v-0.291c0-1.035-0.31-1.822-0.929-2.361c-0.62-0.539-1.538-0.809-2.754-0.809
				c-0.94,0-1.767,0.08-2.482,0.242c-0.716,0.162-1.468,0.394-2.258,0.695l-1.217-3.752c0.939-0.409,1.922-0.744,2.947-1.003
				c1.024-0.259,2.263-0.388,3.715-0.388c2.668,0,4.612,0.657,5.829,1.973c1.217,1.315,1.826,3.148,1.826,5.499v10.06H371.567z
				 M371.664,111.31c-0.427-0.194-0.902-0.351-1.425-0.47c-0.523-0.118-1.084-0.178-1.681-0.178c-1.046,0-1.869,0.205-2.466,0.614
				c-0.598,0.41-0.896,1.003-0.896,1.779v0.064c0,0.669,0.245,1.187,0.736,1.553c0.491,0.367,1.132,0.55,1.922,0.55
				c1.153,0,2.076-0.279,2.77-0.841c0.694-0.561,1.041-1.294,1.041-2.199L371.664,111.31L371.664,111.31z"/>
			<path fill="#B2D499" d="M392.063,118.296v-2.469c-0.598,0.813-1.318,1.481-2.162,2.006c-0.844,0.524-1.906,0.786-3.187,0.786
				c-1.004,0-1.975-0.194-2.915-0.582c-0.94-0.388-1.772-0.965-2.498-1.73c-0.726-0.766-1.308-1.703-1.745-2.814
				c-0.438-1.11-0.657-2.388-0.657-3.833v-0.064c0-1.444,0.219-2.722,0.657-3.833c0.437-1.11,1.014-2.049,1.729-2.814
				c0.715-0.765,1.542-1.342,2.482-1.729c0.939-0.388,1.922-0.582,2.947-0.582c1.302,0,2.375,0.257,3.218,0.771
				c0.843,0.514,1.554,1.112,2.13,1.797v-8.519h4.868v23.612h-4.867V118.296z M392.127,109.595c0-0.717-0.112-1.373-0.336-1.97
				c-0.225-0.598-0.523-1.107-0.897-1.53c-0.374-0.424-0.812-0.749-1.313-0.978c-0.502-0.228-1.041-0.342-1.617-0.342
				c-0.577,0-1.116,0.114-1.618,0.342c-0.501,0.229-0.944,0.554-1.329,0.978c-0.384,0.423-0.688,0.928-0.913,1.514
				s-0.336,1.248-0.336,1.986v0.064c0,0.717,0.112,1.374,0.336,1.971c0.224,0.597,0.528,1.107,0.913,1.53
				c0.385,0.424,0.828,0.749,1.329,0.978c0.501,0.228,1.041,0.342,1.618,0.342c0.576,0,1.115-0.114,1.617-0.342
				c0.501-0.229,0.939-0.554,1.313-0.978c0.374-0.423,0.672-0.934,0.897-1.53c0.224-0.597,0.336-1.254,0.336-1.971V109.595z"/>
			<path fill="#B2D499" d="M417.556,113.169c-0.47,1.089-1.121,2.043-1.954,2.862c-0.833,0.82-1.815,1.467-2.947,1.941
				c-1.132,0.474-2.37,0.711-3.715,0.711c-1.324,0-2.552-0.231-3.683-0.695c-1.132-0.463-2.108-1.1-2.93-1.908
				c-0.822-0.809-1.468-1.757-1.938-2.847c-0.47-1.088-0.705-2.259-0.705-3.509v-0.065c0-1.25,0.234-2.42,0.705-3.51
				c0.469-1.088,1.121-2.042,1.954-2.862c0.833-0.819,1.814-1.466,2.946-1.94c1.131-0.475,2.37-0.712,3.715-0.712
				c1.324,0,2.551,0.232,3.683,0.695c1.131,0.464,2.108,1.1,2.93,1.908c0.822,0.81,1.468,1.758,1.938,2.847
				c0.469,1.09,0.705,2.26,0.705,3.51v0.064C418.261,110.911,418.025,112.081,417.556,113.169z M413.457,109.66
				c0-0.646-0.107-1.256-0.32-1.827c-0.213-0.571-0.522-1.078-0.929-1.521c-0.406-0.441-0.886-0.792-1.441-1.051
				c-0.556-0.259-1.164-0.389-1.826-0.389c-0.705,0-1.329,0.124-1.874,0.372s-1.009,0.588-1.393,1.019
				c-0.384,0.432-0.678,0.934-0.881,1.505c-0.203,0.571-0.304,1.181-0.304,1.827v0.064c0,0.647,0.105,1.257,0.32,1.828
				c0.213,0.571,0.523,1.078,0.929,1.52c0.405,0.442,0.881,0.793,1.425,1.052c0.544,0.259,1.158,0.388,1.841,0.388
				c0.705,0,1.329-0.123,1.874-0.371c0.545-0.248,1.009-0.588,1.393-1.02c0.384-0.431,0.678-0.933,0.881-1.504
				c0.203-0.571,0.304-1.181,0.304-1.827L413.457,109.66L413.457,109.66z"/>
			<path fill="#B2D499" d="M447.227,113.493c-0.438,1.111-1.014,2.049-1.729,2.814c-0.715,0.765-1.542,1.343-2.482,1.73
				c-0.939,0.387-1.921,0.582-2.945,0.582c-1.304,0-2.375-0.257-3.22-0.771c-0.844-0.513-1.553-1.112-2.129-1.797v7.42h-4.867
				v-22.514h4.867v2.469c0.598-0.813,1.318-1.48,2.162-2.006c0.843-0.523,1.905-0.786,3.188-0.786c1.003,0,1.975,0.194,2.915,0.582
				c0.938,0.389,1.771,0.966,2.498,1.73c0.726,0.766,1.308,1.704,1.745,2.814c0.438,1.111,0.656,2.389,0.656,3.833v0.063
				C447.884,111.105,447.665,112.382,447.227,113.493z M443.016,109.595c0-0.717-0.111-1.373-0.336-1.97
				c-0.225-0.598-0.528-1.107-0.913-1.53c-0.384-0.424-0.828-0.749-1.328-0.978c-0.503-0.228-1.041-0.342-1.617-0.342
				s-1.116,0.114-1.617,0.342c-0.502,0.229-0.94,0.554-1.313,0.978c-0.374,0.423-0.673,0.933-0.896,1.53s-0.336,1.253-0.336,1.97
				v0.064c0,0.717,0.112,1.374,0.336,1.971c0.224,0.597,0.522,1.107,0.896,1.53c0.373,0.424,0.812,0.749,1.313,0.978
				c0.501,0.228,1.041,0.342,1.617,0.342s1.114-0.114,1.617-0.342c0.5-0.229,0.944-0.554,1.328-0.978
				c0.385-0.423,0.688-0.928,0.913-1.514c0.225-0.587,0.336-1.249,0.336-1.987V109.595z"/>
			<path fill="#B2D499" d="M467.74,113.169c-0.47,1.089-1.121,2.043-1.954,2.862c-0.833,0.82-1.815,1.467-2.947,1.941
				c-1.132,0.474-2.37,0.711-3.715,0.711c-1.324,0-2.552-0.231-3.683-0.695c-1.133-0.463-2.108-1.1-2.931-1.908
				c-0.822-0.809-1.468-1.757-1.938-2.847c-0.471-1.088-0.705-2.259-0.705-3.509v-0.065c0-1.25,0.234-2.42,0.705-3.51
				c0.469-1.088,1.121-2.042,1.954-2.862c0.833-0.819,1.813-1.466,2.945-1.94c1.132-0.475,2.37-0.712,3.716-0.712
				c1.323,0,2.551,0.232,3.683,0.695c1.131,0.464,2.108,1.1,2.93,1.908c0.822,0.81,1.468,1.758,1.938,2.847
				c0.469,1.09,0.705,2.26,0.705,3.51v0.064C468.444,110.911,468.209,112.081,467.74,113.169z M463.64,109.66
				c0-0.646-0.106-1.256-0.319-1.827s-0.523-1.078-0.93-1.521c-0.405-0.441-0.886-0.792-1.44-1.051
				c-0.557-0.259-1.164-0.389-1.826-0.389c-0.705,0-1.329,0.124-1.874,0.372s-1.009,0.588-1.393,1.019
				c-0.385,0.432-0.679,0.934-0.882,1.505c-0.202,0.571-0.304,1.181-0.304,1.827v0.064c0,0.647,0.106,1.257,0.32,1.828
				c0.213,0.571,0.522,1.078,0.929,1.52c0.405,0.442,0.881,0.793,1.425,1.052c0.544,0.259,1.158,0.388,1.841,0.388
				c0.705,0,1.329-0.123,1.875-0.371c0.545-0.248,1.009-0.588,1.393-1.02c0.384-0.431,0.678-0.933,0.881-1.504
				c0.203-0.571,0.304-1.181,0.304-1.827L463.64,109.66L463.64,109.66z"/>
			<path fill="#B2D499" d="M481.286,105.779c-1.623,0-2.898,0.496-3.827,1.487c-0.929,0.992-1.393,2.534-1.393,4.626v6.404h-4.868
				v-17.338h4.868v3.494c0.49-1.187,1.163-2.136,2.018-2.847c0.854-0.712,2.006-1.035,3.458-0.971v5.144L481.286,105.779
				L481.286,105.779z"/>
			<path fill="#B2D499" d="M492.719,99.05v-4.366h5.124v4.366H492.719z M492.847,118.296v-17.338h4.868v17.338H492.847z"/>
			<path fill="#B2D499" d="M512.382,118.296v-9.647c0-1.162-0.256-2.039-0.769-2.63c-0.514-0.592-1.239-0.888-2.179-0.888
				s-1.682,0.296-2.226,0.888c-0.544,0.591-0.816,1.468-0.816,2.63v9.647h-4.867v-17.338h4.867v2.479
				c0.277-0.368,0.581-0.722,0.913-1.059c0.331-0.337,0.699-0.635,1.105-0.896c0.405-0.261,0.854-0.467,1.345-0.619
				c0.491-0.152,1.045-0.229,1.665-0.229c1.857,0,3.293,0.571,4.309,1.715c1.014,1.143,1.521,2.717,1.521,4.722v11.225H512.382z"/>
			<path fill="#B2D499" d="M528.65,118.313c-0.62,0.183-1.334,0.274-2.146,0.274c-0.748,0-1.425-0.081-2.034-0.242
				c-0.607-0.162-1.132-0.447-1.568-0.857c-0.438-0.409-0.78-0.943-1.025-1.602c-0.246-0.657-0.368-1.492-0.368-2.507v-8.216h-2.05
				v-4.205h2.05v-4.431h4.868v4.431h4.036v4.205h-4.036v7.407c0,1.122,0.523,1.683,1.569,1.683c0.854,0,1.653-0.205,2.401-0.615
				v3.946C529.835,117.887,529.271,118.129,528.65,118.313z"/>
			<path fill="#B2D499" d="M548.747,110.727c-0.011,0.173-0.027,0.378-0.048,0.615h-11.946c0.234,1.121,0.72,1.968,1.457,2.539
				c0.737,0.571,1.649,0.857,2.738,0.857c0.811,0,1.537-0.141,2.178-0.421c0.641-0.28,1.302-0.733,1.986-1.358l2.786,2.49
				c-0.813,1.014-1.794,1.807-2.946,2.378c-1.153,0.571-2.509,0.856-4.067,0.856c-1.28,0-2.472-0.216-3.57-0.646
				c-1.101-0.431-2.051-1.046-2.852-1.844s-1.425-1.741-1.874-2.83c-0.449-1.089-0.672-2.302-0.672-3.639v-0.065
				c0-1.229,0.208-2.394,0.625-3.493c0.416-1.1,0.998-2.059,1.745-2.879c0.747-0.819,1.639-1.466,2.674-1.94
				c1.035-0.475,2.183-0.712,3.443-0.712c1.43,0,2.668,0.259,3.715,0.776c1.046,0.518,1.916,1.213,2.61,2.086
				c0.692,0.874,1.205,1.877,1.536,3.009c0.331,1.132,0.497,2.313,0.497,3.542v0.064
				C548.763,110.35,548.757,110.555,548.747,110.727z M542.87,105.6c-0.619-0.679-1.441-1.019-2.466-1.019
				c-1.025,0-1.854,0.335-2.482,1.003c-0.63,0.669-1.041,1.563-1.232,2.685h7.333C543.873,107.169,543.489,106.28,542.87,105.6z"/>
			<path fill="#B2D499" d="M551.709,99.05v-4.366h5.124v4.366H551.709z M551.837,118.296v-17.338h4.868v17.338H551.837z"/>
			<path fill="#B2D499" d="M570.604,105.779c-1.623,0-2.898,0.496-3.827,1.487c-0.93,0.992-1.394,2.534-1.394,4.626v6.404h-4.868
				v-17.338h4.868v3.494c0.491-1.187,1.163-2.136,2.019-2.847c0.854-0.712,2.006-1.035,3.458-0.971v5.144L570.604,105.779
				L570.604,105.779z"/>
			<path fill="#B2D499" d="M589.691,113.169c-0.471,1.089-1.121,2.043-1.954,2.862c-0.833,0.82-1.815,1.467-2.947,1.941
				c-1.132,0.474-2.37,0.711-3.715,0.711c-1.324,0-2.553-0.231-3.684-0.695c-1.132-0.463-2.107-1.1-2.93-1.908
				c-0.822-0.809-1.468-1.757-1.938-2.847c-0.471-1.088-0.705-2.259-0.705-3.509v-0.065c0-1.25,0.233-2.42,0.705-3.51
				c0.469-1.088,1.12-2.042,1.953-2.862c0.833-0.819,1.814-1.466,2.946-1.94c1.131-0.475,2.37-0.712,3.715-0.712
				c1.324,0,2.552,0.232,3.684,0.695c1.131,0.464,2.107,1.1,2.93,1.908c0.822,0.81,1.468,1.758,1.938,2.847
				c0.469,1.09,0.704,2.26,0.704,3.51v0.064C590.396,110.911,590.161,112.081,589.691,113.169z M585.592,109.66
				c0-0.646-0.106-1.256-0.319-1.827c-0.214-0.571-0.523-1.078-0.93-1.521c-0.406-0.441-0.886-0.792-1.44-1.051
				c-0.557-0.259-1.164-0.389-1.826-0.389c-0.705,0-1.329,0.124-1.874,0.372s-1.009,0.588-1.394,1.019
				c-0.384,0.432-0.678,0.934-0.881,1.505c-0.203,0.571-0.304,1.181-0.304,1.827v0.064c0,0.647,0.105,1.257,0.32,1.828
				c0.213,0.571,0.522,1.078,0.929,1.52c0.405,0.442,0.881,0.793,1.425,1.052c0.544,0.259,1.158,0.388,1.841,0.388
				c0.705,0,1.329-0.123,1.874-0.371c0.545-0.248,1.01-0.588,1.394-1.02c0.384-0.431,0.678-0.933,0.881-1.504
				c0.203-0.571,0.304-1.181,0.304-1.827L585.592,109.66L585.592,109.66z"/>
			<path fill="#B2D499" d="M592.317,118.296v-5.176h5.155v5.176H592.317z"/>
		</g>
	</g>
	<g>
		<rect x="25.977" y="166.542" fill="#B2D499" width="423.477" height="43"/>
		<g>
			<path fill="#055433" d="M53.823,198.415l-1.942-4.811h-8.98l-1.942,4.811h-4.763l9.102-21.603h4.308l9.102,21.603H53.823z
				 M47.391,182.481l-2.821,6.956h5.643L47.391,182.481z"/>
			<path fill="#055433" d="M77.229,193.864c-0.415,1.052-0.961,1.941-1.638,2.666c-0.678,0.725-1.461,1.271-2.351,1.639
				c-0.89,0.368-1.82,0.552-2.791,0.552c-1.234,0-2.25-0.244-3.049-0.73c-0.799-0.486-1.471-1.054-2.018-1.703v2.126H60.77v-22.369
				h4.611v8.284c0.566-0.77,1.249-1.403,2.048-1.9c0.799-0.497,1.805-0.745,3.019-0.745c0.95,0,1.87,0.184,2.761,0.552
				c0.89,0.368,1.678,0.914,2.366,1.639c0.688,0.726,1.239,1.614,1.653,2.666s0.622,2.263,0.622,3.631v0.062
				C77.851,191.602,77.643,192.813,77.229,193.864z M73.239,190.172c0-0.679-0.106-1.301-0.319-1.866s-0.5-1.048-0.864-1.45
				c-0.364-0.401-0.784-0.709-1.259-0.926c-0.476-0.216-0.986-0.324-1.532-0.324c-0.546,0-1.057,0.108-1.532,0.324
				c-0.476,0.216-0.891,0.524-1.244,0.926c-0.354,0.401-0.637,0.884-0.85,1.45c-0.213,0.566-0.318,1.188-0.318,1.866v0.062
				c0,0.679,0.106,1.301,0.318,1.867c0.212,0.566,0.496,1.048,0.85,1.45c0.354,0.401,0.769,0.709,1.244,0.925
				s0.986,0.324,1.532,0.324c0.546,0,1.057-0.108,1.532-0.324s0.895-0.524,1.259-0.925c0.364-0.401,0.652-0.879,0.864-1.435
				c0.212-0.556,0.319-1.183,0.319-1.882V190.172z"/>
			<path fill="#055433" d="M95.674,191.244c-0.011,0.164-0.026,0.358-0.046,0.583H84.313c0.222,1.063,0.683,1.864,1.38,2.405
				c0.698,0.542,1.563,0.812,2.594,0.812c0.769,0,1.457-0.133,2.063-0.398c0.607-0.265,1.233-0.694,1.881-1.287l2.64,2.359
				c-0.769,0.96-1.699,1.711-2.791,2.252c-1.092,0.541-2.377,0.812-3.853,0.812c-1.213,0-2.341-0.205-3.383-0.613
				c-1.042-0.408-1.941-0.991-2.7-1.747c-0.758-0.755-1.35-1.649-1.775-2.681c-0.424-1.031-0.637-2.18-0.637-3.447v-0.061
				c0-1.165,0.197-2.268,0.591-3.31c0.394-1.042,0.945-1.951,1.653-2.727c0.708-0.776,1.552-1.389,2.534-1.838
				c0.98-0.449,2.067-0.674,3.261-0.674c1.354,0,2.528,0.245,3.519,0.735c0.991,0.49,1.815,1.149,2.473,1.977
				c0.657,0.827,1.143,1.777,1.457,2.85c0.313,1.072,0.47,2.191,0.47,3.355v0.061C95.689,190.887,95.684,191.081,95.674,191.244z
				 M90.107,186.388c-0.587-0.644-1.365-0.965-2.336-0.965s-1.755,0.317-2.351,0.95c-0.597,0.633-0.986,1.481-1.168,2.543H91.2
				C91.058,187.874,90.693,187.031,90.107,186.388z"/>
			<path fill="#055433" d="M107.945,186.556c-1.537,0-2.746,0.47-3.625,1.41c-0.88,0.94-1.32,2.4-1.32,4.382v6.067h-4.611v-16.424
				H103v3.309c0.465-1.123,1.102-2.022,1.912-2.696c0.809-0.674,1.901-0.98,3.276-0.919v4.872L107.945,186.556L107.945,186.556z"/>
			<path fill="#055433" d="M117.866,198.43c-0.587,0.173-1.264,0.261-2.033,0.261c-0.708,0-1.35-0.077-1.926-0.23
				c-0.577-0.153-1.072-0.424-1.487-0.812c-0.415-0.388-0.738-0.894-0.971-1.517c-0.233-0.623-0.349-1.415-0.349-2.375v-7.783
				h-1.941v-3.983h1.941v-4.198h4.612v4.198h3.822v3.983h-3.822v7.017c0,1.063,0.495,1.594,1.486,1.594
				c0.809,0,1.567-0.194,2.275-0.583v3.738C118.989,198.027,118.453,198.256,117.866,198.43z"/>
			<path fill="#055433" d="M131.731,198.415v-1.777c-0.566,0.633-1.244,1.139-2.033,1.517c-0.789,0.377-1.75,0.567-2.882,0.567
				c-0.769,0-1.492-0.107-2.169-0.322c-0.678-0.215-1.27-0.537-1.775-0.965c-0.506-0.429-0.905-0.955-1.198-1.578
				s-0.44-1.343-0.44-2.16v-0.062c0-0.898,0.162-1.675,0.485-2.329c0.323-0.653,0.773-1.195,1.35-1.624
				c0.576-0.429,1.264-0.75,2.063-0.965c0.799-0.214,1.684-0.322,2.655-0.322c0.829,0,1.552,0.062,2.169,0.184
				c0.617,0.123,1.218,0.286,1.805,0.49v-0.276c0-0.98-0.293-1.726-0.88-2.237c-0.587-0.51-1.456-0.766-2.609-0.766
				c-0.891,0-1.674,0.077-2.352,0.23c-0.678,0.153-1.391,0.373-2.139,0.659l-1.153-3.554c0.89-0.388,1.82-0.705,2.791-0.95
				c0.971-0.245,2.144-0.368,3.52-0.368c2.528,0,4.369,0.624,5.521,1.869c1.153,1.246,1.729,2.983,1.729,5.209v9.53H131.731
				L131.731,198.415z M131.822,191.796c-0.405-0.184-0.854-0.332-1.35-0.444c-0.496-0.112-1.026-0.168-1.593-0.168
				c-0.991,0-1.77,0.194-2.336,0.582c-0.566,0.389-0.85,0.95-0.85,1.686v0.061c0,0.634,0.232,1.124,0.698,1.471
				c0.466,0.347,1.072,0.521,1.82,0.521c1.092,0,1.967-0.265,2.625-0.796c0.657-0.531,0.986-1.226,0.986-2.084V191.796
				L131.822,191.796z"/>
			<path fill="#055433" d="M157.336,198.415v-1.777c-0.566,0.633-1.244,1.139-2.033,1.517c-0.789,0.377-1.75,0.567-2.882,0.567
				c-0.769,0-1.492-0.107-2.169-0.322c-0.678-0.215-1.27-0.537-1.775-0.965c-0.506-0.429-0.905-0.955-1.198-1.578
				s-0.44-1.343-0.44-2.16v-0.062c0-0.898,0.162-1.675,0.485-2.329c0.323-0.653,0.773-1.195,1.35-1.624
				c0.576-0.429,1.264-0.75,2.063-0.965c0.799-0.214,1.684-0.322,2.655-0.322c0.829,0,1.552,0.062,2.169,0.184
				c0.617,0.123,1.218,0.286,1.805,0.49v-0.276c0-0.98-0.293-1.726-0.88-2.237c-0.587-0.51-1.456-0.766-2.609-0.766
				c-0.891,0-1.674,0.077-2.352,0.23c-0.678,0.153-1.391,0.373-2.139,0.659l-1.153-3.554c0.89-0.388,1.82-0.705,2.791-0.95
				c0.971-0.245,2.144-0.368,3.52-0.368c2.528,0,4.369,0.624,5.521,1.869c1.153,1.246,1.729,2.983,1.729,5.209v9.53H157.336
				L157.336,198.415z M157.427,191.796c-0.405-0.184-0.854-0.332-1.35-0.444c-0.496-0.112-1.026-0.168-1.593-0.168
				c-0.991,0-1.77,0.194-2.336,0.582c-0.566,0.389-0.85,0.95-0.85,1.686v0.061c0,0.634,0.232,1.124,0.698,1.471
				c0.466,0.347,1.072,0.521,1.82,0.521c1.092,0,1.967-0.265,2.625-0.796c0.657-0.531,0.986-1.226,0.986-2.084V191.796z"/>
			<path fill="#055433" d="M180.938,198.43c-0.587,0.173-1.264,0.261-2.033,0.261c-0.708,0-1.35-0.077-1.926-0.23
				c-0.577-0.153-1.072-0.424-1.487-0.812c-0.415-0.388-0.738-0.894-0.971-1.517s-0.349-1.415-0.349-2.375v-7.783h-1.941v-3.983
				h1.941v-4.198h4.612v4.198h3.822v3.983h-3.822v7.017c0,1.063,0.495,1.594,1.486,1.594c0.809,0,1.567-0.194,2.275-0.583v3.738
				C182.061,198.027,181.524,198.256,180.938,198.43z"/>
			<path fill="#055433" d="M201.417,193.558c-0.445,1.032-1.062,1.936-1.851,2.712c-0.789,0.777-1.719,1.39-2.792,1.838
				c-1.072,0.449-2.245,0.674-3.519,0.674c-1.254,0-2.417-0.22-3.489-0.659c-1.072-0.439-1.998-1.042-2.776-1.808
				c-0.779-0.766-1.391-1.665-1.835-2.696c-0.445-1.031-0.667-2.14-0.667-3.325v-0.061c0-1.185,0.222-2.293,0.667-3.325
				c0.444-1.031,1.062-1.936,1.851-2.712c0.789-0.776,1.719-1.389,2.791-1.838c1.072-0.449,2.245-0.674,3.519-0.674
				c1.254,0,2.417,0.22,3.489,0.659c1.072,0.438,1.997,1.042,2.776,1.808c0.778,0.766,1.39,1.665,1.835,2.696
				c0.445,1.032,0.667,2.14,0.667,3.325v0.062C202.084,191.418,201.861,192.526,201.417,193.558z M197.533,190.233
				c0-0.613-0.102-1.19-0.304-1.731s-0.496-1.021-0.879-1.44c-0.385-0.418-0.84-0.75-1.365-0.996
				c-0.526-0.245-1.103-0.368-1.729-0.368c-0.667,0-1.259,0.118-1.775,0.353c-0.516,0.235-0.956,0.557-1.32,0.965
				c-0.364,0.409-0.642,0.884-0.834,1.425c-0.192,0.542-0.288,1.119-0.288,1.731v0.062c0,0.613,0.101,1.19,0.303,1.731
				c0.202,0.542,0.495,1.022,0.88,1.44c0.384,0.419,0.834,0.75,1.35,0.996c0.516,0.245,1.097,0.368,1.744,0.368
				c0.667,0,1.259-0.117,1.775-0.352c0.516-0.235,0.956-0.557,1.32-0.965c0.364-0.409,0.642-0.883,0.834-1.425
				c0.192-0.541,0.288-1.119,0.288-1.731V190.233z"/>
			<path fill="#055433" d="M216.434,198.415v-2.339c-0.567,0.771-1.25,1.404-2.048,1.9c-0.799,0.497-1.805,0.745-3.019,0.745
				c-0.951,0-1.871-0.184-2.761-0.552s-1.679-0.914-2.366-1.639c-0.688-0.725-1.239-1.614-1.653-2.666
				c-0.415-1.052-0.622-2.262-0.622-3.631v-0.062c0-1.368,0.207-2.579,0.622-3.631c0.414-1.052,0.96-1.94,1.638-2.666
				c0.677-0.725,1.461-1.271,2.351-1.639c0.89-0.368,1.82-0.552,2.791-0.552c1.233,0,2.25,0.243,3.049,0.729
				c0.799,0.487,1.471,1.055,2.018,1.703v-8.07h4.611v22.369L216.434,198.415L216.434,198.415z M216.495,190.172
				c0-0.679-0.106-1.301-0.319-1.866c-0.213-0.565-0.496-1.048-0.849-1.45c-0.354-0.401-0.769-0.709-1.244-0.926
				c-0.475-0.216-0.986-0.324-1.532-0.324c-0.546,0-1.057,0.108-1.532,0.324c-0.476,0.216-0.895,0.524-1.259,0.926
				c-0.364,0.401-0.652,0.879-0.865,1.435c-0.212,0.555-0.318,1.182-0.318,1.881v0.062c0,0.679,0.106,1.301,0.318,1.867
				c0.212,0.565,0.501,1.048,0.865,1.45c0.364,0.401,0.784,0.709,1.259,0.925s0.986,0.324,1.532,0.324
				c0.546,0,1.057-0.108,1.532-0.324s0.89-0.524,1.244-0.925c0.354-0.401,0.637-0.884,0.849-1.45
				c0.212-0.566,0.319-1.188,0.319-1.867V190.172z"/>
			<path fill="#055433" d="M240.583,193.558c-0.445,1.032-1.062,1.936-1.851,2.712c-0.789,0.777-1.719,1.39-2.792,1.838
				c-1.072,0.449-2.245,0.674-3.519,0.674c-1.254,0-2.417-0.22-3.489-0.659c-1.072-0.439-1.998-1.042-2.776-1.808
				c-0.779-0.766-1.391-1.665-1.835-2.696c-0.445-1.031-0.667-2.14-0.667-3.325v-0.061c0-1.185,0.222-2.293,0.667-3.325
				c0.444-1.031,1.062-1.936,1.851-2.712c0.789-0.776,1.719-1.389,2.791-1.838c1.072-0.449,2.245-0.674,3.519-0.674
				c1.254,0,2.417,0.22,3.489,0.659c1.072,0.438,1.997,1.042,2.776,1.808c0.778,0.766,1.39,1.665,1.835,2.696
				c0.445,1.032,0.667,2.14,0.667,3.325v0.062C241.25,191.418,241.028,192.526,240.583,193.558z M236.7,190.233
				c0-0.613-0.102-1.19-0.304-1.731s-0.496-1.021-0.879-1.44c-0.385-0.418-0.84-0.75-1.365-0.996
				c-0.526-0.245-1.103-0.368-1.729-0.368c-0.667,0-1.259,0.118-1.775,0.353c-0.516,0.235-0.956,0.557-1.32,0.965
				c-0.364,0.409-0.642,0.884-0.834,1.425c-0.192,0.542-0.288,1.119-0.288,1.731v0.062c0,0.613,0.101,1.19,0.303,1.731
				c0.202,0.542,0.495,1.022,0.88,1.44c0.384,0.419,0.834,0.75,1.35,0.996c0.516,0.245,1.097,0.368,1.744,0.368
				c0.667,0,1.259-0.117,1.775-0.352c0.516-0.235,0.956-0.557,1.32-0.965c0.364-0.409,0.642-0.883,0.834-1.425
				c0.192-0.541,0.288-1.119,0.288-1.731V190.233z"/>
			<path fill="#055433" d="M255.312,195.794c-0.313,0.665-0.753,1.21-1.319,1.64c-0.567,0.429-1.229,0.75-1.987,0.965
				c-0.759,0.214-1.573,0.322-2.442,0.322c-1.153,0-2.331-0.199-3.534-0.598c-1.204-0.398-2.352-1.026-3.444-1.885l1.972-3.064
				c0.89,0.654,1.775,1.144,2.655,1.471s1.704,0.49,2.473,0.49c0.667,0,1.157-0.112,1.471-0.337c0.313-0.225,0.47-0.521,0.47-0.889
				v-0.061c0-0.245-0.091-0.46-0.273-0.644s-0.43-0.342-0.743-0.475c-0.314-0.133-0.673-0.26-1.077-0.383
				c-0.405-0.123-0.83-0.255-1.274-0.398c-0.566-0.164-1.138-0.362-1.714-0.598c-0.577-0.234-1.098-0.541-1.563-0.919
				c-0.465-0.377-0.845-0.842-1.138-1.394c-0.293-0.551-0.44-1.226-0.44-2.022v-0.061c0-0.837,0.156-1.578,0.47-2.222
				c0.313-0.644,0.738-1.189,1.274-1.639c0.536-0.449,1.163-0.786,1.881-1.011c0.718-0.225,1.491-0.337,2.321-0.337
				c1.032,0,2.078,0.168,3.14,0.505c1.062,0.337,2.038,0.802,2.928,1.394l-1.76,3.218c-0.809-0.47-1.598-0.843-2.366-1.119
				c-0.769-0.276-1.446-0.414-2.033-0.414c-0.566,0-0.991,0.107-1.274,0.322c-0.283,0.214-0.425,0.485-0.425,0.812v0.061
				c0,0.225,0.091,0.424,0.273,0.598c0.182,0.174,0.425,0.337,0.729,0.49c0.303,0.153,0.652,0.302,1.046,0.444
				c0.395,0.143,0.814,0.286,1.259,0.429c0.566,0.184,1.142,0.403,1.729,0.659c0.586,0.255,1.112,0.567,1.578,0.935
				c0.466,0.368,0.85,0.817,1.153,1.348c0.304,0.531,0.455,1.175,0.455,1.931v0.061
				C255.782,194.339,255.625,195.131,255.312,195.794z"/>
			<path fill="#055433" d="M282.874,193.558c-0.445,1.032-1.062,1.936-1.851,2.712c-0.789,0.777-1.719,1.39-2.792,1.838
				c-1.072,0.449-2.245,0.674-3.519,0.674c-1.254,0-2.417-0.22-3.489-0.659c-1.072-0.439-1.998-1.042-2.776-1.808
				c-0.779-0.766-1.391-1.665-1.835-2.696c-0.445-1.031-0.667-2.14-0.667-3.325v-0.061c0-1.185,0.222-2.293,0.667-3.325
				c0.444-1.031,1.062-1.936,1.851-2.712c0.789-0.776,1.719-1.389,2.791-1.838c1.072-0.449,2.245-0.674,3.519-0.674
				c1.254,0,2.417,0.22,3.489,0.659c1.072,0.438,1.997,1.042,2.776,1.808c0.778,0.766,1.39,1.665,1.835,2.696
				c0.445,1.032,0.667,2.14,0.667,3.325v0.062C283.541,191.418,283.318,192.526,282.874,193.558z M278.99,190.233
				c0-0.613-0.102-1.19-0.304-1.731s-0.496-1.021-0.879-1.44c-0.385-0.418-0.84-0.75-1.365-0.996
				c-0.526-0.245-1.103-0.368-1.729-0.368c-0.667,0-1.259,0.118-1.775,0.353c-0.516,0.235-0.956,0.557-1.32,0.965
				c-0.364,0.409-0.642,0.884-0.834,1.425c-0.192,0.542-0.288,1.119-0.288,1.731v0.062c0,0.613,0.101,1.19,0.303,1.731
				c0.202,0.542,0.495,1.022,0.88,1.44c0.384,0.419,0.834,0.75,1.35,0.996c0.516,0.245,1.097,0.368,1.744,0.368
				c0.667,0,1.259-0.117,1.775-0.352c0.516-0.235,0.956-0.557,1.32-0.965c0.364-0.409,0.642-0.883,0.834-1.425
				c0.192-0.541,0.288-1.119,0.288-1.731V190.233L278.99,190.233z"/>
			<path fill="#055433" d="M297.603,195.794c-0.313,0.665-0.753,1.21-1.319,1.64c-0.567,0.429-1.229,0.75-1.987,0.965
				c-0.759,0.214-1.573,0.322-2.442,0.322c-1.153,0-2.331-0.199-3.534-0.598c-1.204-0.398-2.352-1.026-3.444-1.885l1.972-3.064
				c0.89,0.654,1.775,1.144,2.655,1.471s1.704,0.49,2.473,0.49c0.667,0,1.157-0.112,1.471-0.337c0.313-0.225,0.47-0.521,0.47-0.889
				v-0.061c0-0.245-0.091-0.46-0.273-0.644s-0.43-0.342-0.743-0.475c-0.314-0.133-0.673-0.26-1.077-0.383
				c-0.405-0.123-0.83-0.255-1.274-0.398c-0.566-0.164-1.138-0.362-1.714-0.598c-0.577-0.234-1.098-0.541-1.563-0.919
				c-0.465-0.377-0.845-0.842-1.138-1.394c-0.293-0.551-0.44-1.226-0.44-2.022v-0.061c0-0.837,0.156-1.578,0.47-2.222
				c0.313-0.644,0.738-1.189,1.274-1.639c0.536-0.449,1.163-0.786,1.881-1.011c0.718-0.225,1.491-0.337,2.321-0.337
				c1.032,0,2.078,0.168,3.14,0.505s2.038,0.802,2.928,1.394l-1.76,3.218c-0.809-0.47-1.598-0.843-2.366-1.119
				c-0.769-0.276-1.446-0.414-2.033-0.414c-0.566,0-0.991,0.107-1.274,0.322c-0.283,0.214-0.425,0.485-0.425,0.812v0.061
				c0,0.225,0.091,0.424,0.273,0.598c0.182,0.174,0.425,0.337,0.729,0.49c0.303,0.153,0.652,0.302,1.046,0.444
				c0.395,0.143,0.814,0.286,1.259,0.429c0.566,0.184,1.142,0.403,1.729,0.659c0.586,0.255,1.112,0.567,1.578,0.935
				c0.466,0.368,0.85,0.817,1.153,1.348c0.304,0.531,0.455,1.175,0.455,1.931v0.061
				C298.073,194.339,297.916,195.131,297.603,195.794z"/>
			<path fill="#055433" d="M325.483,193.864c-0.415,1.052-0.961,1.941-1.638,2.666c-0.678,0.725-1.461,1.271-2.351,1.639
				c-0.89,0.368-1.82,0.552-2.791,0.552c-1.234,0-2.25-0.244-3.049-0.73c-0.799-0.486-1.471-1.054-2.018-1.703v7.029h-4.611V181.99
				h4.611v2.339c0.566-0.77,1.249-1.403,2.048-1.9c0.799-0.497,1.805-0.745,3.019-0.745c0.95,0,1.87,0.184,2.761,0.552
				c0.89,0.368,1.678,0.914,2.366,1.639c0.688,0.726,1.239,1.614,1.653,2.666c0.414,1.052,0.622,2.263,0.622,3.631v0.062
				C326.105,191.602,325.898,192.813,325.483,193.864z M321.494,190.172c0-0.679-0.106-1.301-0.319-1.866
				c-0.213-0.565-0.5-1.048-0.864-1.45c-0.364-0.401-0.784-0.709-1.259-0.926c-0.476-0.216-0.986-0.324-1.532-0.324
				s-1.057,0.108-1.532,0.324c-0.476,0.216-0.891,0.524-1.244,0.926c-0.354,0.401-0.637,0.884-0.85,1.45
				c-0.213,0.566-0.318,1.188-0.318,1.866v0.062c0,0.679,0.106,1.301,0.318,1.867s0.496,1.048,0.85,1.45
				c0.354,0.401,0.769,0.709,1.244,0.925c0.475,0.216,0.986,0.324,1.532,0.324s1.057-0.108,1.532-0.324
				c0.475-0.216,0.895-0.524,1.259-0.925c0.364-0.401,0.652-0.879,0.864-1.435c0.212-0.556,0.319-1.183,0.319-1.882V190.172z"/>
			<path fill="#055433" d="M338.938,198.415v-2.348c-0.263,0.35-0.551,0.685-0.865,1.003c-0.314,0.319-0.663,0.602-1.047,0.849
				c-0.384,0.247-0.809,0.442-1.274,0.586c-0.466,0.144-0.991,0.216-1.578,0.216c-1.76,0-3.12-0.541-4.081-1.624
				c-0.961-1.083-1.441-2.574-1.441-4.474v-10.632h4.611v9.139c0,1.101,0.243,1.932,0.728,2.492c0.485,0.56,1.173,0.84,2.063,0.84
				c0.89,0,1.593-0.28,2.108-0.84c0.516-0.56,0.774-1.391,0.774-2.492v-9.139h4.611v16.424H338.938z M333.902,180.183l3.428-5.423
				l3.974,1.747l-3.883,3.677L333.902,180.183L333.902,180.183z"/>
			<path fill="#055433" d="M363.405,193.864c-0.415,1.052-0.961,1.941-1.638,2.666c-0.678,0.725-1.461,1.271-2.351,1.639
				s-1.82,0.552-2.791,0.552c-1.234,0-2.25-0.244-3.049-0.73c-0.799-0.486-1.471-1.054-2.018-1.703v2.126h-4.611v-22.369h4.611
				v8.284c0.566-0.77,1.249-1.403,2.048-1.9s1.805-0.745,3.019-0.745c0.95,0,1.87,0.184,2.761,0.552
				c0.89,0.368,1.678,0.914,2.366,1.639c0.688,0.726,1.239,1.614,1.653,2.666c0.414,1.052,0.622,2.263,0.622,3.631v0.062
				C364.027,191.602,363.82,192.813,363.405,193.864z M359.416,190.172c0-0.679-0.106-1.301-0.319-1.866
				c-0.213-0.565-0.5-1.048-0.864-1.45c-0.364-0.401-0.784-0.709-1.259-0.926c-0.476-0.216-0.986-0.324-1.532-0.324
				s-1.057,0.108-1.532,0.324c-0.476,0.216-0.891,0.524-1.244,0.926c-0.354,0.401-0.637,0.884-0.85,1.45
				c-0.213,0.566-0.318,1.188-0.318,1.866v0.062c0,0.679,0.106,1.301,0.318,1.867s0.496,1.048,0.85,1.45
				c0.354,0.401,0.769,0.709,1.244,0.925c0.475,0.216,0.986,0.324,1.532,0.324s1.057-0.108,1.532-0.324s0.895-0.524,1.259-0.925
				c0.364-0.401,0.652-0.879,0.864-1.435c0.212-0.556,0.319-1.183,0.319-1.882V190.172z"/>
			<path fill="#055433" d="M366.909,198.415v-22.369h4.611v22.369H366.909z"/>
			<path fill="#055433" d="M375.221,180.183v-4.137h4.854v4.137H375.221z M375.343,198.415v-16.424h4.611v16.424H375.343z"/>
			<path fill="#055433" d="M395.184,197.939c-1.012,0.562-2.326,0.843-3.944,0.843c-1.214,0-2.341-0.225-3.383-0.674
				c-1.042-0.449-1.937-1.057-2.685-1.823c-0.749-0.766-1.335-1.665-1.76-2.697c-0.424-1.031-0.637-2.129-0.637-3.294v-0.061
				c0-1.165,0.212-2.268,0.637-3.31c0.425-1.042,1.011-1.951,1.76-2.727c0.748-0.776,1.643-1.389,2.685-1.838
				c1.042-0.449,2.189-0.674,3.443-0.674c1.537,0,2.811,0.245,3.823,0.735c1.011,0.49,1.901,1.165,2.669,2.022l-2.821,3.064
				c-0.526-0.551-1.067-0.99-1.623-1.317c-0.557-0.327-1.249-0.49-2.078-0.49c-0.587,0-1.118,0.118-1.593,0.353
				c-0.476,0.235-0.89,0.557-1.244,0.965c-0.354,0.409-0.627,0.884-0.819,1.425c-0.192,0.542-0.288,1.119-0.288,1.731v0.062
				c0,0.633,0.096,1.226,0.288,1.777c0.192,0.552,0.47,1.032,0.834,1.44c0.364,0.409,0.799,0.73,1.305,0.965
				c0.505,0.235,1.072,0.352,1.699,0.352c0.768,0,1.441-0.158,2.018-0.475c0.576-0.317,1.147-0.74,1.714-1.272l2.7,2.758
				C397.095,196.658,396.195,197.378,395.184,197.939z"/>
			<path fill="#055433" d="M416.299,193.558c-0.445,1.032-1.062,1.936-1.851,2.712c-0.789,0.777-1.719,1.39-2.792,1.838
				c-1.072,0.449-2.245,0.674-3.52,0.674c-1.254,0-2.417-0.22-3.489-0.659s-1.998-1.042-2.776-1.808
				c-0.779-0.766-1.391-1.665-1.835-2.696c-0.445-1.031-0.667-2.14-0.667-3.325v-0.061c0-1.185,0.222-2.293,0.667-3.325
				c0.444-1.031,1.062-1.936,1.851-2.712c0.789-0.776,1.719-1.389,2.791-1.838c1.072-0.449,2.245-0.674,3.52-0.674
				c1.254,0,2.417,0.22,3.489,0.659c1.072,0.438,1.997,1.042,2.776,1.808c0.778,0.766,1.39,1.665,1.835,2.696
				c0.445,1.032,0.667,2.14,0.667,3.325v0.062C416.966,191.418,416.744,192.526,416.299,193.558z M412.416,190.233
				c0-0.613-0.102-1.19-0.304-1.731c-0.202-0.541-0.496-1.021-0.879-1.44c-0.385-0.418-0.84-0.75-1.365-0.996
				c-0.526-0.245-1.103-0.368-1.729-0.368c-0.667,0-1.259,0.118-1.775,0.353c-0.516,0.235-0.956,0.557-1.32,0.965
				c-0.364,0.409-0.642,0.884-0.834,1.425c-0.192,0.542-0.288,1.119-0.288,1.731v0.062c0,0.613,0.101,1.19,0.303,1.731
				c0.202,0.542,0.495,1.022,0.88,1.44c0.384,0.419,0.834,0.75,1.35,0.996c0.516,0.245,1.097,0.368,1.744,0.368
				c0.667,0,1.259-0.117,1.775-0.352s0.956-0.557,1.32-0.965c0.364-0.409,0.642-0.883,0.834-1.425
				c0.192-0.541,0.288-1.119,0.288-1.731V190.233z"/>
			<path fill="#055433" d="M431.028,195.794c-0.313,0.665-0.753,1.21-1.319,1.64c-0.567,0.429-1.229,0.75-1.987,0.965
				c-0.759,0.214-1.572,0.322-2.441,0.322c-1.153,0-2.331-0.199-3.534-0.598c-1.204-0.398-2.352-1.026-3.444-1.885l1.972-3.064
				c0.89,0.654,1.775,1.144,2.655,1.471s1.704,0.49,2.474,0.49c0.667,0,1.156-0.112,1.471-0.337c0.313-0.225,0.47-0.521,0.47-0.889
				v-0.061c0-0.245-0.091-0.46-0.272-0.644c-0.183-0.184-0.431-0.342-0.743-0.475c-0.314-0.133-0.673-0.26-1.077-0.383
				c-0.405-0.123-0.83-0.255-1.274-0.398c-0.565-0.164-1.138-0.362-1.714-0.598c-0.577-0.234-1.098-0.541-1.563-0.919
				c-0.465-0.377-0.845-0.842-1.138-1.394c-0.293-0.551-0.44-1.226-0.44-2.022v-0.061c0-0.837,0.156-1.578,0.47-2.222
				c0.313-0.644,0.738-1.189,1.274-1.639c0.536-0.449,1.163-0.786,1.881-1.011s1.491-0.337,2.321-0.337
				c1.031,0,2.078,0.168,3.14,0.505s2.038,0.802,2.928,1.394l-1.76,3.218c-0.809-0.47-1.598-0.843-2.366-1.119
				c-0.769-0.276-1.445-0.414-2.033-0.414c-0.565,0-0.99,0.107-1.273,0.322c-0.283,0.214-0.425,0.485-0.425,0.812v0.061
				c0,0.225,0.091,0.424,0.272,0.598c0.183,0.174,0.426,0.337,0.729,0.49c0.303,0.153,0.651,0.302,1.046,0.444
				c0.395,0.143,0.813,0.286,1.259,0.429c0.566,0.184,1.142,0.403,1.729,0.659c0.586,0.255,1.111,0.567,1.578,0.935
				c0.466,0.368,0.85,0.817,1.152,1.348c0.305,0.531,0.455,1.175,0.455,1.931v0.061
				C431.498,194.339,431.341,195.131,431.028,195.794z"/>
			<path fill="#055433" d="M433.896,198.415v-4.903h4.885v4.903H433.896z"/>
		</g>
	</g>
</g>
</svg>
