<?xml version="1.0" encoding="utf-8"?>
<!-- Generator: Adobe Illustrator 25.4.1, SVG Export Plug-In . SVG Version: 6.00 Build 0)  -->
<svg version="1.1" id="Camada_1" xmlns="http://www.w3.org/2000/svg" xmlns:xlink="http://www.w3.org/1999/xlink" x="0px" y="0px"
	 viewBox="0 0 195 74" style="enable-background:new 0 0 195 74;" xml:space="preserve">
<style type="text/css">
	.st0{fill:#FFFFFF;}
	.st1{clip-path:url(#SVGID_00000029038273063360013490000006850925463653680257_);}
	.st2{fill:url(#SVGID_00000147193917171085474850000010801212478061935003_);}
	.st3{clip-path:url(#SVGID_00000163042292256819005880000009246829173341015738_);}
	.st4{fill:url(#SVGID_00000175296868088157369570000018271645295447723933_);}
	.st5{clip-path:url(#SVGID_00000049212929188293781030000011012091580919257791_);}
	.st6{fill:url(#SVGID_00000068673524199053082210000001962277409258470030_);}
	.st7{clip-path:url(#SVGID_00000140716448800646361150000010576117688462604948_);}
	.st8{fill:url(#SVGID_00000036946708826142482780000012670849505850235539_);}
	.st9{clip-path:url(#SVGID_00000038407264003554994790000016119893486386254743_);}
	.st10{fill:url(#SVGID_00000131334935198105617240000000048782202979305349_);}
</style>
<g id="Camada_2_00000096758523180927607630000010247951106094549148_">
	<g id="Camada_1-2">
		<path class="st0" d="M73.8,24.2h5.9c0.8,0,1.6,0.1,2.3,0.3c0.6,0.2,1.3,0.5,1.8,0.9c0.5,0.4,0.9,0.9,1.1,1.5
			c0.3,0.6,0.4,1.3,0.4,2l0,0c0,0.7-0.1,1.5-0.4,2.1c-0.3,0.6-0.7,1.1-1.2,1.5c-0.5,0.4-1.2,0.7-1.8,0.9c-0.8,0.2-1.5,0.3-2.3,0.3
			h-1.9v3.9h-3.8V24.2z M79.4,31c0.6,0,1.1-0.1,1.6-0.5c0.4-0.3,0.6-0.8,0.6-1.3l0,0c0-0.5-0.2-1-0.6-1.3c-0.5-0.3-1-0.5-1.6-0.5
			h-1.8V31L79.4,31z"/>
		<path class="st0" d="M90.2,24.1h3.7l5.8,13.7h-4.1l-1-2.5h-5.3l-1,2.5h-4L90.2,24.1z M93.5,32.4L92,28.6l-1.5,3.8H93.5z"/>
		<path class="st0" d="M100.5,24.2h6.4c0.9,0,1.8,0.1,2.7,0.4c0.7,0.2,1.3,0.6,1.8,1.1c0.8,0.8,1.3,2,1.2,3.2l0,0
			c0,0.9-0.2,1.9-0.8,2.6c-0.5,0.7-1.2,1.2-2,1.6l3.2,4.8h-4.4l-2.8-4.1h-1.7v4.1h-3.8V24.2z M106.8,30.7c0.5,0,1.1-0.1,1.5-0.5
			c0.4-0.3,0.5-0.7,0.5-1.2l0,0c0-0.5-0.2-0.9-0.6-1.2c-0.4-0.3-1-0.4-1.5-0.4h-2.5v3.3L106.8,30.7z"/>
		<path class="st0" d="M126.6,38.3l-1.5-1.3c-0.6,0.4-1.2,0.7-1.9,0.9c-0.7,0.2-1.5,0.3-2.2,0.3c-1,0-2-0.2-2.9-0.6
			c-0.9-0.3-1.7-0.9-2.3-1.5c-0.7-0.6-1.2-1.4-1.5-2.2c-0.4-0.9-0.6-1.8-0.6-2.7l0,0c0-0.9,0.2-1.9,0.6-2.8c0.4-0.8,0.9-1.6,1.6-2.3
			c0.7-0.7,1.5-1.2,2.3-1.5c1.9-0.7,4-0.7,5.8,0c0.9,0.4,1.6,0.9,2.3,1.5c0.6,0.6,1.1,1.4,1.5,2.2c0.4,0.9,0.6,1.8,0.6,2.7l0,0
			c0,0.7-0.1,1.4-0.3,2.1c-0.2,0.7-0.5,1.3-0.9,1.8l1.4,1.2L126.6,38.3z M121,34.8c0.5,0,0.9-0.1,1.4-0.2l-1.9-1.6l1.9-2.1l1.8,1.7
			c0.2-0.4,0.2-0.9,0.2-1.4l0,0c0-0.5-0.1-1-0.2-1.4c-0.2-0.4-0.4-0.8-0.7-1.2c-0.3-0.3-0.7-0.6-1.1-0.8c-0.4-0.2-0.9-0.3-1.4-0.3
			c-0.5,0-1,0.1-1.4,0.3c-0.4,0.2-0.8,0.5-1.1,0.8c-0.6,0.7-1,1.6-1,2.6l0,0c0,0.5,0.1,1,0.2,1.4c0.2,0.4,0.4,0.8,0.7,1.2
			c0.3,0.3,0.7,0.6,1.1,0.8C119.9,34.7,120.4,34.8,121,34.8"/>
		<path class="st0" d="M135.9,38.1c-0.9,0-1.8-0.1-2.6-0.4c-0.7-0.2-1.4-0.6-2-1.1c-0.6-0.5-1-1.2-1.2-2c-0.3-0.9-0.5-1.8-0.4-2.8
			v-7.7h3.8v7.6c-0.1,0.8,0.2,1.6,0.7,2.2c0.5,0.5,1.1,0.8,1.8,0.7c0.7,0,1.4-0.2,1.9-0.7c0.5-0.6,0.7-1.4,0.7-2.1v-7.7h3.8v7.6
			c0,1-0.1,1.9-0.4,2.8c-0.3,0.8-0.7,1.4-1.3,2c-0.6,0.5-1.3,0.9-2,1.2C137.6,38,136.8,38.1,135.9,38.1"/>
		<polygon class="st0" points="144,24.2 155,24.2 155,27.4 147.8,27.4 147.8,29.5 154.3,29.5 154.3,32.4 147.8,32.4 147.8,34.6 
			155.1,34.6 155.1,37.8 144,37.8 		"/>
		<polygon class="st0" points="73.8,42.4 84.8,42.4 84.8,45.6 77.6,45.6 77.6,47.7 84.1,47.7 84.1,50.7 77.6,50.7 77.6,52.9 
			84.9,52.9 84.9,56.1 73.8,56.1 		"/>
		<path class="st0" d="M91.7,56.3c-1.2,0-2.4-0.2-3.5-0.6c-1.1-0.4-2.1-0.9-2.9-1.7l2.1-2.5c1.2,1,2.8,1.6,4.4,1.6
			c0.4,0,0.8-0.1,1.2-0.2c0.2-0.1,0.4-0.4,0.4-0.7l0,0c0-0.1,0-0.3-0.1-0.4c-0.1-0.1-0.2-0.3-0.4-0.3c-0.2-0.1-0.5-0.2-0.7-0.3
			c-0.3-0.1-0.7-0.2-1.2-0.3c-0.7-0.2-1.4-0.3-2-0.6c-0.6-0.2-1.1-0.4-1.6-0.8c-0.4-0.3-0.8-0.7-1.1-1.2c-0.3-0.5-0.4-1.1-0.4-1.8
			l0,0c0-0.6,0.1-1.2,0.4-1.8c0.2-0.5,0.6-1,1.1-1.4c0.5-0.4,1.1-0.7,1.7-0.9c0.7-0.2,1.5-0.3,2.2-0.3c1.1,0,2.1,0.1,3.1,0.5
			c0.9,0.3,1.8,0.8,2.5,1.3L95,46.7c-0.6-0.4-1.2-0.8-1.9-1c-0.6-0.2-1.3-0.3-1.9-0.3c-0.3,0-0.7,0.1-1,0.2
			c-0.2,0.1-0.3,0.4-0.3,0.6l0,0c0,0.1,0,0.3,0.1,0.4c0.1,0.1,0.2,0.3,0.4,0.3c0.2,0.1,0.5,0.2,0.7,0.3c0.3,0.1,0.7,0.2,1.2,0.3
			c0.7,0.1,1.4,0.3,2.1,0.6c0.6,0.2,1.1,0.5,1.6,0.8c0.4,0.3,0.8,0.7,1,1.2c0.2,0.5,0.4,1.1,0.3,1.7l0,0c0,0.6-0.1,1.3-0.4,1.9
			c-0.3,0.5-0.6,1-1.1,1.4c-0.5,0.4-1.1,0.7-1.7,0.9C93.3,56.2,92.5,56.3,91.7,56.3"/>
		<path class="st0" d="M98.6,42.4h5.9c0.8,0,1.6,0.1,2.3,0.3c0.6,0.2,1.3,0.5,1.8,0.9c0.5,0.4,0.9,0.9,1.1,1.5
			c0.3,0.6,0.4,1.3,0.4,2l0,0c0,0.7-0.1,1.5-0.4,2.1c-0.3,0.6-0.7,1.1-1.2,1.5c-0.5,0.4-1.2,0.7-1.8,0.9c-0.8,0.2-1.5,0.3-2.3,0.3
			h-1.9v4h-3.8V42.4z M104.2,49.2c0.6,0,1.1-0.1,1.6-0.5c0.4-0.3,0.6-0.8,0.6-1.3l0,0c0-0.5-0.2-1-0.6-1.3c-0.5-0.3-1-0.5-1.6-0.5
			h-1.8v3.6L104.2,49.2z"/>
		<path class="st0" d="M118.1,56.3c-1,0-2-0.2-2.9-0.6c-0.9-0.3-1.7-0.9-2.3-1.5c-0.7-0.6-1.2-1.4-1.5-2.2c-0.4-0.9-0.6-1.8-0.6-2.8
			l0,0c0-0.9,0.2-1.9,0.6-2.8c0.4-0.8,0.9-1.6,1.5-2.2c0.7-0.6,1.5-1.2,2.3-1.5c1.9-0.7,4-0.7,5.8,0c0.9,0.4,1.7,0.9,2.3,1.5
			c0.7,0.6,1.2,1.4,1.5,2.2c0.4,0.9,0.6,1.8,0.6,2.7l0,0c0,1.9-0.7,3.7-2.1,5c-0.7,0.7-1.5,1.2-2.3,1.5
			C120.1,56.2,119.1,56.3,118.1,56.3 M118.1,52.9c0.5,0,1-0.1,1.4-0.3c0.4-0.2,0.8-0.5,1.1-0.8c0.3-0.3,0.5-0.7,0.7-1.2
			c0.2-0.4,0.3-0.9,0.3-1.4l0,0c0-0.5-0.1-1-0.3-1.4c-0.2-0.4-0.4-0.8-0.7-1.2c-0.3-0.3-0.7-0.6-1.1-0.8c-0.9-0.4-1.9-0.4-2.8,0
			c-0.4,0.2-0.8,0.5-1.1,0.8c-0.6,0.7-1,1.6-1,2.6l0,0c0,0.5,0.1,1,0.2,1.4c0.2,0.4,0.4,0.8,0.7,1.2c0.3,0.3,0.7,0.6,1.1,0.8
			C117.1,52.8,117.6,52.9,118.1,52.9"/>
		<path class="st0" d="M126.9,42.4h6.4c0.9,0,1.8,0.1,2.7,0.4c0.7,0.2,1.3,0.6,1.8,1.1c0.8,0.8,1.3,2,1.2,3.2l0,0
			c0,0.9-0.2,1.8-0.8,2.6c-0.5,0.7-1.2,1.2-2,1.6l3.3,4.8h-4.4l-2.8-4.1h-1.7v4.2h-3.8V42.4z M133.2,49c0.5,0,1.1-0.1,1.5-0.4
			c0.4-0.3,0.6-0.7,0.5-1.2l0,0c0-0.5-0.2-0.9-0.6-1.2c-0.4-0.3-1-0.4-1.5-0.4h-2.5V49L133.2,49z"/>
		<polygon class="st0" points="143.8,45.7 139.7,45.7 139.7,42.4 151.7,42.4 151.7,45.7 147.6,45.7 147.6,56.1 143.8,56.1 		"/>
		<rect x="152.9" y="42.4" class="st0" width="3.8" height="13.6"/>
		<polygon class="st0" points="157.6,42.4 161.8,42.4 164.9,51.1 168.1,42.4 172.2,42.4 166.7,56.2 163.2,56.2 		"/>
		<path class="st0" d="M179,56.3c-1,0-2-0.2-2.9-0.6c-0.9-0.4-1.7-0.9-2.3-1.5c-0.7-0.6-1.2-1.4-1.5-2.2c-0.4-0.9-0.6-1.8-0.5-2.8
			l0,0c0-0.9,0.2-1.9,0.6-2.8c0.4-0.8,0.9-1.6,1.5-2.2c2.2-2,5.4-2.6,8.2-1.5c0.9,0.4,1.6,0.9,2.3,1.5c0.7,0.6,1.2,1.4,1.5,2.2
			c0.4,0.9,0.6,1.8,0.6,2.7l0,0c0,1.9-0.7,3.7-2.1,5c-0.7,0.7-1.5,1.2-2.3,1.5C181,56.2,180,56.3,179,56.3 M179,52.9
			c0.5,0,1-0.1,1.4-0.3c0.4-0.2,0.8-0.5,1.1-0.8c0.3-0.3,0.5-0.7,0.7-1.2c0.2-0.4,0.3-0.9,0.2-1.4l0,0c0-0.5-0.1-1-0.2-1.4
			c-0.2-0.4-0.4-0.8-0.7-1.2c-0.3-0.3-0.7-0.6-1.1-0.8c-0.4-0.2-0.9-0.3-1.4-0.3c-0.5,0-1,0.1-1.4,0.3c-0.4,0.2-0.8,0.5-1.1,0.8
			c-0.3,0.3-0.5,0.7-0.7,1.2c-0.2,0.4-0.3,0.9-0.2,1.4l0,0c0,0.5,0.1,1,0.2,1.4c0.2,0.4,0.4,0.8,0.7,1.2c0.3,0.3,0.7,0.6,1.1,0.8
			C178.1,52.8,178.5,52.9,179,52.9"/>
		<g>
			<defs>
				<path id="SVGID_1_" d="M40.9,3.9c-9,2.9-6.2,11.4,1.2,11.1c12.8-0.5,14.4,6.3,14.5,10.9c0.2,9.4-12.2,12.7-19.6,14.9
					c-19.6,3.8-21.3-5.5-22-8.9c-0.5-6.5,14.9-11.3,14.7-18.6c-0.5-8.6-9.6-4.6-13.9,0C5.4,24.6,3.5,67,29,70.7
					c5.4,0.8,1.9-9.6,1.9-12c0-9.1,10.1-10.5,15.3-12.7c22.4-9.1,22.9-24.1,20.1-31.3C63,6,54.8,3.3,47.3,3.3
					C45.2,3.3,43,3.5,40.9,3.9"/>
			</defs>
			<clipPath id="SVGID_00000134237383377988967150000011037191995616139693_">
				<use xlink:href="#SVGID_1_"  style="overflow:visible;"/>
			</clipPath>
			<g style="clip-path:url(#SVGID_00000134237383377988967150000011037191995616139693_);">
				
					<linearGradient id="SVGID_00000175310219438893977650000012086445384393494462_" gradientUnits="userSpaceOnUse" x1="659.9451" y1="-3473.0574" x2="660.9451" y2="-3473.0574" gradientTransform="matrix(23.0697 -47.8712 47.8712 23.0697 151055.2031 111784.5703)">
					<stop  offset="0" style="stop-color:#105294"/>
					<stop  offset="0" style="stop-color:#105294"/>
					<stop  offset="0.35" style="stop-color:#3C6DB4"/>
					<stop  offset="0.42" style="stop-color:#3B76BB"/>
					<stop  offset="0.64" style="stop-color:#3990CE"/>
					<stop  offset="0.84" style="stop-color:#37A0DA"/>
					<stop  offset="1" style="stop-color:#37A5DE"/>
				</linearGradient>
				<polygon style="fill:url(#SVGID_00000175310219438893977650000012086445384393494462_);" points="-23.2,58.6 15.8,-22.4 
					95.8,16.1 56.7,97.2 				"/>
			</g>
		</g>
		<g>
			<defs>
				<path id="SVGID_00000044175230443906564840000016538067568840853907_" d="M19.3,32.8c0,3.5,2.8,6.3,6.3,6.3s6.3-2.8,6.3-6.3
					c0-3.5-2.8-6.3-6.3-6.3c0,0,0,0,0,0C22.1,26.5,19.3,29.3,19.3,32.8C19.3,32.7,19.3,32.8,19.3,32.8"/>
			</defs>
			<clipPath id="SVGID_00000033361545710034633610000002863904224666142622_">
				<use xlink:href="#SVGID_00000044175230443906564840000016538067568840853907_"  style="overflow:visible;"/>
			</clipPath>
			<g style="clip-path:url(#SVGID_00000033361545710034633610000002863904224666142622_);">
				
					<linearGradient id="SVGID_00000029042709909194759210000008239022205224044710_" gradientUnits="userSpaceOnUse" x1="658.6348" y1="-3474.7793" x2="659.6348" y2="-3474.7793" gradientTransform="matrix(21.5602 -41.1883 41.1883 21.5602 128934.625 102098.7812)">
					<stop  offset="0" style="stop-color:#105294"/>
					<stop  offset="0" style="stop-color:#105294"/>
					<stop  offset="0.37" style="stop-color:#3C6DB4"/>
					<stop  offset="0.44" style="stop-color:#3B76BB"/>
					<stop  offset="0.65" style="stop-color:#3990CE"/>
					<stop  offset="0.85" style="stop-color:#37A0DA"/>
					<stop  offset="1" style="stop-color:#37A5DE"/>
				</linearGradient>
				<polygon style="fill:url(#SVGID_00000029042709909194759210000008239022205224044710_);" points="14.2,36.3 22,21.3 37,29.2 
					29.2,44.2 				"/>
			</g>
		</g>
		<g>
			<defs>
				<path id="SVGID_00000106139394516578769590000014328752656259963559_" d="M16,13.3c-0.4,1.4-0.7,2.8-1,4.2
					c-0.1,0.8-0.3,1.6-0.4,2.4c0,0.4-0.1,0.8-0.2,1.2l-0.1,1.2l-0.1,1.2v1.2c0,0.8,0,1.6,0.1,2.4c0.1,1.6,0.4,3.1,0.8,4.6
					c-0.2-6.3,14.8-11.1,14.7-18.4c-0.2-3.7-2-5.1-4.3-5.1C22.4,8.3,18.4,10.7,16,13.3"/>
			</defs>
			<clipPath id="SVGID_00000079453527535328305970000003763059368062576256_">
				<use xlink:href="#SVGID_00000106139394516578769590000014328752656259963559_"  style="overflow:visible;"/>
			</clipPath>
			<g style="clip-path:url(#SVGID_00000079453527535328305970000003763059368062576256_);">
				
					<linearGradient id="SVGID_00000179628969532251978370000017847692116027066018_" gradientUnits="userSpaceOnUse" x1="650.1317" y1="-3487.0918" x2="651.1317" y2="-3487.0918" gradientTransform="matrix(13.5833 -20.9164 20.9164 13.5833 64122.2773 60994.5508)">
					<stop  offset="0" style="stop-color:#29885E"/>
					<stop  offset="0.54" style="stop-color:#77BE82"/>
					<stop  offset="1" style="stop-color:#98C774"/>
				</linearGradient>
				<polygon style="fill:url(#SVGID_00000179628969532251978370000017847692116027066018_);" points="3.5,24.8 18.9,1.1 40.6,15.2 
					25.3,38.9 				"/>
			</g>
		</g>
		<g>
			<defs>
				<path id="SVGID_00000019669437087574334570000000796211846785796031_" d="M40.9,3.9c-9,2.9-6.2,11.4,1.2,11.1
					c12.8-0.5,14.4,6.3,14.5,10.9c0.1,3.1-1.3,6.1-3.8,8c1.1-0.7,2.2-1.3,3.3-2c1.1-0.7,2-1.4,2.9-2.1c0.9-0.8,1.8-1.6,2.6-2.5
					c0.8-0.9,1.6-1.8,2.2-2.8c0.7-1,1.2-2,1.6-3.1c0.4-1.1,0.7-2.3,0.8-3.4c0.1-1.1,0.1-2.3,0-3.4c-3.4-8.5-11.5-11.2-19-11.2
					C45.2,3.3,43,3.5,40.9,3.9"/>
			</defs>
			<clipPath id="SVGID_00000143593905373493763120000017597318622522860461_">
				<use xlink:href="#SVGID_00000019669437087574334570000000796211846785796031_"  style="overflow:visible;"/>
			</clipPath>
			<g style="clip-path:url(#SVGID_00000143593905373493763120000017597318622522860461_);">
				
					<linearGradient id="SVGID_00000050650374042344294980000009274438377506700453_" gradientUnits="userSpaceOnUse" x1="683.4749" y1="-3482.6353" x2="684.4749" y2="-3482.6353" gradientTransform="matrix(-14.9824 -22.4737 22.4737 -14.9824 88564.9609 -36787.5586)">
					<stop  offset="0" style="stop-color:#EB5751"/>
					<stop  offset="0.55" style="stop-color:#F28F31"/>
					<stop  offset="1" style="stop-color:#F8AC4F"/>
				</linearGradient>
				<polygon style="fill:url(#SVGID_00000050650374042344294980000009274438377506700453_);" points="17.8,12.7 55.8,-12.6 
					80.5,24.5 42.6,49.8 				"/>
			</g>
		</g>
		<g>
			<defs>
				<path id="SVGID_00000080186650395782038750000008863642794397515711_" d="M35,50.4l-0.6,0.2l-0.6,0.2l-1.2,0.4l-1.2,0.5
					c-0.4,0.2-0.8,0.4-1.1,0.5s-0.8,0.4-1.1,0.6l-1.1,0.6L27,54.2c-0.4,0.2-0.7,0.5-1,0.7c-0.2,0.1-0.3,0.2-0.5,0.4L25,55.6
					l-0.2,0.2L24.5,56l-0.5,0.4c-0.1,0.1-0.2,0.1-0.2,0.2l-0.2,0.2l-0.5,0.4c-0.3,0.3-0.6,0.6-0.9,0.9c-0.3,0.3-0.6,0.6-0.8,1
					c-1.4,2-2.5,4.2-3.2,6.5l0,0c3,2.7,6.7,4.4,10.7,4.9c5.4,0.8,1.9-9.6,1.9-12c0-4.4,2.3-7,5.3-8.7C35.8,50.1,35.4,50.2,35,50.4"
					/>
			</defs>
			<clipPath id="SVGID_00000176024543836731800190000008456574735680059275_">
				<use xlink:href="#SVGID_00000080186650395782038750000008863642794397515711_"  style="overflow:visible;"/>
			</clipPath>
			<g style="clip-path:url(#SVGID_00000176024543836731800190000008456574735680059275_);">
				
					<linearGradient id="SVGID_00000070819803760551478510000000837928808853858970_" gradientUnits="userSpaceOnUse" x1="655.3738" y1="-3413.2412" x2="656.3738" y2="-3413.2412" gradientTransform="matrix(2.3506 16.7256 -16.7256 2.3506 -58602.7461 -2883.2917)">
					<stop  offset="0" style="stop-color:#29885E"/>
					<stop  offset="0.54" style="stop-color:#77BE82"/>
					<stop  offset="1" style="stop-color:#98C774"/>
				</linearGradient>
				<polygon style="fill:url(#SVGID_00000070819803760551478510000000837928808853858970_);" points="15.3,50.4 35.8,47.5 
					39.1,71.1 18.6,74 				"/>
			</g>
		</g>
	</g>
</g>
</svg>
